<?xml version="1.0" encoding="UTF-8" standalone="no"?>
<svg
   width="75.590553"
   height="75.590553"
   viewBox="0 0 75.590553 75.590553"
   version="1.1"
   xml:space="preserve"
   style="clip-rule:evenodd;fill-rule:evenodd;stroke-linejoin:round;stroke-miterlimit:1.41421"
   id="svg860"
   sodipodi:docname="sublimemerge-icon.svg"
   inkscape:version="1.1.1 (c3084ef, 2021-09-22)"
   xmlns:inkscape="http://www.inkscape.org/namespaces/inkscape"
   xmlns:sodipodi="http://sodipodi.sourceforge.net/DTD/sodipodi-0.dtd"
   xmlns="http://www.w3.org/2000/svg"
   xmlns:svg="http://www.w3.org/2000/svg"><defs
     id="defs864" /><sodipodi:namedview
     id="namedview862"
     pagecolor="#ffffff"
     bordercolor="#999999"
     borderopacity="1"
     inkscape:pageshadow="0"
     inkscape:pageopacity="0"
     inkscape:pagecheckerboard="0"
     showgrid="false"
     inkscape:zoom="3.270721"
     inkscape:cx="54.575123"
     inkscape:cy="59.772754"
     inkscape:window-width="1720"
     inkscape:window-height="1387"
     inkscape:window-x="0"
     inkscape:window-y="25"
     inkscape:window-maximized="0"
     inkscape:current-layer="svg860" /><rect
     style="fill:#666666;stroke-width:0.15105;stroke-linecap:round;stroke-linejoin:round"
     id="rect1067"
     width="75.590553"
     height="75.590553"
     x="0"
     y="0"
     ry="1.8935664e-07" /><g
     id="g858"
     transform="translate(15.571916,12.796247)"><g
       id="g856"><path
         d="m 23.234,31.422 c -0.215,0.015 -0.438,-0.041 -0.628,-0.174 L 0.416,15.711 C -0.025,15.401 -0.133,14.792 0.177,14.35 L 6.433,5.416 c 0.309,-0.442 0.919,-0.55 1.36,-0.24 l 19.131,13.395 h 11.099 c 0.274,0 0.521,0.113 0.699,0.294 0.026,0.027 0.324,0.295 0.733,0.738 l 4.706,4.706 c 0.381,0.381 0.381,1 0,1.382 l -4.948,4.947 v -0.005 c -0.29,0.313 -0.487,0.501 -0.508,0.521 -0.176,0.172 -0.417,0.278 -0.682,0.278 H 23.242 Z"
         style="fill:#88d9d9"
         id="path852" /><path
         d="m 23.238,18.577 0.004,-0.006 h 14.781 c 0.265,0 0.506,0.106 0.682,0.278 0.021,0.02 0.222,0.211 0.517,0.53 V 19.37 l 4.939,4.939 c 0.381,0.381 0.381,1 0,1.382 l -4.67,4.669 c -0.427,0.467 -0.743,0.75 -0.769,0.777 -0.178,0.182 -0.425,0.295 -0.699,0.295 H 26.917 L 7.793,44.822 c -0.441,0.31 -1.051,0.202 -1.36,-0.239 L 0.177,35.648 c -0.31,-0.442 -0.202,-1.051 0.239,-1.361 L 22.606,18.75 c 0.191,-0.134 0.415,-0.19 0.632,-0.173 z"
         style="fill:#00e6e7"
         id="path854" /></g></g></svg>
