<?xml version="1.0" encoding="UTF-8" standalone="no"?><svg xmlns="http://www.w3.org/2000/svg" xmlns:xlink="http://www.w3.org/1999/xlink" contentStyleType="text/css" height="264px" preserveAspectRatio="none" style="width:222px;height:264px;background:#FFFFFF;" version="1.1" viewBox="0 0 222 264" width="222px" zoomAndPan="magnify"><defs/><g><!--MD5=[cbce687a05a9cd67b0897468438d0ab1]
class Pokemon--><g id="elem_Pokemon"><rect codeLine="1" fill="#F1F1F1" height="243.5625" id="Pokemon" rx="2.5" ry="2.5" style="stroke:#181818;stroke-width:0.5;" width="201" x="7" y="7"/><ellipse cx="69.25" cy="23" fill="#ADD1B2" rx="11" ry="11" style="stroke:#181818;stroke-width:1.0;"/><path d="M71.5938,18.6719 C70.6563,18.2344 70.0625,18.0938 69.1875,18.0938 C66.5625,18.0938 64.5625,20.1719 64.5625,22.8906 L64.5625,24.0156 C64.5625,26.5938 66.6719,28.4844 69.5625,28.4844 C70.7813,28.4844 71.9375,28.1875 72.6875,27.6406 C73.2656,27.2344 73.5938,26.7813 73.5938,26.3906 C73.5938,25.9375 73.2031,25.5469 72.7344,25.5469 C72.5156,25.5469 72.3125,25.625 72.125,25.8125 C71.6719,26.2969 71.6719,26.2969 71.4844,26.3906 C71.0625,26.6563 70.375,26.7813 69.6094,26.7813 C67.5625,26.7813 66.2656,25.6875 66.2656,23.9844 L66.2656,22.8906 C66.2656,21.1094 67.5156,19.7969 69.25,19.7969 C69.8281,19.7969 70.4375,19.9531 70.9063,20.2031 C71.3906,20.4844 71.5625,20.7031 71.6563,21.1094 C71.7188,21.5156 71.75,21.6406 71.8906,21.7656 C72.0313,21.9063 72.2656,22.0156 72.4844,22.0156 C72.75,22.0156 73.0156,21.875 73.1875,21.6563 C73.2969,21.5 73.3281,21.3125 73.3281,20.8906 L73.3281,19.4688 C73.3281,19.0313 73.3125,18.9063 73.2188,18.75 C73.0625,18.4844 72.7813,18.3438 72.4844,18.3438 C72.1875,18.3438 71.9844,18.4375 71.7656,18.75 L71.5938,18.6719 Z " fill="#000000"/><text fill="#000000" font-family="sans-serif" font-size="14" lengthAdjust="spacing" textLength="68" x="89.75" y="27.8467">Pokemon</text><line style="stroke:#181818;stroke-width:0.5;" x1="8" x2="207" y1="39" y2="39"/><rect fill="none" height="6" style="stroke:#C82930;stroke-width:1.0;" width="6" x="15" y="67.2969"/><text fill="#000000" font-family="sans-serif" font-size="14" lengthAdjust="spacing" textLength="139" x="27" y="76.292">name: str { name }</text><rect fill="none" height="6" style="stroke:#C82930;stroke-width:1.0;" width="6" x="15" y="83.5938"/><text fill="#000000" font-family="sans-serif" font-size="14" lengthAdjust="spacing" textLength="127" x="27" y="92.5889">type: str { type }</text><rect fill="none" height="6" style="stroke:#C82930;stroke-width:1.0;" width="6" x="15" y="99.8906"/><text fill="#000000" font-family="sans-serif" font-size="14" lengthAdjust="spacing" textLength="151" x="27" y="108.8857">health: int { health }</text><rect fill="none" height="6" style="stroke:#C82930;stroke-width:1.0;" width="6" x="15" y="116.1875"/><text fill="#000000" font-family="sans-serif" font-size="14" lengthAdjust="spacing" textLength="153" x="27" y="125.1826">attack: int { attack }</text><rect fill="none" height="6" style="stroke:#C82930;stroke-width:1.0;" width="6" x="15" y="132.4844"/><text fill="#000000" font-family="sans-serif" font-size="14" lengthAdjust="spacing" textLength="175" x="27" y="141.4795">defense: int { defense }</text><rect fill="none" height="6" style="stroke:#C82930;stroke-width:1.0;" width="6" x="15" y="148.7813"/><text fill="#000000" font-family="sans-serif" font-size="14" lengthAdjust="spacing" textLength="147" x="27" y="157.7764">speed: int { speed }</text><line style="stroke:#181818;stroke-width:1.0;stroke-dasharray:1.0,2.0;" x1="8" x2="70" y1="55.1484" y2="55.1484"/><text fill="#000000" font-family="sans-serif" font-size="14" lengthAdjust="spacing" textLength="75" x="70" y="59.4951">Attributes</text><line style="stroke:#181818;stroke-width:1.0;stroke-dasharray:1.0,2.0;" x1="145" x2="207" y1="55.1484" y2="55.1484"/><rect fill="#F24D5C" height="6" style="stroke:#C82930;stroke-width:1.0;" width="6" x="15" y="185.375"/><text fill="#000000" font-family="sans-serif" font-size="14" lengthAdjust="spacing" textLength="120" x="27" y="194.3701">speak(): Type {}</text><rect fill="#F24D5C" height="6" style="stroke:#C82930;stroke-width:1.0;" width="6" x="15" y="201.6719"/><text fill="#000000" font-family="sans-serif" font-size="14" lengthAdjust="spacing" textLength="124" x="27" y="210.667">attack(): Type {}</text><rect fill="#F24D5C" height="6" style="stroke:#C82930;stroke-width:1.0;" width="6" x="15" y="217.9688"/><text fill="#000000" font-family="sans-serif" font-size="14" lengthAdjust="spacing" textLength="122" x="27" y="226.9639">dodge(): Type {}</text><rect fill="#F24D5C" height="6" style="stroke:#C82930;stroke-width:1.0;" width="6" x="15" y="234.2656"/><text fill="#000000" font-family="sans-serif" font-size="14" lengthAdjust="spacing" textLength="124" x="27" y="243.2607">evolve(): Type {}</text><line style="stroke:#181818;stroke-width:1.0;stroke-dasharray:1.0,2.0;" x1="8" x2="76.5" y1="173.2266" y2="173.2266"/><text fill="#000000" font-family="sans-serif" font-size="14" lengthAdjust="spacing" textLength="62" x="76.5" y="177.5732">Methods</text><line style="stroke:#181818;stroke-width:1.0;stroke-dasharray:1.0,2.0;" x1="138.5" x2="207" y1="173.2266" y2="173.2266"/></g><!--MD5=[70f953f90c4863f68e0919aa1ecd5622]
@startuml
class Pokemon {
  .. Attributes ..
- name: str { name }
- type: str { type }
- health: int { health }
- attack: int { attack }
- defense: int { defense }
- speed: int { speed }
  .. Methods ..
- speak(): Type {}
- attack(): Type {}
- dodge(): Type {}
- evolve(): Type {}
}
@enduml

PlantUML version 1.2022.3beta2(Unknown compile time)
(GPL source distribution)
Java Runtime: Java(TM) SE Runtime Environment
JVM: Java HotSpot(TM) 64-Bit Server VM
Default Encoding: UTF-8
Language: en
Country: US
--></g></svg>