<?xml version="1.0" encoding="UTF-8" standalone="no"?><svg xmlns="http://www.w3.org/2000/svg" xmlns:xlink="http://www.w3.org/1999/xlink" contentStyleType="text/css" height="447px" preserveAspectRatio="none" style="width:939px;height:447px;background:#FFFFFF;" version="1.1" viewBox="0 0 939 447" width="939px" zoomAndPan="magnify"><defs/><g><!--MD5=[cbce687a05a9cd67b0897468438d0ab1]
class Pokemon--><g id="elem_Pokemon"><rect codeLine="1" fill="#F1F1F1" height="243.5625" id="Pokemon" rx="2.5" ry="2.5" style="stroke:#181818;stroke-width:0.5;" width="201" x="369" y="7"/><ellipse cx="431.25" cy="23" fill="#ADD1B2" rx="11" ry="11" style="stroke:#181818;stroke-width:1.0;"/><path d="M433.5938,18.6719 C432.6563,18.2344 432.0625,18.0938 431.1875,18.0938 C428.5625,18.0938 426.5625,20.1719 426.5625,22.8906 L426.5625,24.0156 C426.5625,26.5938 428.6719,28.4844 431.5625,28.4844 C432.7813,28.4844 433.9375,28.1875 434.6875,27.6406 C435.2656,27.2344 435.5938,26.7813 435.5938,26.3906 C435.5938,25.9375 435.2031,25.5469 434.7344,25.5469 C434.5156,25.5469 434.3125,25.625 434.125,25.8125 C433.6719,26.2969 433.6719,26.2969 433.4844,26.3906 C433.0625,26.6563 432.375,26.7813 431.6094,26.7813 C429.5625,26.7813 428.2656,25.6875 428.2656,23.9844 L428.2656,22.8906 C428.2656,21.1094 429.5156,19.7969 431.25,19.7969 C431.8281,19.7969 432.4375,19.9531 432.9063,20.2031 C433.3906,20.4844 433.5625,20.7031 433.6563,21.1094 C433.7188,21.5156 433.75,21.6406 433.8906,21.7656 C434.0313,21.9063 434.2656,22.0156 434.4844,22.0156 C434.75,22.0156 435.0156,21.875 435.1875,21.6563 C435.2969,21.5 435.3281,21.3125 435.3281,20.8906 L435.3281,19.4688 C435.3281,19.0313 435.3125,18.9063 435.2188,18.75 C435.0625,18.4844 434.7813,18.3438 434.4844,18.3438 C434.1875,18.3438 433.9844,18.4375 433.7656,18.75 L433.5938,18.6719 Z " fill="#000000"/><text fill="#000000" font-family="sans-serif" font-size="14" lengthAdjust="spacing" textLength="68" x="451.75" y="27.8467">Pokemon</text><line style="stroke:#181818;stroke-width:0.5;" x1="370" x2="569" y1="39" y2="39"/><rect fill="none" height="6" style="stroke:#C82930;stroke-width:1.0;" width="6" x="377" y="67.2969"/><text fill="#000000" font-family="sans-serif" font-size="14" lengthAdjust="spacing" textLength="139" x="389" y="76.292">name: str { name }</text><rect fill="none" height="6" style="stroke:#C82930;stroke-width:1.0;" width="6" x="377" y="83.5938"/><text fill="#000000" font-family="sans-serif" font-size="14" lengthAdjust="spacing" textLength="127" x="389" y="92.5889">type: str { type }</text><rect fill="none" height="6" style="stroke:#C82930;stroke-width:1.0;" width="6" x="377" y="99.8906"/><text fill="#000000" font-family="sans-serif" font-size="14" lengthAdjust="spacing" textLength="151" x="389" y="108.8857">health: int { health }</text><rect fill="none" height="6" style="stroke:#C82930;stroke-width:1.0;" width="6" x="377" y="116.1875"/><text fill="#000000" font-family="sans-serif" font-size="14" lengthAdjust="spacing" textLength="153" x="389" y="125.1826">attack: int { attack }</text><rect fill="none" height="6" style="stroke:#C82930;stroke-width:1.0;" width="6" x="377" y="132.4844"/><text fill="#000000" font-family="sans-serif" font-size="14" lengthAdjust="spacing" textLength="175" x="389" y="141.4795">defense: int { defense }</text><rect fill="none" height="6" style="stroke:#C82930;stroke-width:1.0;" width="6" x="377" y="148.7813"/><text fill="#000000" font-family="sans-serif" font-size="14" lengthAdjust="spacing" textLength="147" x="389" y="157.7764">speed: int { speed }</text><line style="stroke:#181818;stroke-width:1.0;stroke-dasharray:1.0,2.0;" x1="370" x2="432" y1="55.1484" y2="55.1484"/><text fill="#000000" font-family="sans-serif" font-size="14" lengthAdjust="spacing" textLength="75" x="432" y="59.4951">Attributes</text><line style="stroke:#181818;stroke-width:1.0;stroke-dasharray:1.0,2.0;" x1="507" x2="569" y1="55.1484" y2="55.1484"/><rect fill="#F24D5C" height="6" style="stroke:#C82930;stroke-width:1.0;" width="6" x="377" y="185.375"/><text fill="#000000" font-family="sans-serif" font-size="14" lengthAdjust="spacing" textLength="120" x="389" y="194.3701">speak(): Type {}</text><rect fill="#F24D5C" height="6" style="stroke:#C82930;stroke-width:1.0;" width="6" x="377" y="201.6719"/><text fill="#000000" font-family="sans-serif" font-size="14" lengthAdjust="spacing" textLength="124" x="389" y="210.667">attack(): Type {}</text><rect fill="#F24D5C" height="6" style="stroke:#C82930;stroke-width:1.0;" width="6" x="377" y="217.9688"/><text fill="#000000" font-family="sans-serif" font-size="14" lengthAdjust="spacing" textLength="122" x="389" y="226.9639">dodge(): Type {}</text><rect fill="#F24D5C" height="6" style="stroke:#C82930;stroke-width:1.0;" width="6" x="377" y="234.2656"/><text fill="#000000" font-family="sans-serif" font-size="14" lengthAdjust="spacing" textLength="124" x="389" y="243.2607">evolve(): Type {}</text><line style="stroke:#181818;stroke-width:1.0;stroke-dasharray:1.0,2.0;" x1="370" x2="438.5" y1="173.2266" y2="173.2266"/><text fill="#000000" font-family="sans-serif" font-size="14" lengthAdjust="spacing" textLength="62" x="438.5" y="177.5732">Methods</text><line style="stroke:#181818;stroke-width:1.0;stroke-dasharray:1.0,2.0;" x1="500.5" x2="569" y1="173.2266" y2="173.2266"/></g><!--MD5=[a92ffbab41d4dea79f21d8fce7585902]
class ElectricPokemon--><g id="elem_ElectricPokemon"><rect codeLine="16" fill="#F1F1F1" height="129.4844" id="ElectricPokemon" rx="2.5" ry="2.5" style="stroke:#181818;stroke-width:0.5;" width="285" x="7" y="311"/><ellipse cx="83.75" cy="327" fill="#ADD1B2" rx="11" ry="11" style="stroke:#181818;stroke-width:1.0;"/><path d="M86.0938,322.6719 C85.1563,322.2344 84.5625,322.0938 83.6875,322.0938 C81.0625,322.0938 79.0625,324.1719 79.0625,326.8906 L79.0625,328.0156 C79.0625,330.5938 81.1719,332.4844 84.0625,332.4844 C85.2813,332.4844 86.4375,332.1875 87.1875,331.6406 C87.7656,331.2344 88.0938,330.7813 88.0938,330.3906 C88.0938,329.9375 87.7031,329.5469 87.2344,329.5469 C87.0156,329.5469 86.8125,329.625 86.625,329.8125 C86.1719,330.2969 86.1719,330.2969 85.9844,330.3906 C85.5625,330.6563 84.875,330.7813 84.1094,330.7813 C82.0625,330.7813 80.7656,329.6875 80.7656,327.9844 L80.7656,326.8906 C80.7656,325.1094 82.0156,323.7969 83.75,323.7969 C84.3281,323.7969 84.9375,323.9531 85.4063,324.2031 C85.8906,324.4844 86.0625,324.7031 86.1563,325.1094 C86.2188,325.5156 86.25,325.6406 86.3906,325.7656 C86.5313,325.9063 86.7656,326.0156 86.9844,326.0156 C87.25,326.0156 87.5156,325.875 87.6875,325.6563 C87.7969,325.5 87.8281,325.3125 87.8281,324.8906 L87.8281,323.4688 C87.8281,323.0313 87.8125,322.9063 87.7188,322.75 C87.5625,322.4844 87.2813,322.3438 86.9844,322.3438 C86.6875,322.3438 86.4844,322.4375 86.2656,322.75 L86.0938,322.6719 Z " fill="#000000"/><text fill="#000000" font-family="sans-serif" font-size="14" lengthAdjust="spacing" textLength="123" x="104.25" y="331.8467">ElectricPokemon</text><line style="stroke:#181818;stroke-width:0.5;" x1="8" x2="291" y1="343" y2="343"/><rect fill="none" height="6" style="stroke:#C82930;stroke-width:1.0;" width="6" x="15" y="371.2969"/><text fill="#000000" font-family="sans-serif" font-size="14" lengthAdjust="spacing" textLength="259" x="27" y="380.292">special_attack: int {special_attack}</text><line style="stroke:#181818;stroke-width:1.0;stroke-dasharray:1.0,2.0;" x1="8" x2="112" y1="359.1484" y2="359.1484"/><text fill="#000000" font-family="sans-serif" font-size="14" lengthAdjust="spacing" textLength="75" x="112" y="363.4951">Attributes</text><line style="stroke:#181818;stroke-width:1.0;stroke-dasharray:1.0,2.0;" x1="187" x2="291" y1="359.1484" y2="359.1484"/><rect fill="#F24D5C" height="6" style="stroke:#C82930;stroke-width:1.0;" width="6" x="15" y="407.8906"/><text fill="#000000" font-family="sans-serif" font-size="14" lengthAdjust="spacing" textLength="120" x="27" y="416.8857">speak(): Type {}</text><rect fill="#F24D5C" height="6" style="stroke:#C82930;stroke-width:1.0;" width="6" x="15" y="424.1875"/><text fill="#000000" font-family="sans-serif" font-size="14" lengthAdjust="spacing" textLength="181" x="27" y="433.1826">electricAttack(): Type {}</text><line style="stroke:#181818;stroke-width:1.0;stroke-dasharray:1.0,2.0;" x1="8" x2="118.5" y1="395.7422" y2="395.7422"/><text fill="#000000" font-family="sans-serif" font-size="14" lengthAdjust="spacing" textLength="62" x="118.5" y="400.0889">Methods</text><line style="stroke:#181818;stroke-width:1.0;stroke-dasharray:1.0,2.0;" x1="180.5" x2="291" y1="395.7422" y2="395.7422"/></g><!--MD5=[26a2efd8bc735574c535deea8413d3c3]
class FirePokemon--><g id="elem_FirePokemon"><rect codeLine="24" fill="#F1F1F1" height="129.4844" id="FirePokemon" rx="2.5" ry="2.5" style="stroke:#181818;stroke-width:0.5;" width="285" x="327" y="311"/><ellipse cx="417.75" cy="327" fill="#ADD1B2" rx="11" ry="11" style="stroke:#181818;stroke-width:1.0;"/><path d="M420.0938,322.6719 C419.1563,322.2344 418.5625,322.0938 417.6875,322.0938 C415.0625,322.0938 413.0625,324.1719 413.0625,326.8906 L413.0625,328.0156 C413.0625,330.5938 415.1719,332.4844 418.0625,332.4844 C419.2813,332.4844 420.4375,332.1875 421.1875,331.6406 C421.7656,331.2344 422.0938,330.7813 422.0938,330.3906 C422.0938,329.9375 421.7031,329.5469 421.2344,329.5469 C421.0156,329.5469 420.8125,329.625 420.625,329.8125 C420.1719,330.2969 420.1719,330.2969 419.9844,330.3906 C419.5625,330.6563 418.875,330.7813 418.1094,330.7813 C416.0625,330.7813 414.7656,329.6875 414.7656,327.9844 L414.7656,326.8906 C414.7656,325.1094 416.0156,323.7969 417.75,323.7969 C418.3281,323.7969 418.9375,323.9531 419.4063,324.2031 C419.8906,324.4844 420.0625,324.7031 420.1563,325.1094 C420.2188,325.5156 420.25,325.6406 420.3906,325.7656 C420.5313,325.9063 420.7656,326.0156 420.9844,326.0156 C421.25,326.0156 421.5156,325.875 421.6875,325.6563 C421.7969,325.5 421.8281,325.3125 421.8281,324.8906 L421.8281,323.4688 C421.8281,323.0313 421.8125,322.9063 421.7188,322.75 C421.5625,322.4844 421.2813,322.3438 420.9844,322.3438 C420.6875,322.3438 420.4844,322.4375 420.2656,322.75 L420.0938,322.6719 Z " fill="#000000"/><text fill="#000000" font-family="sans-serif" font-size="14" lengthAdjust="spacing" textLength="95" x="438.25" y="331.8467">FirePokemon</text><line style="stroke:#181818;stroke-width:0.5;" x1="328" x2="611" y1="343" y2="343"/><rect fill="none" height="6" style="stroke:#C82930;stroke-width:1.0;" width="6" x="335" y="371.2969"/><text fill="#000000" font-family="sans-serif" font-size="14" lengthAdjust="spacing" textLength="259" x="347" y="380.292">special_attack: int {special_attack}</text><line style="stroke:#181818;stroke-width:1.0;stroke-dasharray:1.0,2.0;" x1="328" x2="432" y1="359.1484" y2="359.1484"/><text fill="#000000" font-family="sans-serif" font-size="14" lengthAdjust="spacing" textLength="75" x="432" y="363.4951">Attributes</text><line style="stroke:#181818;stroke-width:1.0;stroke-dasharray:1.0,2.0;" x1="507" x2="611" y1="359.1484" y2="359.1484"/><rect fill="#F24D5C" height="6" style="stroke:#C82930;stroke-width:1.0;" width="6" x="335" y="407.8906"/><text fill="#000000" font-family="sans-serif" font-size="14" lengthAdjust="spacing" textLength="120" x="347" y="416.8857">speak(): Type {}</text><rect fill="#F24D5C" height="6" style="stroke:#C82930;stroke-width:1.0;" width="6" x="335" y="424.1875"/><text fill="#000000" font-family="sans-serif" font-size="14" lengthAdjust="spacing" textLength="151" x="347" y="433.1826">fireAttack(): Type {}</text><line style="stroke:#181818;stroke-width:1.0;stroke-dasharray:1.0,2.0;" x1="328" x2="438.5" y1="395.7422" y2="395.7422"/><text fill="#000000" font-family="sans-serif" font-size="14" lengthAdjust="spacing" textLength="62" x="438.5" y="400.0889">Methods</text><line style="stroke:#181818;stroke-width:1.0;stroke-dasharray:1.0,2.0;" x1="500.5" x2="611" y1="395.7422" y2="395.7422"/></g><!--MD5=[1fb267ea68a6fab1c70a981d5eaeec92]
class WaterPokemon--><g id="elem_WaterPokemon"><rect codeLine="32" fill="#F1F1F1" height="129.4844" id="WaterPokemon" rx="2.5" ry="2.5" style="stroke:#181818;stroke-width:0.5;" width="285" x="647" y="311"/><ellipse cx="729.25" cy="327" fill="#ADD1B2" rx="11" ry="11" style="stroke:#181818;stroke-width:1.0;"/><path d="M731.5938,322.6719 C730.6563,322.2344 730.0625,322.0938 729.1875,322.0938 C726.5625,322.0938 724.5625,324.1719 724.5625,326.8906 L724.5625,328.0156 C724.5625,330.5938 726.6719,332.4844 729.5625,332.4844 C730.7813,332.4844 731.9375,332.1875 732.6875,331.6406 C733.2656,331.2344 733.5938,330.7813 733.5938,330.3906 C733.5938,329.9375 733.2031,329.5469 732.7344,329.5469 C732.5156,329.5469 732.3125,329.625 732.125,329.8125 C731.6719,330.2969 731.6719,330.2969 731.4844,330.3906 C731.0625,330.6563 730.375,330.7813 729.6094,330.7813 C727.5625,330.7813 726.2656,329.6875 726.2656,327.9844 L726.2656,326.8906 C726.2656,325.1094 727.5156,323.7969 729.25,323.7969 C729.8281,323.7969 730.4375,323.9531 730.9063,324.2031 C731.3906,324.4844 731.5625,324.7031 731.6563,325.1094 C731.7188,325.5156 731.75,325.6406 731.8906,325.7656 C732.0313,325.9063 732.2656,326.0156 732.4844,326.0156 C732.75,326.0156 733.0156,325.875 733.1875,325.6563 C733.2969,325.5 733.3281,325.3125 733.3281,324.8906 L733.3281,323.4688 C733.3281,323.0313 733.3125,322.9063 733.2188,322.75 C733.0625,322.4844 732.7813,322.3438 732.4844,322.3438 C732.1875,322.3438 731.9844,322.4375 731.7656,322.75 L731.5938,322.6719 Z " fill="#000000"/><text fill="#000000" font-family="sans-serif" font-size="14" lengthAdjust="spacing" textLength="112" x="749.75" y="331.8467">WaterPokemon</text><line style="stroke:#181818;stroke-width:0.5;" x1="648" x2="931" y1="343" y2="343"/><rect fill="none" height="6" style="stroke:#C82930;stroke-width:1.0;" width="6" x="655" y="371.2969"/><text fill="#000000" font-family="sans-serif" font-size="14" lengthAdjust="spacing" textLength="259" x="667" y="380.292">special_attack: int {special_attack}</text><line style="stroke:#181818;stroke-width:1.0;stroke-dasharray:1.0,2.0;" x1="648" x2="752" y1="359.1484" y2="359.1484"/><text fill="#000000" font-family="sans-serif" font-size="14" lengthAdjust="spacing" textLength="75" x="752" y="363.4951">Attributes</text><line style="stroke:#181818;stroke-width:1.0;stroke-dasharray:1.0,2.0;" x1="827" x2="931" y1="359.1484" y2="359.1484"/><rect fill="#F24D5C" height="6" style="stroke:#C82930;stroke-width:1.0;" width="6" x="655" y="407.8906"/><text fill="#000000" font-family="sans-serif" font-size="14" lengthAdjust="spacing" textLength="120" x="667" y="416.8857">speak(): Type {}</text><rect fill="#F24D5C" height="6" style="stroke:#C82930;stroke-width:1.0;" width="6" x="655" y="424.1875"/><text fill="#000000" font-family="sans-serif" font-size="14" lengthAdjust="spacing" textLength="167" x="667" y="433.1826">waterAttack(): Type {}</text><line style="stroke:#181818;stroke-width:1.0;stroke-dasharray:1.0,2.0;" x1="648" x2="758.5" y1="395.7422" y2="395.7422"/><text fill="#000000" font-family="sans-serif" font-size="14" lengthAdjust="spacing" textLength="62" x="758.5" y="400.0889">Methods</text><line style="stroke:#181818;stroke-width:1.0;stroke-dasharray:1.0,2.0;" x1="820.5" x2="931" y1="395.7422" y2="395.7422"/></g><!--MD5=[51e58c62fbb0bc544e87504869f0a235]
reverse link Pokemon to ElectricPokemon--><g id="link_Pokemon_ElectricPokemon"><path codeLine="40" d="M352.773,219.186 C312.96,249.606 269.281,282.98 232.65,310.968 " fill="none" id="Pokemon-backto-ElectricPokemon" style="stroke:#181818;stroke-width:1.0;"/><polygon fill="none" points="348.547,213.606,368.689,207.026,357.047,224.731,348.547,213.606" style="stroke:#181818;stroke-width:1.0;"/></g><!--MD5=[af6a41c52c3ba866ee82424d3488b496]
reverse link Pokemon to FirePokemon--><g id="link_Pokemon_FirePokemon"><path codeLine="41" d="M469.5,271.437 C469.5,285.161 469.5,298.554 469.5,310.901 " fill="none" id="Pokemon-backto-FirePokemon" style="stroke:#181818;stroke-width:1.0;"/><polygon fill="none" points="462.5,271.176,469.5,251.176,476.5,271.176,462.5,271.176" style="stroke:#181818;stroke-width:1.0;"/></g><!--MD5=[879b44a4b343df591d9a96d363e28c3d]
reverse link Pokemon to WaterPokemon--><g id="link_Pokemon_WaterPokemon"><path codeLine="42" d="M586.227,219.186 C626.04,249.606 669.719,282.98 706.35,310.968 " fill="none" id="Pokemon-backto-WaterPokemon" style="stroke:#181818;stroke-width:1.0;"/><polygon fill="none" points="581.953,224.731,570.311,207.026,590.453,213.606,581.953,224.731" style="stroke:#181818;stroke-width:1.0;"/></g><!--MD5=[8de8d7256f8321f26ef0c3875f562ae5]
@startuml
class Pokemon {
  .. Attributes ..
- name: str { name }
- type: str { type }
- health: int { health }
- attack: int { attack }
- defense: int { defense }
- speed: int { speed }
  .. Methods ..
- speak(): Type {}
- attack(): Type {}
- dodge(): Type {}
- evolve(): Type {}
}

class ElectricPokemon {
.. Attributes ..
- special_attack: int {special_attack}
.. Methods ..
- speak(): Type {}
- electricAttack(): Type {}
}

class FirePokemon {
.. Attributes ..
- special_attack: int {special_attack}
.. Methods ..
- speak(): Type {}
- fireAttack(): Type {}
}

class WaterPokemon {
.. Attributes ..
- special_attack: int {special_attack}
.. Methods ..
- speak(): Type {}
- waterAttack(): Type {}
}

Pokemon <|- - ElectricPokemon
Pokemon <|- - FirePokemon
Pokemon <|- - WaterPokemon
@enduml

PlantUML version 1.2022.3beta2(Unknown compile time)
(GPL source distribution)
Java Runtime: Java(TM) SE Runtime Environment
JVM: Java HotSpot(TM) 64-Bit Server VM
Default Encoding: UTF-8
Language: en
Country: US
--></g></svg>