<?xml version="1.0" encoding="UTF-8" standalone="no"?><svg xmlns="http://www.w3.org/2000/svg" xmlns:xlink="http://www.w3.org/1999/xlink" contentStyleType="text/css" height="436px" preserveAspectRatio="none" style="width:782px;height:436px;background:#FFFFFF;" version="1.1" viewBox="0 0 782 436" width="782px" zoomAndPan="magnify"><defs/><g><!--MD5=[d430991a8f5b7f9cc22b2fb7eeb184ef]
class Scrambler--><g id="elem_Scrambler"><rect codeLine="1" fill="#F1F1F1" height="292.4531" id="Scrambler" rx="2.5" ry="2.5" style="stroke:#181818;stroke-width:0.5;" width="372" x="403.5" y="72.5"/><ellipse cx="548.25" cy="88.5" fill="#ADD1B2" rx="11" ry="11" style="stroke:#181818;stroke-width:1.0;"/><path d="M550.5938,84.1719 C549.6563,83.7344 549.0625,83.5938 548.1875,83.5938 C545.5625,83.5938 543.5625,85.6719 543.5625,88.3906 L543.5625,89.5156 C543.5625,92.0938 545.6719,93.9844 548.5625,93.9844 C549.7813,93.9844 550.9375,93.6875 551.6875,93.1406 C552.2656,92.7344 552.5938,92.2813 552.5938,91.8906 C552.5938,91.4375 552.2031,91.0469 551.7344,91.0469 C551.5156,91.0469 551.3125,91.125 551.125,91.3125 C550.6719,91.7969 550.6719,91.7969 550.4844,91.8906 C550.0625,92.1563 549.375,92.2813 548.6094,92.2813 C546.5625,92.2813 545.2656,91.1875 545.2656,89.4844 L545.2656,88.3906 C545.2656,86.6094 546.5156,85.2969 548.25,85.2969 C548.8281,85.2969 549.4375,85.4531 549.9063,85.7031 C550.3906,85.9844 550.5625,86.2031 550.6563,86.6094 C550.7188,87.0156 550.75,87.1406 550.8906,87.2656 C551.0313,87.4063 551.2656,87.5156 551.4844,87.5156 C551.75,87.5156 552.0156,87.375 552.1875,87.1563 C552.2969,87 552.3281,86.8125 552.3281,86.3906 L552.3281,84.9688 C552.3281,84.5313 552.3125,84.4063 552.2188,84.25 C552.0625,83.9844 551.7813,83.8438 551.4844,83.8438 C551.1875,83.8438 550.9844,83.9375 550.7656,84.25 L550.5938,84.1719 Z " fill="#000000"/><text fill="#000000" font-family="sans-serif" font-size="14" lengthAdjust="spacing" textLength="74" x="568.75" y="93.3467">Scrambler</text><line style="stroke:#181818;stroke-width:0.5;" x1="404.5" x2="774.5" y1="104.5" y2="104.5"/><rect fill="none" height="6" style="stroke:#C82930;stroke-width:1.0;" width="6" x="411.5" y="132.7969"/><text fill="#000000" font-family="sans-serif" font-size="14" lengthAdjust="spacing" textLength="96" x="423.5" y="141.792">alphabet: list</text><rect fill="none" height="6" style="stroke:#C82930;stroke-width:1.0;" width="6" x="411.5" y="149.0938"/><text fill="#000000" font-family="sans-serif" font-size="14" lengthAdjust="spacing" textLength="89" x="423.5" y="158.0889">configs: dict</text><rect fill="none" height="6" style="stroke:#C82930;stroke-width:1.0;" width="6" x="411.5" y="165.3906"/><text fill="#000000" font-family="sans-serif" font-size="14" lengthAdjust="spacing" textLength="96" x="423.5" y="174.3857">type_key: str</text><rect fill="none" height="6" style="stroke:#C82930;stroke-width:1.0;" width="6" x="411.5" y="181.6875"/><text fill="#000000" font-family="sans-serif" font-size="14" lengthAdjust="spacing" textLength="90" x="423.5" y="190.6826">startpos: int</text><rect fill="none" height="6" style="stroke:#C82930;stroke-width:1.0;" width="6" x="411.5" y="197.9844"/><text fill="#000000" font-family="sans-serif" font-size="14" lengthAdjust="spacing" textLength="140" x="423.5" y="206.9795">transformation: list</text><rect fill="none" height="6" style="stroke:#C82930;stroke-width:1.0;" width="6" x="411.5" y="214.2813"/><text fill="#000000" font-family="sans-serif" font-size="14" lengthAdjust="spacing" textLength="55" x="423.5" y="223.2764">key: str</text><line style="stroke:#181818;stroke-width:1.0;stroke-dasharray:1.0,2.0;" x1="404.5" x2="552" y1="120.6484" y2="120.6484"/><text fill="#000000" font-family="sans-serif" font-size="14" lengthAdjust="spacing" textLength="75" x="552" y="124.9951">Attributes</text><line style="stroke:#181818;stroke-width:1.0;stroke-dasharray:1.0,2.0;" x1="627" x2="774.5" y1="120.6484" y2="120.6484"/><rect fill="#F24D5C" height="6" style="stroke:#C82930;stroke-width:1.0;" width="6" x="411.5" y="250.875"/><text fill="#000000" font-family="sans-serif" font-size="14" lengthAdjust="spacing" textLength="92" x="423.5" y="259.8701">geyKey(): str</text><rect fill="#F24D5C" height="6" style="stroke:#C82930;stroke-width:1.0;" width="6" x="411.5" y="267.1719"/><text fill="#000000" font-family="sans-serif" font-size="14" lengthAdjust="spacing" textLength="197" x="423.5" y="276.167">rol(string: str, n: int): string</text><ellipse cx="414.5" cy="286.4688" fill="#84BE84" rx="3" ry="3" style="stroke:#038048;stroke-width:1.0;"/><text fill="#000000" font-family="sans-serif" font-size="14" lengthAdjust="spacing" textLength="346" x="423.5" y="292.4639">__init__(type_key: str, startpos: int, custom: str)</text><ellipse cx="414.5" cy="302.7656" fill="#84BE84" rx="3" ry="3" style="stroke:#038048;stroke-width:1.0;"/><text fill="#000000" font-family="sans-serif" font-size="14" lengthAdjust="spacing" textLength="149" x="423.5" y="308.7607">passthrough(idx: int)</text><ellipse cx="414.5" cy="319.0625" fill="#84BE84" rx="3" ry="3" style="stroke:#038048;stroke-width:1.0;"/><text fill="#000000" font-family="sans-serif" font-size="14" lengthAdjust="spacing" textLength="192" x="423.5" y="325.0576">passthroughRev(idx: elem)</text><ellipse cx="414.5" cy="335.3594" fill="#84BE84" rx="3" ry="3" style="stroke:#038048;stroke-width:1.0;"/><text fill="#000000" font-family="sans-serif" font-size="14" lengthAdjust="spacing" textLength="56" x="423.5" y="341.3545">rotate()</text><ellipse cx="414.5" cy="351.6563" fill="#84BE84" rx="3" ry="3" style="stroke:#038048;stroke-width:1.0;"/><text fill="#000000" font-family="sans-serif" font-size="14" lengthAdjust="spacing" textLength="284" x="423.5" y="357.6514">setTransformation(transformation: list)</text><line style="stroke:#181818;stroke-width:1.0;stroke-dasharray:1.0,2.0;" x1="404.5" x2="558.5" y1="238.7266" y2="238.7266"/><text fill="#000000" font-family="sans-serif" font-size="14" lengthAdjust="spacing" textLength="62" x="558.5" y="243.0732">Methods</text><line style="stroke:#181818;stroke-width:1.0;stroke-dasharray:1.0,2.0;" x1="620.5" x2="774.5" y1="238.7266" y2="238.7266"/></g><!--MD5=[b6873cc88691a0f308e7c87ba33da1c8]
class EnigmaMachine--><g id="elem_EnigmaMachine"><rect codeLine="19" fill="#F1F1F1" height="422.8281" id="EnigmaMachine" rx="2.5" ry="2.5" style="stroke:#181818;stroke-width:0.5;" width="361" x="7" y="7"/><ellipse cx="127.25" cy="23" fill="#ADD1B2" rx="11" ry="11" style="stroke:#181818;stroke-width:1.0;"/><path d="M129.5938,18.6719 C128.6563,18.2344 128.0625,18.0938 127.1875,18.0938 C124.5625,18.0938 122.5625,20.1719 122.5625,22.8906 L122.5625,24.0156 C122.5625,26.5938 124.6719,28.4844 127.5625,28.4844 C128.7813,28.4844 129.9375,28.1875 130.6875,27.6406 C131.2656,27.2344 131.5938,26.7813 131.5938,26.3906 C131.5938,25.9375 131.2031,25.5469 130.7344,25.5469 C130.5156,25.5469 130.3125,25.625 130.125,25.8125 C129.6719,26.2969 129.6719,26.2969 129.4844,26.3906 C129.0625,26.6563 128.375,26.7813 127.6094,26.7813 C125.5625,26.7813 124.2656,25.6875 124.2656,23.9844 L124.2656,22.8906 C124.2656,21.1094 125.5156,19.7969 127.25,19.7969 C127.8281,19.7969 128.4375,19.9531 128.9063,20.2031 C129.3906,20.4844 129.5625,20.7031 129.6563,21.1094 C129.7188,21.5156 129.75,21.6406 129.8906,21.7656 C130.0313,21.9063 130.2656,22.0156 130.4844,22.0156 C130.75,22.0156 131.0156,21.875 131.1875,21.6563 C131.2969,21.5 131.3281,21.3125 131.3281,20.8906 L131.3281,19.4688 C131.3281,19.0313 131.3125,18.9063 131.2188,18.75 C131.0625,18.4844 130.7813,18.3438 130.4844,18.3438 C130.1875,18.3438 129.9844,18.4375 129.7656,18.75 L129.5938,18.6719 Z " fill="#000000"/><text fill="#000000" font-family="sans-serif" font-size="14" lengthAdjust="spacing" textLength="112" x="147.75" y="27.8467">EnigmaMachine</text><line style="stroke:#181818;stroke-width:0.5;" x1="8" x2="367" y1="39" y2="39"/><rect fill="none" height="6" style="stroke:#C82930;stroke-width:1.0;" width="6" x="15" y="67.2969"/><text fill="#000000" font-family="sans-serif" font-size="14" lengthAdjust="spacing" textLength="99" x="27" y="76.292">nb_rotors: int</text><rect fill="none" height="6" style="stroke:#C82930;stroke-width:1.0;" width="6" x="15" y="83.5938"/><text fill="#000000" font-family="sans-serif" font-size="14" lengthAdjust="spacing" textLength="116" x="27" y="92.5889">rotor_types: list</text><rect fill="none" height="6" style="stroke:#C82930;stroke-width:1.0;" width="6" x="15" y="99.8906"/><text fill="#000000" font-family="sans-serif" font-size="14" lengthAdjust="spacing" textLength="136" x="27" y="108.8857">rotor_startpos: list</text><rect fill="none" height="6" style="stroke:#C82930;stroke-width:1.0;" width="6" x="15" y="116.1875"/><text fill="#000000" font-family="sans-serif" font-size="14" lengthAdjust="spacing" textLength="187" x="27" y="125.1826">rotor_custom_configs: list</text><rect fill="none" height="6" style="stroke:#C82930;stroke-width:1.0;" width="6" x="15" y="132.4844"/><text fill="#000000" font-family="sans-serif" font-size="14" lengthAdjust="spacing" textLength="134" x="27" y="141.4795">reflector_type: str</text><rect fill="none" height="6" style="stroke:#C82930;stroke-width:1.0;" width="6" x="15" y="148.7813"/><text fill="#000000" font-family="sans-serif" font-size="14" lengthAdjust="spacing" textLength="165" x="27" y="157.7764">printspecialchars: bool</text><rect fill="none" height="6" style="stroke:#C82930;stroke-width:1.0;" width="6" x="15" y="165.0781"/><text fill="#000000" font-family="sans-serif" font-size="14" lengthAdjust="spacing" textLength="156" x="27" y="174.0732">plugboard_config: list</text><rect fill="none" height="6" style="stroke:#C82930;stroke-width:1.0;" width="6" x="15" y="181.375"/><text fill="#000000" font-family="sans-serif" font-size="14" lengthAdjust="spacing" textLength="159" x="27" y="190.3701">rotors: list[Scrambler]</text><rect fill="none" height="6" style="stroke:#C82930;stroke-width:1.0;" width="6" x="15" y="197.6719"/><text fill="#000000" font-family="sans-serif" font-size="14" lengthAdjust="spacing" textLength="219" x="27" y="206.667">original_rotors: list[Scrambler]</text><rect fill="none" height="6" style="stroke:#C82930;stroke-width:1.0;" width="6" x="15" y="213.9688"/><text fill="#000000" font-family="sans-serif" font-size="14" lengthAdjust="spacing" textLength="147" x="27" y="222.9639">reflector: Scrambler</text><rect fill="none" height="6" style="stroke:#C82930;stroke-width:1.0;" width="6" x="15" y="230.2656"/><text fill="#000000" font-family="sans-serif" font-size="14" lengthAdjust="spacing" textLength="156" x="27" y="239.2607">plugboard: Scrambler</text><line style="stroke:#181818;stroke-width:1.0;stroke-dasharray:1.0,2.0;" x1="8" x2="150" y1="55.1484" y2="55.1484"/><text fill="#000000" font-family="sans-serif" font-size="14" lengthAdjust="spacing" textLength="75" x="150" y="59.4951">Attributes</text><line style="stroke:#181818;stroke-width:1.0;stroke-dasharray:1.0,2.0;" x1="225" x2="367" y1="55.1484" y2="55.1484"/><ellipse cx="18" cy="269.8594" fill="#84BE84" rx="3" ry="3" style="stroke:#038048;stroke-width:1.0;"/><text fill="#000000" font-family="sans-serif" font-size="14" lengthAdjust="spacing" textLength="284" x="27" y="275.8545">__init__(nb_rotors: int, rotor_types: list,</text><text fill="#000000" font-family="sans-serif" font-size="14" lengthAdjust="spacing" textLength="335" x="27" y="292.1514">rotor_startpos: list, rotor_custom_configs: list,</text><text fill="#000000" font-family="sans-serif" font-size="14" lengthAdjust="spacing" textLength="302" x="27" y="308.4482">reflector_type: str, plugboard_config: list,</text><text fill="#000000" font-family="sans-serif" font-size="14" lengthAdjust="spacing" textLength="182" x="27" y="324.7451">print_specialchars: bool):</text><ellipse cx="18" cy="335.0469" fill="#84BE84" rx="3" ry="3" style="stroke:#038048;stroke-width:1.0;"/><text fill="#000000" font-family="sans-serif" font-size="14" lengthAdjust="spacing" textLength="99" x="27" y="341.042">setupRotors()</text><ellipse cx="18" cy="351.3438" fill="#84BE84" rx="3" ry="3" style="stroke:#038048;stroke-width:1.0;"/><text fill="#000000" font-family="sans-serif" font-size="14" lengthAdjust="spacing" textLength="120" x="27" y="357.3389">sezupReflector()</text><ellipse cx="18" cy="367.6406" fill="#84BE84" rx="3" ry="3" style="stroke:#038048;stroke-width:1.0;"/><text fill="#000000" font-family="sans-serif" font-size="14" lengthAdjust="spacing" textLength="123" x="27" y="373.6357">setupPlugboard()</text><ellipse cx="18" cy="383.9375" fill="#84BE84" rx="3" ry="3" style="stroke:#038048;stroke-width:1.0;"/><text fill="#000000" font-family="sans-serif" font-size="14" lengthAdjust="spacing" textLength="142" x="27" y="389.9326">printEnigmaSetup()</text><ellipse cx="18" cy="400.2344" fill="#84BE84" rx="3" ry="3" style="stroke:#038048;stroke-width:1.0;"/><text fill="#000000" font-family="sans-serif" font-size="14" lengthAdjust="spacing" textLength="48" x="27" y="406.2295">reset()</text><ellipse cx="18" cy="416.5313" fill="#84BE84" rx="3" ry="3" style="stroke:#038048;stroke-width:1.0;"/><text fill="#000000" font-family="sans-serif" font-size="14" lengthAdjust="spacing" textLength="152" x="27" y="422.5264">encode(text: str): str</text><line style="stroke:#181818;stroke-width:1.0;stroke-dasharray:1.0,2.0;" x1="8" x2="156.5" y1="254.7109" y2="254.7109"/><text fill="#000000" font-family="sans-serif" font-size="14" lengthAdjust="spacing" textLength="62" x="156.5" y="259.0576">Methods</text><line style="stroke:#181818;stroke-width:1.0;stroke-dasharray:1.0,2.0;" x1="218.5" x2="367" y1="254.7109" y2="254.7109"/></g><!--MD5=[481814591bb59da9079dbcd1f175d723]
link EnigmaMachine to Scrambler--><g id="link_EnigmaMachine_Scrambler"><path codeLine="45" d="M368.086,218.5 C378.029,218.5 387.972,218.5 397.915,218.5 " fill="none" id="EnigmaMachine-to-Scrambler" style="stroke:#181818;stroke-width:1.0;"/><polygon fill="#181818" points="403.114,218.5,394.114,214.5,398.114,218.5,394.114,222.5,403.114,218.5" style="stroke:#181818;stroke-width:1.0;"/></g><!--MD5=[3b208adfafa962e407c90bac604cb611]
@startuml
class Scrambler {
  .. Attributes ..
- alphabet: list
- configs: dict
- type_key: str
- startpos: int
- transformation: list
- key: str
  .. Methods ..
- geyKey(): str
- rol(string: str, n: int): string
+ __init__(type_key: str, startpos: int, custom: str)
+ passthrough(idx: int)
+ passthroughRev(idx: elem)
+ rotate()
+ setTransformation(transformation: list)
}

class EnigmaMachine {
  .. Attributes ..
- nb_rotors: int
- rotor_types: list
- rotor_startpos: list
- rotor_custom_configs: list
- reflector_type: str
- printspecialchars: bool
- plugboard_config: list
- rotors: list[Scrambler]
- original_rotors: list[Scrambler]
- reflector: Scrambler
- plugboard: Scrambler
  .. Methods ..
+ __init__(nb_rotors: int, rotor_types: list,
           rotor_startpos: list, rotor_custom_configs: list,
           reflector_type: str, plugboard_config: list,
           print_specialchars: bool):
+ setupRotors()
+ sezupReflector()
+ setupPlugboard()
+ printEnigmaSetup()
+ reset()
+ encode(text: str): str
}

EnigmaMachine -> Scrambler
@enduml

PlantUML version 1.2022.3beta2(Unknown compile time)
(GPL source distribution)
Java Runtime: Java(TM) SE Runtime Environment
JVM: Java HotSpot(TM) 64-Bit Server VM
Default Encoding: UTF-8
Language: en
Country: US
--></g></svg>