<?xml version="1.0" encoding="UTF-8" standalone="no"?><svg xmlns="http://www.w3.org/2000/svg" xmlns:xlink="http://www.w3.org/1999/xlink" contentStyleType="text/css" height="241px" preserveAspectRatio="none" style="width:513px;height:241px;background:#FFFFFF;" version="1.1" viewBox="0 0 513 241" width="513px" zoomAndPan="magnify"><defs/><g><!--MD5=[0d1accb7dcd9afab6ff9b254608c161c]
class MazeContainer--><g id="elem_MazeContainer"><rect codeLine="1" fill="#F1F1F1" height="162.0781" id="MazeContainer" rx="2.5" ry="2.5" style="stroke:#181818;stroke-width:0.5;" width="286" x="7" y="39.5"/><ellipse cx="91.75" cy="55.5" fill="#ADD1B2" rx="11" ry="11" style="stroke:#181818;stroke-width:1.0;"/><path d="M94.0938,51.1719 C93.1563,50.7344 92.5625,50.5938 91.6875,50.5938 C89.0625,50.5938 87.0625,52.6719 87.0625,55.3906 L87.0625,56.5156 C87.0625,59.0938 89.1719,60.9844 92.0625,60.9844 C93.2813,60.9844 94.4375,60.6875 95.1875,60.1406 C95.7656,59.7344 96.0938,59.2813 96.0938,58.8906 C96.0938,58.4375 95.7031,58.0469 95.2344,58.0469 C95.0156,58.0469 94.8125,58.125 94.625,58.3125 C94.1719,58.7969 94.1719,58.7969 93.9844,58.8906 C93.5625,59.1563 92.875,59.2813 92.1094,59.2813 C90.0625,59.2813 88.7656,58.1875 88.7656,56.4844 L88.7656,55.3906 C88.7656,53.6094 90.0156,52.2969 91.75,52.2969 C92.3281,52.2969 92.9375,52.4531 93.4063,52.7031 C93.8906,52.9844 94.0625,53.2031 94.1563,53.6094 C94.2188,54.0156 94.25,54.1406 94.3906,54.2656 C94.5313,54.4063 94.7656,54.5156 94.9844,54.5156 C95.25,54.5156 95.5156,54.375 95.6875,54.1563 C95.7969,54 95.8281,53.8125 95.8281,53.3906 L95.8281,51.9688 C95.8281,51.5313 95.8125,51.4063 95.7188,51.25 C95.5625,50.9844 95.2813,50.8438 94.9844,50.8438 C94.6875,50.8438 94.4844,50.9375 94.2656,51.25 L94.0938,51.1719 Z " fill="#000000"/><text fill="#000000" font-family="sans-serif" font-size="14" lengthAdjust="spacing" textLength="108" x="112.25" y="60.3467">MazeContainer</text><line style="stroke:#181818;stroke-width:0.5;" x1="8" x2="292" y1="71.5" y2="71.5"/><ellipse cx="18" cy="102.7969" fill="none" rx="3" ry="3" style="stroke:#038048;stroke-width:1.0;"/><text fill="#000000" font-family="sans-serif" font-size="14" lengthAdjust="spacing" textLength="82" x="27" y="108.792">nCellsX: int</text><ellipse cx="18" cy="119.0938" fill="none" rx="3" ry="3" style="stroke:#038048;stroke-width:1.0;"/><text fill="#000000" font-family="sans-serif" font-size="14" lengthAdjust="spacing" textLength="81" x="27" y="125.0889">nCellsY: int</text><ellipse cx="18" cy="135.3906" fill="none" rx="3" ry="3" style="stroke:#038048;stroke-width:1.0;"/><text fill="#000000" font-family="sans-serif" font-size="14" lengthAdjust="spacing" textLength="141" x="27" y="141.3857">maze: MazeElem[][]</text><line style="stroke:#181818;stroke-width:1.0;stroke-dasharray:1.0,2.0;" x1="8" x2="112.5" y1="87.6484" y2="87.6484"/><text fill="#000000" font-family="sans-serif" font-size="14" lengthAdjust="spacing" textLength="75" x="112.5" y="91.9951">Attributes</text><line style="stroke:#181818;stroke-width:1.0;stroke-dasharray:1.0,2.0;" x1="187.5" x2="292" y1="87.6484" y2="87.6484"/><ellipse cx="18" cy="171.9844" fill="#84BE84" rx="3" ry="3" style="stroke:#038048;stroke-width:1.0;"/><text fill="#000000" font-family="sans-serif" font-size="14" lengthAdjust="spacing" textLength="196" x="27" y="177.9795">MazeContainer(w:int, h:int)</text><ellipse cx="18" cy="188.2813" fill="#84BE84" rx="3" ry="3" style="stroke:#038048;stroke-width:1.0;"/><text fill="#000000" font-family="sans-serif" font-size="14" lengthAdjust="spacing" textLength="260" x="27" y="194.2764">setInitialPositions(random: boolean)</text><line style="stroke:#181818;stroke-width:1.0;stroke-dasharray:1.0,2.0;" x1="8" x2="119" y1="156.8359" y2="156.8359"/><text fill="#000000" font-family="sans-serif" font-size="14" lengthAdjust="spacing" textLength="62" x="119" y="161.1826">Methods</text><line style="stroke:#181818;stroke-width:1.0;stroke-dasharray:1.0,2.0;" x1="181" x2="292" y1="156.8359" y2="156.8359"/></g><!--MD5=[53fef38ac5b1c279fe5bdbda2502f2d6]
class MazeElem--><g id="elem_MazeElem"><rect codeLine="11" fill="#F1F1F1" height="227.2656" id="MazeElem" rx="2.5" ry="2.5" style="stroke:#181818;stroke-width:0.5;" width="178" x="328" y="7"/><ellipse cx="376.25" cy="23" fill="#ADD1B2" rx="11" ry="11" style="stroke:#181818;stroke-width:1.0;"/><path d="M378.5938,18.6719 C377.6563,18.2344 377.0625,18.0938 376.1875,18.0938 C373.5625,18.0938 371.5625,20.1719 371.5625,22.8906 L371.5625,24.0156 C371.5625,26.5938 373.6719,28.4844 376.5625,28.4844 C377.7813,28.4844 378.9375,28.1875 379.6875,27.6406 C380.2656,27.2344 380.5938,26.7813 380.5938,26.3906 C380.5938,25.9375 380.2031,25.5469 379.7344,25.5469 C379.5156,25.5469 379.3125,25.625 379.125,25.8125 C378.6719,26.2969 378.6719,26.2969 378.4844,26.3906 C378.0625,26.6563 377.375,26.7813 376.6094,26.7813 C374.5625,26.7813 373.2656,25.6875 373.2656,23.9844 L373.2656,22.8906 C373.2656,21.1094 374.5156,19.7969 376.25,19.7969 C376.8281,19.7969 377.4375,19.9531 377.9063,20.2031 C378.3906,20.4844 378.5625,20.7031 378.6563,21.1094 C378.7188,21.5156 378.75,21.6406 378.8906,21.7656 C379.0313,21.9063 379.2656,22.0156 379.4844,22.0156 C379.75,22.0156 380.0156,21.875 380.1875,21.6563 C380.2969,21.5 380.3281,21.3125 380.3281,20.8906 L380.3281,19.4688 C380.3281,19.0313 380.3125,18.9063 380.2188,18.75 C380.0625,18.4844 379.7813,18.3438 379.4844,18.3438 C379.1875,18.3438 378.9844,18.4375 378.7656,18.75 L378.5938,18.6719 Z " fill="#000000"/><text fill="#000000" font-family="sans-serif" font-size="14" lengthAdjust="spacing" textLength="73" x="396.75" y="27.8467">MazeElem</text><line style="stroke:#181818;stroke-width:0.5;" x1="329" x2="505" y1="39" y2="39"/><ellipse cx="339" cy="70.2969" fill="none" rx="3" ry="3" style="stroke:#038048;stroke-width:1.0;"/><text fill="#000000" font-family="sans-serif" font-size="14" lengthAdjust="spacing" textLength="131" x="348" y="76.292">wallWest: boolean</text><ellipse cx="339" cy="86.5938" fill="none" rx="3" ry="3" style="stroke:#038048;stroke-width:1.0;"/><text fill="#000000" font-family="sans-serif" font-size="14" lengthAdjust="spacing" textLength="135" x="348" y="92.5889">wallNorth: boolean</text><ellipse cx="339" cy="102.8906" fill="none" rx="3" ry="3" style="stroke:#038048;stroke-width:1.0;"/><text fill="#000000" font-family="sans-serif" font-size="14" lengthAdjust="spacing" textLength="125" x="348" y="108.8857">wallEast: boolean</text><ellipse cx="339" cy="119.1875" fill="none" rx="3" ry="3" style="stroke:#038048;stroke-width:1.0;"/><text fill="#000000" font-family="sans-serif" font-size="14" lengthAdjust="spacing" textLength="136" x="348" y="125.1826">wallSouth: boolean</text><text fill="#000000" font-family="sans-serif" font-size="14" lengthAdjust="spacing" textLength="4" x="348" y="141.4795"> </text><ellipse cx="339" cy="151.7813" fill="#84BE84" rx="3" ry="3" style="stroke:#038048;stroke-width:1.0;"/><text fill="#000000" font-family="sans-serif" font-size="14" lengthAdjust="spacing" textLength="116" x="348" y="157.7764">isExit(): boolean</text><ellipse cx="339" cy="168.0781" fill="#84BE84" rx="3" ry="3" style="stroke:#038048;stroke-width:1.0;"/><text fill="#000000" font-family="sans-serif" font-size="14" lengthAdjust="spacing" textLength="152" x="348" y="174.0732">p1Present(): boolean</text><ellipse cx="339" cy="184.375" fill="#84BE84" rx="3" ry="3" style="stroke:#038048;stroke-width:1.0;"/><text fill="#000000" font-family="sans-serif" font-size="14" lengthAdjust="spacing" textLength="151" x="348" y="190.3701">p2Present(): boolean</text><line style="stroke:#181818;stroke-width:1.0;stroke-dasharray:1.0,2.0;" x1="329" x2="379.5" y1="55.1484" y2="55.1484"/><text fill="#000000" font-family="sans-serif" font-size="14" lengthAdjust="spacing" textLength="75" x="379.5" y="59.4951">Attributes</text><line style="stroke:#181818;stroke-width:1.0;stroke-dasharray:1.0,2.0;" x1="454.5" x2="505" y1="55.1484" y2="55.1484"/><text fill="#000000" font-family="sans-serif" font-size="14" lengthAdjust="spacing" textLength="4" x="334" y="226.9639"> </text><line style="stroke:#181818;stroke-width:1.0;stroke-dasharray:1.0,2.0;" x1="329" x2="386" y1="205.8203" y2="205.8203"/><text fill="#000000" font-family="sans-serif" font-size="14" lengthAdjust="spacing" textLength="62" x="386" y="210.167">Methods</text><line style="stroke:#181818;stroke-width:1.0;stroke-dasharray:1.0,2.0;" x1="448" x2="505" y1="205.8203" y2="205.8203"/></g><!--MD5=[3eb53bff7ea4c166e78344e30b7d27dd]
link MazeContainer to MazeElem--><g id="link_MazeContainer_MazeElem"><path codeLine="25" d="M305.147,120.5 C305.147,120.5 311.88,120.5 314.714,120.5 " fill="none" id="MazeContainer-MazeElem" style="stroke:#181818;stroke-width:1.0;"/><polygon fill="#181818" points="327.981,120.5,318.981,116.5,322.981,120.5,318.981,124.5,327.981,120.5" style="stroke:#181818;stroke-width:1.0;"/><line style="stroke:#181818;stroke-width:1.0;" x1="322.981" x2="314.981" y1="120.5" y2="120.5"/><polygon fill="none" points="293.147,120.5,299.147,124.5,305.147,120.5,299.147,116.5,293.147,120.5" style="stroke:#181818;stroke-width:1.0;"/></g><!--MD5=[4e5f9f7e23a78e118a74ef610862749b]
@startuml
class MazeContainer {
  .. Attributes ..
+ nCellsX: int
+ nCellsY: int
+ maze: MazeElem[][]
  .. Methods ..
+ MazeContainer(w:int, h:int)
+ setInitialPositions(random: boolean)
}

class MazeElem {
.. Attributes ..
+ wallWest: boolean
+ wallNorth: boolean
+ wallEast: boolean
+ wallSouth: boolean

+ isExit(): boolean
+ p1Present(): boolean
+ p2Present(): boolean
.. Methods ..

}

MazeContainer o-> MazeElem
@enduml

PlantUML version 1.2022.3beta2(Unknown compile time)
(GPL source distribution)
Java Runtime: Java(TM) SE Runtime Environment
JVM: Java HotSpot(TM) 64-Bit Server VM
Default Encoding: UTF-8
Language: en
Country: US
--></g></svg>