<?xml version="1.0" encoding="UTF-8" standalone="no"?><svg xmlns="http://www.w3.org/2000/svg" xmlns:xlink="http://www.w3.org/1999/xlink" contentStyleType="text/css" height="806px" preserveAspectRatio="none" style="width:786px;height:806px;background:#FFFFFF;" version="1.1" viewBox="0 0 786 806" width="786px" zoomAndPan="magnify"><defs/><g><!--MD5=[364cecc7c8851a55696f884d6de32633]
cluster ::maze--><g id="cluster_::maze"><path d="M8.5,6 L64.5,6 A3.75,3.75 0 0 1 67,8.5 L74,28.2969 L576.5,28.2969 A2.5,2.5 0 0 1 579,30.7969 L579,796.5 A2.5,2.5 0 0 1 576.5,799 L8.5,799 A2.5,2.5 0 0 1 6,796.5 L6,8.5 A2.5,2.5 0 0 1 8.5,6 " style="stroke:#000000;stroke-width:1.5;fill:none;"/><line style="stroke:#000000;stroke-width:1.5;fill:none;" x1="6" x2="74" y1="28.2969" y2="28.2969"/><text fill="#000000" font-family="sans-serif" font-size="14" font-weight="bold" lengthAdjust="spacing" textLength="55" x="10" y="20.9951">::maze</text></g><!--MD5=[ead3aec39fff3df6d87e92814878f1c1]
class ::maze.data::MazeContainer--><g id="elem_::maze.data::MazeContainer"><rect codeLine="1" fill="#F1F1F1" height="178.375" id="::maze.data::MazeContainer" rx="2.5" ry="2.5" style="stroke:#181818;stroke-width:0.5;" width="286" x="22" y="65.5"/><ellipse cx="85.75" cy="81.5" fill="#ADD1B2" rx="11" ry="11" style="stroke:#181818;stroke-width:1.0;"/><path d="M88.0938,77.1719 C87.1563,76.7344 86.5625,76.5938 85.6875,76.5938 C83.0625,76.5938 81.0625,78.6719 81.0625,81.3906 L81.0625,82.5156 C81.0625,85.0938 83.1719,86.9844 86.0625,86.9844 C87.2813,86.9844 88.4375,86.6875 89.1875,86.1406 C89.7656,85.7344 90.0938,85.2813 90.0938,84.8906 C90.0938,84.4375 89.7031,84.0469 89.2344,84.0469 C89.0156,84.0469 88.8125,84.125 88.625,84.3125 C88.1719,84.7969 88.1719,84.7969 87.9844,84.8906 C87.5625,85.1563 86.875,85.2813 86.1094,85.2813 C84.0625,85.2813 82.7656,84.1875 82.7656,82.4844 L82.7656,81.3906 C82.7656,79.6094 84.0156,78.2969 85.75,78.2969 C86.3281,78.2969 86.9375,78.4531 87.4063,78.7031 C87.8906,78.9844 88.0625,79.2031 88.1563,79.6094 C88.2188,80.0156 88.25,80.1406 88.3906,80.2656 C88.5313,80.4063 88.7656,80.5156 88.9844,80.5156 C89.25,80.5156 89.5156,80.375 89.6875,80.1563 C89.7969,80 89.8281,79.8125 89.8281,79.3906 L89.8281,77.9688 C89.8281,77.5313 89.8125,77.4063 89.7188,77.25 C89.5625,76.9844 89.2813,76.8438 88.9844,76.8438 C88.6875,76.8438 88.4844,76.9375 88.2656,77.25 L88.0938,77.1719 Z " fill="#000000"/><text fill="#000000" font-family="sans-serif" font-size="14" lengthAdjust="spacing" textLength="150" x="106.25" y="86.3467">data::MazeContainer</text><line style="stroke:#181818;stroke-width:0.5;" x1="23" x2="307" y1="97.5" y2="97.5"/><ellipse cx="33" cy="128.7969" fill="none" rx="3" ry="3" style="stroke:#038048;stroke-width:1.0;"/><text fill="#000000" font-family="sans-serif" font-size="14" lengthAdjust="spacing" textLength="82" x="42" y="134.792">nCellsX: int</text><ellipse cx="33" cy="145.0938" fill="none" rx="3" ry="3" style="stroke:#038048;stroke-width:1.0;"/><text fill="#000000" font-family="sans-serif" font-size="14" lengthAdjust="spacing" textLength="81" x="42" y="151.0889">nCellsY: int</text><ellipse cx="33" cy="161.3906" fill="none" rx="3" ry="3" style="stroke:#038048;stroke-width:1.0;"/><text fill="#000000" font-family="sans-serif" font-size="14" lengthAdjust="spacing" textLength="141" x="42" y="167.3857">maze: MazeElem[][]</text><line style="stroke:#181818;stroke-width:1.0;stroke-dasharray:1.0,2.0;" x1="23" x2="127.5" y1="113.6484" y2="113.6484"/><text fill="#000000" font-family="sans-serif" font-size="14" lengthAdjust="spacing" textLength="75" x="127.5" y="117.9951">Attributes</text><line style="stroke:#181818;stroke-width:1.0;stroke-dasharray:1.0,2.0;" x1="202.5" x2="307" y1="113.6484" y2="113.6484"/><polygon fill="#FFFF44" points="33,192.9844,37,196.9844,33,200.9844,29,196.9844" style="stroke:#B38D22;stroke-width:1.0;"/><text fill="#000000" font-family="sans-serif" font-size="14" lengthAdjust="spacing" textLength="260" x="42" y="203.9795">setInitialPositions(random: boolean)</text><ellipse cx="33" cy="214.2813" fill="#84BE84" rx="3" ry="3" style="stroke:#038048;stroke-width:1.0;"/><text fill="#000000" font-family="sans-serif" font-size="14" lengthAdjust="spacing" textLength="133" x="42" y="220.2764">MazeContainer(...)</text><ellipse cx="33" cy="230.5781" fill="#84BE84" rx="3" ry="3" style="stroke:#038048;stroke-width:1.0;"/><text fill="#000000" font-family="sans-serif" font-size="14" lengthAdjust="spacing" textLength="133" x="42" y="236.5732">MazeContainer(...)</text><line style="stroke:#181818;stroke-width:1.0;stroke-dasharray:1.0,2.0;" x1="23" x2="134" y1="182.8359" y2="182.8359"/><text fill="#000000" font-family="sans-serif" font-size="14" lengthAdjust="spacing" textLength="62" x="134" y="187.1826">Methods</text><line style="stroke:#181818;stroke-width:1.0;stroke-dasharray:1.0,2.0;" x1="196" x2="307" y1="182.8359" y2="182.8359"/></g><!--MD5=[0df8a931a23b84703ce174514e573b46]
class ::maze.display::KeyboardListener--><g id="elem_::maze.display::KeyboardListener"><rect codeLine="13" fill="#F1F1F1" height="227.2656" id="::maze.display::KeyboardListener" rx="2.5" ry="2.5" style="stroke:#181818;stroke-width:0.5;" width="220" x="343" y="41"/><ellipse cx="358" cy="57" fill="#ADD1B2" rx="11" ry="11" style="stroke:#181818;stroke-width:1.0;"/><path d="M360.3438,52.6719 C359.4063,52.2344 358.8125,52.0938 357.9375,52.0938 C355.3125,52.0938 353.3125,54.1719 353.3125,56.8906 L353.3125,58.0156 C353.3125,60.5938 355.4219,62.4844 358.3125,62.4844 C359.5313,62.4844 360.6875,62.1875 361.4375,61.6406 C362.0156,61.2344 362.3438,60.7813 362.3438,60.3906 C362.3438,59.9375 361.9531,59.5469 361.4844,59.5469 C361.2656,59.5469 361.0625,59.625 360.875,59.8125 C360.4219,60.2969 360.4219,60.2969 360.2344,60.3906 C359.8125,60.6563 359.125,60.7813 358.3594,60.7813 C356.3125,60.7813 355.0156,59.6875 355.0156,57.9844 L355.0156,56.8906 C355.0156,55.1094 356.2656,53.7969 358,53.7969 C358.5781,53.7969 359.1875,53.9531 359.6563,54.2031 C360.1406,54.4844 360.3125,54.7031 360.4063,55.1094 C360.4688,55.5156 360.5,55.6406 360.6406,55.7656 C360.7813,55.9063 361.0156,56.0156 361.2344,56.0156 C361.5,56.0156 361.7656,55.875 361.9375,55.6563 C362.0469,55.5 362.0781,55.3125 362.0781,54.8906 L362.0781,53.4688 C362.0781,53.0313 362.0625,52.9063 361.9688,52.75 C361.8125,52.4844 361.5313,52.3438 361.2344,52.3438 C360.9375,52.3438 360.7344,52.4375 360.5156,52.75 L360.3438,52.6719 Z " fill="#000000"/><text fill="#000000" font-family="sans-serif" font-size="14" lengthAdjust="spacing" textLength="188" x="372" y="61.8467">display::KeyboardListener</text><line style="stroke:#181818;stroke-width:0.5;" x1="344" x2="562" y1="73" y2="73"/><ellipse cx="354" cy="104.2969" fill="none" rx="3" ry="3" style="stroke:#038048;stroke-width:1.0;"/><text fill="#000000" font-family="sans-serif" font-size="14" lengthAdjust="spacing" textLength="139" x="363" y="110.292">mc: MazeContainer</text><ellipse cx="354" cy="120.5938" fill="none" rx="3" ry="3" style="stroke:#038048;stroke-width:1.0;"/><text fill="#000000" font-family="sans-serif" font-size="14" lengthAdjust="spacing" textLength="111" x="363" y="126.5889">mg: MazeGame</text><ellipse cx="354" cy="136.8906" fill="none" rx="3" ry="3" style="stroke:#038048;stroke-width:1.0;"/><text fill="#000000" font-family="sans-serif" font-size="14" lengthAdjust="spacing" textLength="129" x="363" y="142.8857">public: @Override</text><ellipse cx="354" cy="153.1875" fill="none" rx="3" ry="3" style="stroke:#038048;stroke-width:1.0;"/><text fill="#000000" font-family="sans-serif" font-size="14" lengthAdjust="spacing" textLength="129" x="363" y="159.1826">public: @Override</text><ellipse cx="354" cy="169.4844" fill="none" rx="3" ry="3" style="stroke:#038048;stroke-width:1.0;"/><text fill="#000000" font-family="sans-serif" font-size="14" lengthAdjust="spacing" textLength="129" x="363" y="175.4795">public: @Override</text><line style="stroke:#181818;stroke-width:1.0;stroke-dasharray:1.0,2.0;" x1="344" x2="415.5" y1="89.1484" y2="89.1484"/><text fill="#000000" font-family="sans-serif" font-size="14" lengthAdjust="spacing" textLength="75" x="415.5" y="93.4951">Attributes</text><line style="stroke:#181818;stroke-width:1.0;stroke-dasharray:1.0,2.0;" x1="490.5" x2="562" y1="89.1484" y2="89.1484"/><ellipse cx="354" cy="206.0781" fill="#84BE84" rx="3" ry="3" style="stroke:#038048;stroke-width:1.0;"/><text fill="#000000" font-family="sans-serif" font-size="14" lengthAdjust="spacing" textLength="153" x="363" y="212.0732">KeyboardListener(...)</text><ellipse cx="354" cy="222.375" fill="#84BE84" rx="3" ry="3" style="stroke:#038048;stroke-width:1.0;"/><text fill="#000000" font-family="sans-serif" font-size="14" lengthAdjust="spacing" textLength="107" x="363" y="228.3701">keyPressed(...)</text><ellipse cx="354" cy="238.6719" fill="#84BE84" rx="3" ry="3" style="stroke:#038048;stroke-width:1.0;"/><text fill="#000000" font-family="sans-serif" font-size="14" lengthAdjust="spacing" textLength="116" x="363" y="244.667">keyReleased(...)</text><ellipse cx="354" cy="254.9688" fill="#84BE84" rx="3" ry="3" style="stroke:#038048;stroke-width:1.0;"/><text fill="#000000" font-family="sans-serif" font-size="14" lengthAdjust="spacing" textLength="96" x="363" y="260.9639">keyTyped(...)</text><line style="stroke:#181818;stroke-width:1.0;stroke-dasharray:1.0,2.0;" x1="344" x2="422" y1="190.9297" y2="190.9297"/><text fill="#000000" font-family="sans-serif" font-size="14" lengthAdjust="spacing" textLength="62" x="422" y="195.2764">Methods</text><line style="stroke:#181818;stroke-width:1.0;stroke-dasharray:1.0,2.0;" x1="484" x2="562" y1="190.9297" y2="190.9297"/></g><!--MD5=[4d04e44de6f83f71c73ed422bfeebddb]
class ::maze.display::GraphicDisplay--><g id="elem_::maze.display::GraphicDisplay"><rect codeLine="27" fill="#F1F1F1" height="455.4219" id="::maze.display::GraphicDisplay" rx="2.5" ry="2.5" style="stroke:#181818;stroke-width:0.5;" width="253" x="172.5" y="328"/><ellipse cx="211.35" cy="344" fill="#ADD1B2" rx="11" ry="11" style="stroke:#181818;stroke-width:1.0;"/><path d="M213.6938,339.6719 C212.7563,339.2344 212.1625,339.0938 211.2875,339.0938 C208.6625,339.0938 206.6625,341.1719 206.6625,343.8906 L206.6625,345.0156 C206.6625,347.5938 208.7719,349.4844 211.6625,349.4844 C212.8813,349.4844 214.0375,349.1875 214.7875,348.6406 C215.3656,348.2344 215.6938,347.7813 215.6938,347.3906 C215.6938,346.9375 215.3031,346.5469 214.8344,346.5469 C214.6156,346.5469 214.4125,346.625 214.225,346.8125 C213.7719,347.2969 213.7719,347.2969 213.5844,347.3906 C213.1625,347.6563 212.475,347.7813 211.7094,347.7813 C209.6625,347.7813 208.3656,346.6875 208.3656,344.9844 L208.3656,343.8906 C208.3656,342.1094 209.6156,340.7969 211.35,340.7969 C211.9281,340.7969 212.5375,340.9531 213.0063,341.2031 C213.4906,341.4844 213.6625,341.7031 213.7563,342.1094 C213.8188,342.5156 213.85,342.6406 213.9906,342.7656 C214.1313,342.9063 214.3656,343.0156 214.5844,343.0156 C214.85,343.0156 215.1156,342.875 215.2875,342.6563 C215.3969,342.5 215.4281,342.3125 215.4281,341.8906 L215.4281,340.4688 C215.4281,340.0313 215.4125,339.9063 215.3188,339.75 C215.1625,339.4844 214.8813,339.3438 214.5844,339.3438 C214.2875,339.3438 214.0844,339.4375 213.8656,339.75 L213.6938,339.6719 Z " fill="#000000"/><text fill="#000000" font-family="sans-serif" font-size="14" lengthAdjust="spacing" textLength="168" x="230.65" y="348.8467">display::GraphicDisplay</text><line style="stroke:#181818;stroke-width:0.5;" x1="173.5" x2="424.5" y1="360" y2="360"/><rect fill="none" height="6" style="stroke:#C82930;stroke-width:1.0;" width="6" x="180.5" y="388.2969"/><text fill="#000000" font-family="sans-serif" font-size="14" lengthAdjust="spacing" textLength="227" x="192.5" y="397.292">mazeContainer: MazeContainer</text><rect fill="none" height="6" style="stroke:#C82930;stroke-width:1.0;" width="6" x="180.5" y="404.5938"/><text fill="#000000" font-family="sans-serif" font-size="14" lengthAdjust="spacing" textLength="183" x="192.5" y="413.5889">mBitmap: BufferedImage</text><rect fill="none" height="6" style="stroke:#C82930;stroke-width:1.0;" width="6" x="180.5" y="420.8906"/><text fill="#000000" font-family="sans-serif" font-size="14" lengthAdjust="spacing" textLength="83" x="192.5" y="429.8857">msg: String</text><rect fill="none" height="6" style="stroke:#C82930;stroke-width:1.0;" width="6" x="180.5" y="437.1875"/><text fill="#000000" font-family="sans-serif" font-size="14" lengthAdjust="spacing" textLength="106" x="192.5" y="446.1826">strokeSize: int</text><ellipse cx="183.5" cy="456.4844" fill="none" rx="3" ry="3" style="stroke:#038048;stroke-width:1.0;"/><text fill="#000000" font-family="sans-serif" font-size="14" lengthAdjust="spacing" textLength="91" x="192.5" y="462.4795">disp: Display</text><ellipse cx="183.5" cy="472.7813" fill="none" rx="3" ry="3" style="stroke:#038048;stroke-width:1.0;"/><text fill="#000000" font-family="sans-serif" font-size="14" lengthAdjust="spacing" textLength="131" x="192.5" y="478.7764">drawGrid: boolean</text><ellipse cx="183.5" cy="489.0781" fill="none" rx="3" ry="3" style="stroke:#038048;stroke-width:1.0;"/><text fill="#000000" font-family="sans-serif" font-size="14" lengthAdjust="spacing" textLength="120" x="192.5" y="495.0732">frameHeight: int</text><ellipse cx="183.5" cy="505.375" fill="none" rx="3" ry="3" style="stroke:#038048;stroke-width:1.0;"/><text fill="#000000" font-family="sans-serif" font-size="14" lengthAdjust="spacing" textLength="115" x="192.5" y="511.3701">frameWidth: int</text><ellipse cx="183.5" cy="521.6719" fill="none" rx="3" ry="3" style="stroke:#038048;stroke-width:1.0;"/><text fill="#000000" font-family="sans-serif" font-size="14" lengthAdjust="spacing" textLength="65" x="192.5" y="527.667">hCell: int</text><ellipse cx="183.5" cy="537.9688" fill="none" rx="3" ry="3" style="stroke:#038048;stroke-width:1.0;"/><text fill="#000000" font-family="sans-serif" font-size="14" lengthAdjust="spacing" textLength="82" x="192.5" y="543.9639">nCellsX: int</text><ellipse cx="183.5" cy="554.2656" fill="none" rx="3" ry="3" style="stroke:#038048;stroke-width:1.0;"/><text fill="#000000" font-family="sans-serif" font-size="14" lengthAdjust="spacing" textLength="81" x="192.5" y="560.2607">nCellsY: int</text><ellipse cx="183.5" cy="570.5625" fill="none" rx="3" ry="3" style="stroke:#038048;stroke-width:1.0;"/><text fill="#000000" font-family="sans-serif" font-size="14" lengthAdjust="spacing" textLength="106" x="192.5" y="576.5576">solution: int[][]</text><ellipse cx="183.5" cy="586.8594" fill="none" rx="3" ry="3" style="stroke:#038048;stroke-width:1.0;"/><text fill="#000000" font-family="sans-serif" font-size="14" lengthAdjust="spacing" textLength="67" x="192.5" y="592.8545">wCell: int</text><text fill="#000000" font-family="sans-serif" font-size="14" lengthAdjust="spacing" textLength="4" x="192.5" y="609.1514"> </text><line style="stroke:#181818;stroke-width:1.0;stroke-dasharray:1.0,2.0;" x1="173.5" x2="261.5" y1="376.1484" y2="376.1484"/><text fill="#000000" font-family="sans-serif" font-size="14" lengthAdjust="spacing" textLength="75" x="261.5" y="380.4951">Attributes</text><line style="stroke:#181818;stroke-width:1.0;stroke-dasharray:1.0,2.0;" x1="336.5" x2="424.5" y1="376.1484" y2="376.1484"/><rect fill="#F24D5C" height="6" style="stroke:#C82930;stroke-width:1.0;" width="6" x="180.5" y="636.75"/><text fill="#000000" font-family="sans-serif" font-size="14" lengthAdjust="spacing" textLength="99" x="192.5" y="645.7451">loadImage(...)</text><ellipse cx="183.5" cy="656.0469" fill="#84BE84" rx="3" ry="3" style="stroke:#038048;stroke-width:1.0;"/><text fill="#000000" font-family="sans-serif" font-size="14" lengthAdjust="spacing" textLength="119" x="192.5" y="662.042">clearSolution(...)</text><ellipse cx="183.5" cy="672.3438" fill="#84BE84" rx="3" ry="3" style="stroke:#038048;stroke-width:1.0;"/><text fill="#000000" font-family="sans-serif" font-size="14" lengthAdjust="spacing" textLength="133" x="192.5" y="678.3389">GraphicDisplay(...)</text><ellipse cx="183.5" cy="688.6406" fill="#84BE84" rx="3" ry="3" style="stroke:#038048;stroke-width:1.0;"/><text fill="#000000" font-family="sans-serif" font-size="14" lengthAdjust="spacing" textLength="133" x="192.5" y="694.6357">GraphicDisplay(...)</text><ellipse cx="183.5" cy="704.9375" fill="#84BE84" rx="3" ry="3" style="stroke:#038048;stroke-width:1.0;"/><text fill="#000000" font-family="sans-serif" font-size="14" lengthAdjust="spacing" textLength="60" x="192.5" y="710.9326">main(...)</text><ellipse cx="183.5" cy="721.2344" fill="#84BE84" rx="3" ry="3" style="stroke:#038048;stroke-width:1.0;"/><text fill="#000000" font-family="sans-serif" font-size="14" lengthAdjust="spacing" textLength="168" x="192.5" y="727.2295">registerKeyListener(...)</text><ellipse cx="183.5" cy="737.5313" fill="#84BE84" rx="3" ry="3" style="stroke:#038048;stroke-width:1.0;"/><text fill="#000000" font-family="sans-serif" font-size="14" lengthAdjust="spacing" textLength="109" x="192.5" y="743.5264">setMessage(...)</text><ellipse cx="183.5" cy="753.8281" fill="#84BE84" rx="3" ry="3" style="stroke:#038048;stroke-width:1.0;"/><text fill="#000000" font-family="sans-serif" font-size="14" lengthAdjust="spacing" textLength="115" x="192.5" y="759.8232">setNewMaze(...)</text><ellipse cx="183.5" cy="770.125" fill="#84BE84" rx="3" ry="3" style="stroke:#038048;stroke-width:1.0;"/><text fill="#000000" font-family="sans-serif" font-size="14" lengthAdjust="spacing" textLength="107" x="192.5" y="776.1201">setSolution(...)</text><line style="stroke:#181818;stroke-width:1.0;stroke-dasharray:1.0,2.0;" x1="173.5" x2="268" y1="624.6016" y2="624.6016"/><text fill="#000000" font-family="sans-serif" font-size="14" lengthAdjust="spacing" textLength="62" x="268" y="628.9482">Methods</text><line style="stroke:#181818;stroke-width:1.0;stroke-dasharray:1.0,2.0;" x1="330" x2="424.5" y1="624.6016" y2="624.6016"/></g><!--MD5=[cdbd6409a50e72bb6501f962fceb95cf]
class MazeGame--><g id="elem_MazeGame"><rect codeLine="55" fill="#F1F1F1" height="341.3438" id="MazeGame" rx="2.5" ry="2.5" style="stroke:#181818;stroke-width:0.5;" width="184" x="595" y="385"/><ellipse cx="643.25" cy="401" fill="#ADD1B2" rx="11" ry="11" style="stroke:#181818;stroke-width:1.0;"/><path d="M645.5938,396.6719 C644.6563,396.2344 644.0625,396.0938 643.1875,396.0938 C640.5625,396.0938 638.5625,398.1719 638.5625,400.8906 L638.5625,402.0156 C638.5625,404.5938 640.6719,406.4844 643.5625,406.4844 C644.7813,406.4844 645.9375,406.1875 646.6875,405.6406 C647.2656,405.2344 647.5938,404.7813 647.5938,404.3906 C647.5938,403.9375 647.2031,403.5469 646.7344,403.5469 C646.5156,403.5469 646.3125,403.625 646.125,403.8125 C645.6719,404.2969 645.6719,404.2969 645.4844,404.3906 C645.0625,404.6563 644.375,404.7813 643.6094,404.7813 C641.5625,404.7813 640.2656,403.6875 640.2656,401.9844 L640.2656,400.8906 C640.2656,399.1094 641.5156,397.7969 643.25,397.7969 C643.8281,397.7969 644.4375,397.9531 644.9063,398.2031 C645.3906,398.4844 645.5625,398.7031 645.6563,399.1094 C645.7188,399.5156 645.75,399.6406 645.8906,399.7656 C646.0313,399.9063 646.2656,400.0156 646.4844,400.0156 C646.75,400.0156 647.0156,399.875 647.1875,399.6563 C647.2969,399.5 647.3281,399.3125 647.3281,398.8906 L647.3281,397.4688 C647.3281,397.0313 647.3125,396.9063 647.2188,396.75 C647.0625,396.4844 646.7813,396.3438 646.4844,396.3438 C646.1875,396.3438 645.9844,396.4375 645.7656,396.75 L645.5938,396.6719 Z " fill="#000000"/><text fill="#000000" font-family="sans-serif" font-size="14" lengthAdjust="spacing" textLength="79" x="663.75" y="405.8467">MazeGame</text><line style="stroke:#181818;stroke-width:0.5;" x1="596" x2="778" y1="417" y2="417"/><ellipse cx="606" cy="448.2969" fill="none" rx="3" ry="3" style="stroke:#038048;stroke-width:1.0;"/><text fill="#000000" font-family="sans-serif" font-size="14" lengthAdjust="spacing" textLength="121" x="615" y="454.292">gd: GameDisplay</text><ellipse cx="606" cy="464.5938" fill="none" rx="3" ry="3" style="stroke:#038048;stroke-width:1.0;"/><text fill="#000000" font-family="sans-serif" font-size="14" lengthAdjust="spacing" textLength="76" x="615" y="470.5889">height: int</text><ellipse cx="606" cy="480.8906" fill="none" rx="3" ry="3" style="stroke:#038048;stroke-width:1.0;"/><text fill="#000000" font-family="sans-serif" font-size="14" lengthAdjust="spacing" textLength="150" x="615" y="486.8857">kl: KeyboardListener</text><ellipse cx="606" cy="497.1875" fill="none" rx="3" ry="3" style="stroke:#038048;stroke-width:1.0;"/><text fill="#000000" font-family="sans-serif" font-size="14" lengthAdjust="spacing" textLength="141" x="615" y="503.1826">maze: MazeElem[][]</text><ellipse cx="606" cy="513.4844" fill="none" rx="3" ry="3" style="stroke:#038048;stroke-width:1.0;"/><text fill="#000000" font-family="sans-serif" font-size="14" lengthAdjust="spacing" textLength="139" x="615" y="519.4795">mc: MazeContainer</text><ellipse cx="606" cy="529.7813" fill="none" rx="3" ry="3" style="stroke:#038048;stroke-width:1.0;"/><text fill="#000000" font-family="sans-serif" font-size="14" lengthAdjust="spacing" textLength="98" x="615" y="535.7764">player: Player</text><ellipse cx="606" cy="546.0781" fill="none" rx="3" ry="3" style="stroke:#038048;stroke-width:1.0;"/><text fill="#000000" font-family="sans-serif" font-size="14" lengthAdjust="spacing" textLength="69" x="615" y="552.0732">width: int</text><line style="stroke:#181818;stroke-width:1.0;stroke-dasharray:1.0,2.0;" x1="596" x2="649.5" y1="433.1484" y2="433.1484"/><text fill="#000000" font-family="sans-serif" font-size="14" lengthAdjust="spacing" textLength="75" x="649.5" y="437.4951">Attributes</text><line style="stroke:#181818;stroke-width:1.0;stroke-dasharray:1.0,2.0;" x1="724.5" x2="778" y1="433.1484" y2="433.1484"/><rect fill="#F24D5C" height="6" style="stroke:#C82930;stroke-width:1.0;" width="6" x="603" y="579.6719"/><text fill="#000000" font-family="sans-serif" font-size="14" lengthAdjust="spacing" textLength="97" x="615" y="588.667">findPlayer(...)</text><ellipse cx="606" cy="598.9688" fill="#84BE84" rx="3" ry="3" style="stroke:#038048;stroke-width:1.0;"/><text fill="#000000" font-family="sans-serif" font-size="14" lengthAdjust="spacing" textLength="119" x="615" y="604.9639">checkWinner(...)</text><ellipse cx="606" cy="615.2656" fill="#84BE84" rx="3" ry="3" style="stroke:#038048;stroke-width:1.0;"/><text fill="#000000" font-family="sans-serif" font-size="14" lengthAdjust="spacing" textLength="134" x="615" y="621.2607">displaySolution(...)</text><ellipse cx="606" cy="631.5625" fill="#84BE84" rx="3" ry="3" style="stroke:#038048;stroke-width:1.0;"/><text fill="#000000" font-family="sans-serif" font-size="14" lengthAdjust="spacing" textLength="158" x="615" y="637.5576">generateNewMaze(...)</text><ellipse cx="606" cy="647.8594" fill="#84BE84" rx="3" ry="3" style="stroke:#038048;stroke-width:1.0;"/><text fill="#000000" font-family="sans-serif" font-size="14" lengthAdjust="spacing" textLength="60" x="615" y="653.8545">main(...)</text><ellipse cx="606" cy="664.1563" fill="#84BE84" rx="3" ry="3" style="stroke:#038048;stroke-width:1.0;"/><text fill="#000000" font-family="sans-serif" font-size="14" lengthAdjust="spacing" textLength="104" x="615" y="670.1514">MazeGame(...)</text><ellipse cx="606" cy="680.4531" fill="#84BE84" rx="3" ry="3" style="stroke:#038048;stroke-width:1.0;"/><text fill="#000000" font-family="sans-serif" font-size="14" lengthAdjust="spacing" textLength="109" x="615" y="686.4482">movePlayer(...)</text><ellipse cx="606" cy="696.75" fill="#84BE84" rx="3" ry="3" style="stroke:#038048;stroke-width:1.0;"/><text fill="#000000" font-family="sans-serif" font-size="14" lengthAdjust="spacing" textLength="113" x="615" y="702.7451">multiShuffle(...)</text><ellipse cx="606" cy="713.0469" fill="#84BE84" rx="3" ry="3" style="stroke:#038048;stroke-width:1.0;"/><text fill="#000000" font-family="sans-serif" font-size="14" lengthAdjust="spacing" textLength="115" x="615" y="719.042">setNewMaze(...)</text><line style="stroke:#181818;stroke-width:1.0;stroke-dasharray:1.0,2.0;" x1="596" x2="656" y1="567.5234" y2="567.5234"/><text fill="#000000" font-family="sans-serif" font-size="14" lengthAdjust="spacing" textLength="62" x="656" y="571.8701">Methods</text><line style="stroke:#181818;stroke-width:1.0;stroke-dasharray:1.0,2.0;" x1="718" x2="778" y1="567.5234" y2="567.5234"/></g><!--MD5=[46d679683fc9954640fba525747e0162]
reverse link ::maze.data::MazeContainer to ::maze.display::KeyboardListener--><g id="link_::maze.data::MazeContainer_::maze.display::KeyboardListener"><path codeLine="76" d="M313.321,154.5 C323.198,154.5 333.076,154.5 342.953,154.5 " fill="none" id="::maze.data::MazeContainer-backto-::maze.display::KeyboardListener" style="stroke:#181818;stroke-width:1.0;"/><polygon fill="#181818" points="308.156,154.5,317.156,158.5,313.156,154.5,317.156,150.5,308.156,154.5" style="stroke:#181818;stroke-width:1.0;"/></g><!--MD5=[13049185247728bc4e2953451a32b35a]
reverse link ::maze.data::MazeContainer to ::maze.display::GraphicDisplay--><g id="link_::maze.data::MazeContainer_::maze.display::GraphicDisplay"><path codeLine="77" d="M196.191,248.374 C204.348,272.664 213.509,299.94 222.912,327.941 " fill="none" id="::maze.data::MazeContainer-backto-::maze.display::GraphicDisplay" style="stroke:#181818;stroke-width:1.0;"/><polygon fill="#181818" points="194.573,243.556,193.6456,253.3611,196.1644,248.296,201.2295,250.8148,194.573,243.556" style="stroke:#181818;stroke-width:1.0;"/></g><!--MD5=[18157c53e7dd69aa0b9f34356c0ff3c6]
link ::maze.display::KeyboardListener to MazeGame--><g id="link_::maze.display::KeyboardListener_MazeGame"><path codeLine="78" d="M542.681,272.198 C555.44,290.502 567.96,309.494 579,328 C588.928,344.641 598.666,362.338 607.981,380.22 " fill="none" id="::maze.display::KeyboardListener-MazeGame" style="stroke:#181818;stroke-width:1.0;"/><polygon fill="#181818" points="610.34,384.77,609.7483,374.9389,608.0385,380.3312,602.6462,378.6214,610.34,384.77" style="stroke:#181818;stroke-width:1.0;"/><polygon fill="#181818" points="539.783,268.057,541.6659,277.7242,542.6497,272.1536,548.2204,273.1374,539.783,268.057" style="stroke:#181818;stroke-width:1.0;"/></g><!--MD5=[45cca52246d7d24ad7ff2104bdd6f299]
reverse link ::maze.data::MazeContainer to MazeGame--><g id="link_::maze.data::MazeContainer_MazeGame"><path codeLine="79" d="M283.979,246.314 C297.409,254.374 311.226,261.809 325,268 C430.801,315.552 488.726,255.161 579,328 C598.325,343.593 614.399,363.471 627.711,384.953 " fill="none" id="::maze.data::MazeContainer-backto-MazeGame" style="stroke:#181818;stroke-width:1.0;"/><polygon fill="#181818" points="279.44,243.558,285.0563,251.6485,283.7137,246.1533,289.2089,244.8107,279.44,243.558" style="stroke:#181818;stroke-width:1.0;"/></g><!--MD5=[35e11251be49bbacc3efd69b300b936d]
reverse link ::maze.display::GraphicDisplay to MazeGame--><g id="link_::maze.display::GraphicDisplay_MazeGame"><path codeLine="80" d="M430.845,555.5 C485.506,555.5 540.168,555.5 594.83,555.5 " fill="none" id="::maze.display::GraphicDisplay-backto-MazeGame" style="stroke:#181818;stroke-width:1.0;"/><polygon fill="#181818" points="425.555,555.5,434.555,559.5,430.555,555.5,434.555,551.5,425.555,555.5" style="stroke:#181818;stroke-width:1.0;"/></g><!--MD5=[fffe7ba2802eb44871241149180e76e6]
@startuml
class ::maze.data::MazeContainer {
  .. Attributes ..
+ nCellsX: int
+ nCellsY: int
+ maze: MazeElem[][]
  .. Methods ..
# setInitialPositions(random: boolean)
+ MazeContainer(...)
+ MazeContainer(...)
}


class ::maze.display::KeyboardListener {
  .. Attributes ..
+ mc: MazeContainer
+ mg: MazeGame
+ public: @Override
+ public: @Override
+ public: @Override
  .. Methods ..
+ KeyboardListener(...)
+ keyPressed(...)
+ keyReleased(...)
+ keyTyped(...)
}

class ::maze.display::GraphicDisplay {
  .. Attributes ..
- mazeContainer: MazeContainer
- mBitmap: BufferedImage
- msg: String
- strokeSize: int
+ disp: Display
+ drawGrid: boolean
+ frameHeight: int
+ frameWidth: int
+ hCell: int
+ nCellsX: int
+ nCellsY: int
+ solution: int[][]
+ wCell: int

  .. Methods ..
- loadImage(...)
+ clearSolution(...)
+ GraphicDisplay(...)
+ GraphicDisplay(...)
+ main(...)
+ registerKeyListener(...)
+ setMessage(...)
+ setNewMaze(...)
+ setSolution(...)
}

class MazeGame {
.. Attributes ..
+ gd: GameDisplay
+ height: int
+ kl: KeyboardListener
+ maze: MazeElem[][]
+ mc: MazeContainer
+ player: Player
+ width: int
.. Methods ..
- findPlayer(...)
+ checkWinner(...)
+ displaySolution(...)
+ generateNewMaze(...)
+ main(...)
+ MazeGame(...)
+ movePlayer(...)
+ multiShuffle(...)
+ setNewMaze(...)
}

 ::maze.data::MazeContainer <- ::maze.display::KeyboardListener
 ::maze.data::MazeContainer <- - ::maze.display::GraphicDisplay
 ::maze.display::KeyboardListener <- -> MazeGame
 ::maze.data::MazeContainer <- MazeGame
 ::maze.display::GraphicDisplay <- MazeGame
@enduml

PlantUML version 1.2022.3beta2(Unknown compile time)
(GPL source distribution)
Java Runtime: Java(TM) SE Runtime Environment
JVM: Java HotSpot(TM) 64-Bit Server VM
Default Encoding: UTF-8
Language: en
Country: US
--></g></svg>