<?xml version="1.0" encoding="UTF-8" standalone="no"?><svg xmlns="http://www.w3.org/2000/svg" xmlns:xlink="http://www.w3.org/1999/xlink" contentStyleType="text/css" height="312px" preserveAspectRatio="none" style="width:415px;height:312px;background:#FFFFFF;" version="1.1" viewBox="0 0 415 312" width="415px" zoomAndPan="magnify"><defs/><g><rect fill="#F1F1F1" height="36.2969" rx="12.5" ry="12.5" style="stroke:#181818;stroke-width:1.5;" width="132" x="10" y="137.0391"/><text fill="#000000" font-family="sans-serif" font-size="14" font-weight="bold" lengthAdjust="spacing" textLength="112" x="20" y="160.0342">Pillars of OOP</text><rect fill="#F1F1F1" height="52.5938" rx="12.5" ry="12.5" style="stroke:#181818;stroke-width:1.5;" width="192" x="192" y="20"/><text fill="#000000" font-family="sans-serif" font-size="14" lengthAdjust="spacing" textLength="4" x="202" y="42.9951"> </text><text fill="#000000" font-family="sans-serif" font-size="14" font-weight="bold" lengthAdjust="spacing" textLength="92" x="206" y="42.9951">Inheritance</text><text fill="#000000" font-family="sans-serif" font-size="14" lengthAdjust="spacing" textLength="172" x="202" y="59.292">(Sharing of information)</text><path d="M142,155.1875 L152,155.1875 C167,155.1875 167,46.2969 182,46.2969 L192,46.2969 " fill="none" style="stroke:#181818;stroke-width:1.0;"/><rect fill="#F1F1F1" height="52.5938" rx="12.5" ry="12.5" style="stroke:#181818;stroke-width:1.5;" width="204" x="192" y="92.5938"/><text fill="#000000" font-family="sans-serif" font-size="14" lengthAdjust="spacing" textLength="4" x="202" y="115.5889"> </text><text fill="#000000" font-family="sans-serif" font-size="14" font-weight="bold" lengthAdjust="spacing" textLength="115" x="206" y="115.5889">Encapsulation</text><text fill="#000000" font-family="sans-serif" font-size="14" lengthAdjust="spacing" textLength="184" x="202" y="131.8857">(Grouping of information)</text><path d="M142,155.1875 L152,155.1875 C167,155.1875 167,118.8906 182,118.8906 L192,118.8906 " fill="none" style="stroke:#181818;stroke-width:1.0;"/><rect fill="#F1F1F1" height="52.5938" rx="12.5" ry="12.5" style="stroke:#181818;stroke-width:1.5;" width="183" x="192" y="165.1875"/><text fill="#000000" font-family="sans-serif" font-size="14" lengthAdjust="spacing" textLength="4" x="202" y="188.1826"> </text><text fill="#000000" font-family="sans-serif" font-size="14" font-weight="bold" lengthAdjust="spacing" textLength="97" x="206" y="188.1826">Abstraction</text><text fill="#000000" font-family="sans-serif" font-size="14" lengthAdjust="spacing" textLength="163" x="202" y="204.4795">(Hiding of information)</text><path d="M142,155.1875 L152,155.1875 C167,155.1875 167,191.4844 182,191.4844 L192,191.4844 " fill="none" style="stroke:#181818;stroke-width:1.0;"/><rect fill="#F1F1F1" height="52.5938" rx="12.5" ry="12.5" style="stroke:#181818;stroke-width:1.5;" width="211" x="192" y="237.7813"/><text fill="#000000" font-family="sans-serif" font-size="14" lengthAdjust="spacing" textLength="4" x="202" y="260.7764"> </text><text fill="#000000" font-family="sans-serif" font-size="14" font-weight="bold" lengthAdjust="spacing" textLength="115" x="206" y="260.7764">Polymorphism</text><text fill="#000000" font-family="sans-serif" font-size="14" lengthAdjust="spacing" textLength="191" x="202" y="277.0732">(Redefining of information</text><path d="M142,155.1875 L152,155.1875 C167,155.1875 167,264.0781 182,264.0781 L192,264.0781 " fill="none" style="stroke:#181818;stroke-width:1.0;"/><!--MD5=[422da1eda556a8429eb7cf607489c38f]
@startmindmap
* **Pillars of OOP**
**: **Inheritance**
(Sharing of information);
**: **Encapsulation**
(Grouping of information);
**: **Abstraction**
(Hiding of information);
**: **Polymorphism**
(Redefining of information;
@endmindmap

PlantUML version 1.2022.3beta2(Unknown compile time)
(GPL source distribution)
Java Runtime: Java(TM) SE Runtime Environment
JVM: Java HotSpot(TM) 64-Bit Server VM
Default Encoding: UTF-8
Language: en
Country: US
--></g></svg>