<?xml version="1.0" encoding="UTF-8" standalone="no"?>
<svg
   aria-hidden="true"
   focusable="false"
   data-prefix="fas"
   data-icon="brain"
   class="svg-inline--fa fa-brain"
   role="img"
   viewBox="0 0 87.378899 87.379341"
   version="1.1"
   id="svg826"
   sodipodi:docname="Python-Course.svg"
   inkscape:version="1.1.1 (c3084ef, 2021-09-22)"
   width="87.378899"
   height="87.379341"
   inkscape:export-filename="/Users/zas/work/repo/edu/eln/eln-course/img/logos/export_png/Python-Course.png"
   inkscape:export-xdpi="562.52002"
   inkscape:export-ydpi="562.52002"
   xmlns:inkscape="http://www.inkscape.org/namespaces/inkscape"
   xmlns:sodipodi="http://sodipodi.sourceforge.net/DTD/sodipodi-0.dtd"
   xmlns="http://www.w3.org/2000/svg"
   xmlns:svg="http://www.w3.org/2000/svg">
  <defs
     id="defs830">
    <clipPath
       clipPathUnits="userSpaceOnUse"
       id="clipPath2534">
      <rect
         style="fill:#f80000;fill-opacity:0.6;stroke-width:6.02041;stroke-linecap:round;stroke-linejoin:round;stroke-opacity:0.913526"
         id="rect2536"
         width="60.472443"
         height="5.6692915"
         x="12.453223"
         y="65.424355"
         ry="0" />
    </clipPath>
    <clipPath
       clipPathUnits="userSpaceOnUse"
       id="clipPath2576">
      <rect
         style="fill:#f80000;fill-opacity:0.6;stroke-width:8.51415;stroke-linecap:round;stroke-linejoin:round;stroke-opacity:0.913526"
         id="rect2578"
         width="60.472443"
         height="11.338583"
         x="12.453223"
         y="59.755062"
         ry="0" />
    </clipPath>
    <clipPath
       clipPathUnits="userSpaceOnUse"
       id="clipPath2582">
      <rect
         style="fill:#f80000;fill-opacity:0.6;stroke-width:10.4277;stroke-linecap:round;stroke-linejoin:round;stroke-opacity:0.913526"
         id="rect2584"
         width="60.472443"
         height="17.007874"
         x="12.453223"
         y="54.085773"
         ry="0" />
    </clipPath>
    <clipPath
       clipPathUnits="userSpaceOnUse"
       id="clipPath2628">
      <rect
         style="fill:#f80000;fill-opacity:0.6;stroke-width:12.0408;stroke-linecap:round;stroke-linejoin:round;stroke-opacity:0.913526"
         id="rect2630"
         width="60.472443"
         height="22.677166"
         x="12.453223"
         y="48.416481"
         ry="0" />
    </clipPath>
    <clipPath
       clipPathUnits="userSpaceOnUse"
       id="clipPath2634">
      <rect
         style="fill:#f80000;fill-opacity:0.6;stroke-width:13.462;stroke-linecap:round;stroke-linejoin:round;stroke-opacity:0.913526"
         id="rect2636"
         width="60.472443"
         height="28.346457"
         x="12.453223"
         y="42.747189"
         ry="0" />
    </clipPath>
    <clipPath
       clipPathUnits="userSpaceOnUse"
       id="clipPath2640">
      <rect
         style="fill:#f80000;fill-opacity:0.6;stroke-width:14.7469;stroke-linecap:round;stroke-linejoin:round;stroke-opacity:0.913526"
         id="rect2642"
         width="60.472443"
         height="34.015747"
         x="12.453223"
         y="37.0779"
         ry="0" />
    </clipPath>
    <clipPath
       clipPathUnits="userSpaceOnUse"
       id="clipPath2745">
      <rect
         style="fill:#f80000;fill-opacity:0.6;stroke-width:15.9285;stroke-linecap:round;stroke-linejoin:round;stroke-opacity:0.913526"
         id="rect2747"
         width="60.472443"
         height="39.68504"
         x="12.453223"
         y="31.408606"
         ry="0" />
    </clipPath>
    <clipPath
       clipPathUnits="userSpaceOnUse"
       id="clipPath2751">
      <rect
         style="fill:#f80000;fill-opacity:0.6;stroke-width:17.0283;stroke-linecap:round;stroke-linejoin:round;stroke-opacity:0.913526"
         id="rect2753"
         width="60.472443"
         height="45.354332"
         x="12.453223"
         y="25.739313"
         ry="0" />
    </clipPath>
    <clipPath
       clipPathUnits="userSpaceOnUse"
       id="clipPath2757">
      <rect
         style="fill:#f80000;fill-opacity:0.6;stroke-width:18.0612;stroke-linecap:round;stroke-linejoin:round;stroke-opacity:0.913526"
         id="rect2759"
         width="60.472443"
         height="51.023621"
         x="12.453223"
         y="20.070024"
         ry="0" />
    </clipPath>
    <clipPath
       clipPathUnits="userSpaceOnUse"
       id="clipPath2699">
      <circle
         id="circle2701"
         cx="43.689445"
         cy="43.689457"
         style="fill:#c8306f;fill-opacity:1;stroke-width:0.755463"
         r="43.689449"
         inkscape:export-xdpi="549.33002"
         inkscape:export-ydpi="549.33002" />
    </clipPath>
  </defs>
  <sodipodi:namedview
     id="namedview828"
     pagecolor="#ffffff"
     bordercolor="#999999"
     borderopacity="1"
     inkscape:pageshadow="0"
     inkscape:pageopacity="0"
     inkscape:pagecheckerboard="0"
     showgrid="false"
     inkscape:zoom="3.9719514"
     inkscape:cx="-23.288301"
     inkscape:cy="22.281239"
     inkscape:window-width="1800"
     inkscape:window-height="1097"
     inkscape:window-x="0"
     inkscape:window-y="25"
     inkscape:window-maximized="0"
     inkscape:current-layer="layer1" />
  <g
     inkscape:groupmode="layer"
     id="layer2"
     inkscape:label="base"
     style="display:inline">
    <g
       inkscape:label="Layer 1"
       id="layer1"
       style="opacity:1"
       transform="matrix(3.7795276,0,0,3.7795276,-226.16465,-461.36135)">
      <circle
         id="path59"
         cx="71.398895"
         cy="133.62802"
         style="fill:#c8306f;fill-opacity:1;stroke-width:0.199883"
         r="11.5595"
         inkscape:export-xdpi="549.33002"
         inkscape:export-ydpi="549.33002" />
      <path
         id="rect4880"
         style="color:#000000;font-style:normal;font-variant:normal;font-weight:normal;font-stretch:normal;font-size:medium;line-height:normal;font-family:sans-serif;font-variant-ligatures:normal;font-variant-position:normal;font-variant-caps:normal;font-variant-numeric:normal;font-variant-alternates:normal;font-feature-settings:normal;text-indent:0;text-align:start;text-decoration:none;text-decoration-line:none;text-decoration-style:solid;text-decoration-color:#000000;letter-spacing:normal;word-spacing:normal;text-transform:none;writing-mode:lr-tb;direction:ltr;text-orientation:mixed;dominant-baseline:auto;baseline-shift:baseline;text-anchor:start;white-space:normal;shape-padding:0;clip-rule:nonzero;display:inline;overflow:visible;visibility:visible;opacity:1;isolation:auto;mix-blend-mode:normal;color-interpolation:sRGB;color-interpolation-filters:linearRGB;solid-color:#000000;solid-opacity:1;vector-effect:none;fill:#000000;fill-opacity:0.348066;fill-rule:nonzero;stroke:none;stroke-width:1;stroke-linecap:butt;stroke-linejoin:miter;stroke-miterlimit:4;stroke-dasharray:none;stroke-dashoffset:0;stroke-opacity:1;color-rendering:auto;image-rendering:auto;shape-rendering:auto;text-rendering:auto;enable-background:accumulate"
         d="m 32.739877,22.111689 0.471105,14.300563 -14.692392,17.404722 12.630949,12.767493 0.878604,1.122535 31.933593,30.791016 C 74.039107,90.55964 95.737259,74.336602 96.205703,61.516625 L 67.326797,31.770531 64.593548,30.490999 55.356605,19.620586 40.204652,18.652403 Z"
         transform="matrix(0.26458333,0,0,0.26458333,59.839396,122.06852)"
         sodipodi:nodetypes="cccccccccccc"
         clip-path="url(#clipPath2699)" />
    </g>
  </g>
  <g
     inkscape:groupmode="layer"
     id="layer4"
     inkscape:label="loading">
    <g
       inkscape:groupmode="layer"
       id="layer3"
       inkscape:label="loading"
       style="display:none"
       sodipodi:insensitive="true">
      <path
         fill="currentColor"
         d="m 34.700808,14.285381 c 3.428459,0 6.213389,2.781581 6.213389,6.213392 v 44.38133 c 0,3.428485 -2.78493,6.213392 -6.213389,6.213392 -3.206551,0 -5.847243,-2.429858 -6.180102,-5.55874 -0.57696,0.155338 -1.187199,0.232819 -1.808538,0.232819 -3.922201,0 -7.10101,-3.184328 -7.10101,-7.101014 0,-0.821027 0.1409,-1.619906 0.398309,-2.352189 -3.346348,-1.264857 -5.724079,-4.504706 -5.724079,-8.299314 0,-3.539414 2.075939,-6.601739 5.078328,-8.021934 -0.956417,-1.209411 -1.527818,-2.84039 -1.527818,-4.40485 0,-3.406262 2.39548,-6.246652 5.593161,-6.945676 -0.174199,-0.610242 -0.267402,-1.264857 -0.267402,-1.930583 0,-3.32194 2.285639,-6.111307 5.359049,-6.886904 0.332863,-3.114444 2.973551,-5.53988 6.180102,-5.53988 z m 22.15739,5.539881 c 3.07341,0.775596 5.359049,3.564963 5.359049,6.886904 0,0.665726 -0.08878,1.32034 -0.266306,1.930582 3.195463,0.699024 5.59205,3.539414 5.59205,6.945676 0,1.56446 -0.56586,3.195439 -1.531159,4.40485 3.006841,1.420196 5.08167,4.48252 5.08167,8.021934 0,3.794608 -2.374402,7.034457 -5.725191,8.299314 0.255194,0.732283 0.399432,1.531162 0.399432,2.352189 0,3.916686 -3.184369,7.101014 -7.101022,7.101014 -0.621328,0 -1.231578,-0.07748 -1.808538,-0.232819 -0.332863,3.128882 -2.973551,5.55874 -6.180102,5.55874 -3.42847,0 -6.213389,-2.784907 -6.213389,-6.213392 V 20.498925 c 0,-3.431812 2.784919,-6.213393 6.213389,-6.213393 3.206551,0 5.847243,2.425437 6.180102,5.539881 z"
         id="path824-3"
         style="display:inline;fill:#000000;fill-opacity:0.6;stroke-width:0.110953" />
      <rect
         style="fill:#f80000;fill-opacity:0.6;stroke-width:19.0382;stroke-linecap:round;stroke-linejoin:round;stroke-opacity:0.913526"
         id="rect2115"
         width="60.472443"
         height="56.692913"
         x="12.453223"
         y="14.342981"
         ry="0" />
    </g>
    <g
       inkscape:groupmode="layer"
       id="g2528"
       inkscape:label="loading 10"
       style="display:none"
       sodipodi:insensitive="true">
      <path
         fill="currentColor"
         d="m 34.700808,14.285381 c 3.428459,0 6.213389,2.781581 6.213389,6.213392 v 44.38133 c 0,3.428485 -2.78493,6.213392 -6.213389,6.213392 -3.206551,0 -5.847243,-2.429858 -6.180102,-5.55874 -0.57696,0.155338 -1.187199,0.232819 -1.808538,0.232819 -3.922201,0 -7.10101,-3.184328 -7.10101,-7.101014 0,-0.821027 0.1409,-1.619906 0.398309,-2.352189 -3.346348,-1.264857 -5.724079,-4.504706 -5.724079,-8.299314 0,-3.539414 2.075939,-6.601739 5.078328,-8.021934 -0.956417,-1.209411 -1.527818,-2.84039 -1.527818,-4.40485 0,-3.406262 2.39548,-6.246652 5.593161,-6.945676 -0.174199,-0.610242 -0.267402,-1.264857 -0.267402,-1.930583 0,-3.32194 2.285639,-6.111307 5.359049,-6.886904 0.332863,-3.114444 2.973551,-5.53988 6.180102,-5.53988 z m 22.15739,5.539881 c 3.07341,0.775596 5.359049,3.564963 5.359049,6.886904 0,0.665726 -0.08878,1.32034 -0.266306,1.930582 3.195463,0.699024 5.59205,3.539414 5.59205,6.945676 0,1.56446 -0.56586,3.195439 -1.531159,4.40485 3.006841,1.420196 5.08167,4.48252 5.08167,8.021934 0,3.794608 -2.374402,7.034457 -5.725191,8.299314 0.255194,0.732283 0.399432,1.531162 0.399432,2.352189 0,3.916686 -3.184369,7.101014 -7.101022,7.101014 -0.621328,0 -1.231578,-0.07748 -1.808538,-0.232819 -0.332863,3.128882 -2.973551,5.55874 -6.180102,5.55874 -3.42847,0 -6.213389,-2.784907 -6.213389,-6.213392 V 20.498925 c 0,-3.431812 2.784919,-6.213393 6.213389,-6.213393 3.206551,0 5.847243,2.425437 6.180102,5.539881 z"
         id="path2524"
         style="display:inline;fill:#000000;fill-opacity:0.6;stroke-width:0.110953"
         clip-path="url(#clipPath2534)" />
    </g>
    <g
       inkscape:groupmode="layer"
       id="g2540"
       inkscape:label="loading 20"
       style="display:none">
      <path
         fill="currentColor"
         d="m 34.700808,14.285381 c 3.428459,0 6.213389,2.781581 6.213389,6.213392 v 44.38133 c 0,3.428485 -2.78493,6.213392 -6.213389,6.213392 -3.206551,0 -5.847243,-2.429858 -6.180102,-5.55874 -0.57696,0.155338 -1.187199,0.232819 -1.808538,0.232819 -3.922201,0 -7.10101,-3.184328 -7.10101,-7.101014 0,-0.821027 0.1409,-1.619906 0.398309,-2.352189 -3.346348,-1.264857 -5.724079,-4.504706 -5.724079,-8.299314 0,-3.539414 2.075939,-6.601739 5.078328,-8.021934 -0.956417,-1.209411 -1.527818,-2.84039 -1.527818,-4.40485 0,-3.406262 2.39548,-6.246652 5.593161,-6.945676 -0.174199,-0.610242 -0.267402,-1.264857 -0.267402,-1.930583 0,-3.32194 2.285639,-6.111307 5.359049,-6.886904 0.332863,-3.114444 2.973551,-5.53988 6.180102,-5.53988 z m 22.15739,5.539881 c 3.07341,0.775596 5.359049,3.564963 5.359049,6.886904 0,0.665726 -0.08878,1.32034 -0.266306,1.930582 3.195463,0.699024 5.59205,3.539414 5.59205,6.945676 0,1.56446 -0.56586,3.195439 -1.531159,4.40485 3.006841,1.420196 5.08167,4.48252 5.08167,8.021934 0,3.794608 -2.374402,7.034457 -5.725191,8.299314 0.255194,0.732283 0.399432,1.531162 0.399432,2.352189 0,3.916686 -3.184369,7.101014 -7.101022,7.101014 -0.621328,0 -1.231578,-0.07748 -1.808538,-0.232819 -0.332863,3.128882 -2.973551,5.55874 -6.180102,5.55874 -3.42847,0 -6.213389,-2.784907 -6.213389,-6.213392 V 20.498925 c 0,-3.431812 2.784919,-6.213393 6.213389,-6.213393 3.206551,0 5.847243,2.425437 6.180102,5.539881 z"
         id="path2538"
         style="display:inline;fill:#000000;fill-opacity:0.6;stroke-width:0.110953"
         clip-path="url(#clipPath2576)" />
    </g>
    <g
       inkscape:groupmode="layer"
       id="g2544"
       inkscape:label="loading 30"
       style="display:none">
      <path
         fill="currentColor"
         d="m 34.700808,14.285381 c 3.428459,0 6.213389,2.781581 6.213389,6.213392 v 44.38133 c 0,3.428485 -2.78493,6.213392 -6.213389,6.213392 -3.206551,0 -5.847243,-2.429858 -6.180102,-5.55874 -0.57696,0.155338 -1.187199,0.232819 -1.808538,0.232819 -3.922201,0 -7.10101,-3.184328 -7.10101,-7.101014 0,-0.821027 0.1409,-1.619906 0.398309,-2.352189 -3.346348,-1.264857 -5.724079,-4.504706 -5.724079,-8.299314 0,-3.539414 2.075939,-6.601739 5.078328,-8.021934 -0.956417,-1.209411 -1.527818,-2.84039 -1.527818,-4.40485 0,-3.406262 2.39548,-6.246652 5.593161,-6.945676 -0.174199,-0.610242 -0.267402,-1.264857 -0.267402,-1.930583 0,-3.32194 2.285639,-6.111307 5.359049,-6.886904 0.332863,-3.114444 2.973551,-5.53988 6.180102,-5.53988 z m 22.15739,5.539881 c 3.07341,0.775596 5.359049,3.564963 5.359049,6.886904 0,0.665726 -0.08878,1.32034 -0.266306,1.930582 3.195463,0.699024 5.59205,3.539414 5.59205,6.945676 0,1.56446 -0.56586,3.195439 -1.531159,4.40485 3.006841,1.420196 5.08167,4.48252 5.08167,8.021934 0,3.794608 -2.374402,7.034457 -5.725191,8.299314 0.255194,0.732283 0.399432,1.531162 0.399432,2.352189 0,3.916686 -3.184369,7.101014 -7.101022,7.101014 -0.621328,0 -1.231578,-0.07748 -1.808538,-0.232819 -0.332863,3.128882 -2.973551,5.55874 -6.180102,5.55874 -3.42847,0 -6.213389,-2.784907 -6.213389,-6.213392 V 20.498925 c 0,-3.431812 2.784919,-6.213393 6.213389,-6.213393 3.206551,0 5.847243,2.425437 6.180102,5.539881 z"
         id="path2542"
         style="display:inline;fill:#000000;fill-opacity:0.6;stroke-width:0.110953"
         clip-path="url(#clipPath2582)" />
    </g>
    <g
       inkscape:groupmode="layer"
       id="g2548"
       inkscape:label="loading 40"
       style="display:none">
      <path
         fill="currentColor"
         d="m 34.700808,14.285381 c 3.428459,0 6.213389,2.781581 6.213389,6.213392 v 44.38133 c 0,3.428485 -2.78493,6.213392 -6.213389,6.213392 -3.206551,0 -5.847243,-2.429858 -6.180102,-5.55874 -0.57696,0.155338 -1.187199,0.232819 -1.808538,0.232819 -3.922201,0 -7.10101,-3.184328 -7.10101,-7.101014 0,-0.821027 0.1409,-1.619906 0.398309,-2.352189 -3.346348,-1.264857 -5.724079,-4.504706 -5.724079,-8.299314 0,-3.539414 2.075939,-6.601739 5.078328,-8.021934 -0.956417,-1.209411 -1.527818,-2.84039 -1.527818,-4.40485 0,-3.406262 2.39548,-6.246652 5.593161,-6.945676 -0.174199,-0.610242 -0.267402,-1.264857 -0.267402,-1.930583 0,-3.32194 2.285639,-6.111307 5.359049,-6.886904 0.332863,-3.114444 2.973551,-5.53988 6.180102,-5.53988 z m 22.15739,5.539881 c 3.07341,0.775596 5.359049,3.564963 5.359049,6.886904 0,0.665726 -0.08878,1.32034 -0.266306,1.930582 3.195463,0.699024 5.59205,3.539414 5.59205,6.945676 0,1.56446 -0.56586,3.195439 -1.531159,4.40485 3.006841,1.420196 5.08167,4.48252 5.08167,8.021934 0,3.794608 -2.374402,7.034457 -5.725191,8.299314 0.255194,0.732283 0.399432,1.531162 0.399432,2.352189 0,3.916686 -3.184369,7.101014 -7.101022,7.101014 -0.621328,0 -1.231578,-0.07748 -1.808538,-0.232819 -0.332863,3.128882 -2.973551,5.55874 -6.180102,5.55874 -3.42847,0 -6.213389,-2.784907 -6.213389,-6.213392 V 20.498925 c 0,-3.431812 2.784919,-6.213393 6.213389,-6.213393 3.206551,0 5.847243,2.425437 6.180102,5.539881 z"
         id="path2546"
         style="display:inline;fill:#000000;fill-opacity:0.6;stroke-width:0.110953"
         clip-path="url(#clipPath2628)" />
    </g>
    <g
       inkscape:groupmode="layer"
       id="g2552"
       inkscape:label="loading 50"
       style="display:none">
      <path
         fill="currentColor"
         d="m 34.700808,14.285381 c 3.428459,0 6.213389,2.781581 6.213389,6.213392 v 44.38133 c 0,3.428485 -2.78493,6.213392 -6.213389,6.213392 -3.206551,0 -5.847243,-2.429858 -6.180102,-5.55874 -0.57696,0.155338 -1.187199,0.232819 -1.808538,0.232819 -3.922201,0 -7.10101,-3.184328 -7.10101,-7.101014 0,-0.821027 0.1409,-1.619906 0.398309,-2.352189 -3.346348,-1.264857 -5.724079,-4.504706 -5.724079,-8.299314 0,-3.539414 2.075939,-6.601739 5.078328,-8.021934 -0.956417,-1.209411 -1.527818,-2.84039 -1.527818,-4.40485 0,-3.406262 2.39548,-6.246652 5.593161,-6.945676 -0.174199,-0.610242 -0.267402,-1.264857 -0.267402,-1.930583 0,-3.32194 2.285639,-6.111307 5.359049,-6.886904 0.332863,-3.114444 2.973551,-5.53988 6.180102,-5.53988 z m 22.15739,5.539881 c 3.07341,0.775596 5.359049,3.564963 5.359049,6.886904 0,0.665726 -0.08878,1.32034 -0.266306,1.930582 3.195463,0.699024 5.59205,3.539414 5.59205,6.945676 0,1.56446 -0.56586,3.195439 -1.531159,4.40485 3.006841,1.420196 5.08167,4.48252 5.08167,8.021934 0,3.794608 -2.374402,7.034457 -5.725191,8.299314 0.255194,0.732283 0.399432,1.531162 0.399432,2.352189 0,3.916686 -3.184369,7.101014 -7.101022,7.101014 -0.621328,0 -1.231578,-0.07748 -1.808538,-0.232819 -0.332863,3.128882 -2.973551,5.55874 -6.180102,5.55874 -3.42847,0 -6.213389,-2.784907 -6.213389,-6.213392 V 20.498925 c 0,-3.431812 2.784919,-6.213393 6.213389,-6.213393 3.206551,0 5.847243,2.425437 6.180102,5.539881 z"
         id="path2550"
         style="display:inline;fill:#000000;fill-opacity:0.6;stroke-width:0.110953"
         clip-path="url(#clipPath2634)" />
    </g>
    <g
       inkscape:groupmode="layer"
       id="g2560"
       inkscape:label="loading 60"
       style="display:none">
      <path
         fill="currentColor"
         d="m 34.700808,14.285381 c 3.428459,0 6.213389,2.781581 6.213389,6.213392 v 44.38133 c 0,3.428485 -2.78493,6.213392 -6.213389,6.213392 -3.206551,0 -5.847243,-2.429858 -6.180102,-5.55874 -0.57696,0.155338 -1.187199,0.232819 -1.808538,0.232819 -3.922201,0 -7.10101,-3.184328 -7.10101,-7.101014 0,-0.821027 0.1409,-1.619906 0.398309,-2.352189 -3.346348,-1.264857 -5.724079,-4.504706 -5.724079,-8.299314 0,-3.539414 2.075939,-6.601739 5.078328,-8.021934 -0.956417,-1.209411 -1.527818,-2.84039 -1.527818,-4.40485 0,-3.406262 2.39548,-6.246652 5.593161,-6.945676 -0.174199,-0.610242 -0.267402,-1.264857 -0.267402,-1.930583 0,-3.32194 2.285639,-6.111307 5.359049,-6.886904 0.332863,-3.114444 2.973551,-5.53988 6.180102,-5.53988 z m 22.15739,5.539881 c 3.07341,0.775596 5.359049,3.564963 5.359049,6.886904 0,0.665726 -0.08878,1.32034 -0.266306,1.930582 3.195463,0.699024 5.59205,3.539414 5.59205,6.945676 0,1.56446 -0.56586,3.195439 -1.531159,4.40485 3.006841,1.420196 5.08167,4.48252 5.08167,8.021934 0,3.794608 -2.374402,7.034457 -5.725191,8.299314 0.255194,0.732283 0.399432,1.531162 0.399432,2.352189 0,3.916686 -3.184369,7.101014 -7.101022,7.101014 -0.621328,0 -1.231578,-0.07748 -1.808538,-0.232819 -0.332863,3.128882 -2.973551,5.55874 -6.180102,5.55874 -3.42847,0 -6.213389,-2.784907 -6.213389,-6.213392 V 20.498925 c 0,-3.431812 2.784919,-6.213393 6.213389,-6.213393 3.206551,0 5.847243,2.425437 6.180102,5.539881 z"
         id="path2558"
         style="display:inline;fill:#000000;fill-opacity:0.6;stroke-width:0.110953"
         clip-path="url(#clipPath2640)" />
    </g>
    <g
       inkscape:groupmode="layer"
       id="g2564"
       inkscape:label="loading 70"
       style="display:none">
      <path
         fill="currentColor"
         d="m 34.700808,14.285381 c 3.428459,0 6.213389,2.781581 6.213389,6.213392 v 44.38133 c 0,3.428485 -2.78493,6.213392 -6.213389,6.213392 -3.206551,0 -5.847243,-2.429858 -6.180102,-5.55874 -0.57696,0.155338 -1.187199,0.232819 -1.808538,0.232819 -3.922201,0 -7.10101,-3.184328 -7.10101,-7.101014 0,-0.821027 0.1409,-1.619906 0.398309,-2.352189 -3.346348,-1.264857 -5.724079,-4.504706 -5.724079,-8.299314 0,-3.539414 2.075939,-6.601739 5.078328,-8.021934 -0.956417,-1.209411 -1.527818,-2.84039 -1.527818,-4.40485 0,-3.406262 2.39548,-6.246652 5.593161,-6.945676 -0.174199,-0.610242 -0.267402,-1.264857 -0.267402,-1.930583 0,-3.32194 2.285639,-6.111307 5.359049,-6.886904 0.332863,-3.114444 2.973551,-5.53988 6.180102,-5.53988 z m 22.15739,5.539881 c 3.07341,0.775596 5.359049,3.564963 5.359049,6.886904 0,0.665726 -0.08878,1.32034 -0.266306,1.930582 3.195463,0.699024 5.59205,3.539414 5.59205,6.945676 0,1.56446 -0.56586,3.195439 -1.531159,4.40485 3.006841,1.420196 5.08167,4.48252 5.08167,8.021934 0,3.794608 -2.374402,7.034457 -5.725191,8.299314 0.255194,0.732283 0.399432,1.531162 0.399432,2.352189 0,3.916686 -3.184369,7.101014 -7.101022,7.101014 -0.621328,0 -1.231578,-0.07748 -1.808538,-0.232819 -0.332863,3.128882 -2.973551,5.55874 -6.180102,5.55874 -3.42847,0 -6.213389,-2.784907 -6.213389,-6.213392 V 20.498925 c 0,-3.431812 2.784919,-6.213393 6.213389,-6.213393 3.206551,0 5.847243,2.425437 6.180102,5.539881 z"
         id="path2562"
         style="display:inline;fill:#000000;fill-opacity:0.6;stroke-width:0.110953"
         clip-path="url(#clipPath2745)" />
    </g>
    <g
       inkscape:groupmode="layer"
       id="g2572"
       inkscape:label="loading 80"
       style="display:none">
      <path
         fill="currentColor"
         d="m 34.700808,14.285381 c 3.428459,0 6.213389,2.781581 6.213389,6.213392 v 44.38133 c 0,3.428485 -2.78493,6.213392 -6.213389,6.213392 -3.206551,0 -5.847243,-2.429858 -6.180102,-5.55874 -0.57696,0.155338 -1.187199,0.232819 -1.808538,0.232819 -3.922201,0 -7.10101,-3.184328 -7.10101,-7.101014 0,-0.821027 0.1409,-1.619906 0.398309,-2.352189 -3.346348,-1.264857 -5.724079,-4.504706 -5.724079,-8.299314 0,-3.539414 2.075939,-6.601739 5.078328,-8.021934 -0.956417,-1.209411 -1.527818,-2.84039 -1.527818,-4.40485 0,-3.406262 2.39548,-6.246652 5.593161,-6.945676 -0.174199,-0.610242 -0.267402,-1.264857 -0.267402,-1.930583 0,-3.32194 2.285639,-6.111307 5.359049,-6.886904 0.332863,-3.114444 2.973551,-5.53988 6.180102,-5.53988 z m 22.15739,5.539881 c 3.07341,0.775596 5.359049,3.564963 5.359049,6.886904 0,0.665726 -0.08878,1.32034 -0.266306,1.930582 3.195463,0.699024 5.59205,3.539414 5.59205,6.945676 0,1.56446 -0.56586,3.195439 -1.531159,4.40485 3.006841,1.420196 5.08167,4.48252 5.08167,8.021934 0,3.794608 -2.374402,7.034457 -5.725191,8.299314 0.255194,0.732283 0.399432,1.531162 0.399432,2.352189 0,3.916686 -3.184369,7.101014 -7.101022,7.101014 -0.621328,0 -1.231578,-0.07748 -1.808538,-0.232819 -0.332863,3.128882 -2.973551,5.55874 -6.180102,5.55874 -3.42847,0 -6.213389,-2.784907 -6.213389,-6.213392 V 20.498925 c 0,-3.431812 2.784919,-6.213393 6.213389,-6.213393 3.206551,0 5.847243,2.425437 6.180102,5.539881 z"
         id="path2570"
         style="display:inline;fill:#000000;fill-opacity:0.6;stroke-width:0.110953"
         clip-path="url(#clipPath2751)" />
    </g>
    <g
       inkscape:groupmode="layer"
       id="g2556"
       inkscape:label="loading 90"
       style="display:none">
      <path
         fill="currentColor"
         d="m 34.700808,14.285381 c 3.428459,0 6.213389,2.781581 6.213389,6.213392 v 44.38133 c 0,3.428485 -2.78493,6.213392 -6.213389,6.213392 -3.206551,0 -5.847243,-2.429858 -6.180102,-5.55874 -0.57696,0.155338 -1.187199,0.232819 -1.808538,0.232819 -3.922201,0 -7.10101,-3.184328 -7.10101,-7.101014 0,-0.821027 0.1409,-1.619906 0.398309,-2.352189 -3.346348,-1.264857 -5.724079,-4.504706 -5.724079,-8.299314 0,-3.539414 2.075939,-6.601739 5.078328,-8.021934 -0.956417,-1.209411 -1.527818,-2.84039 -1.527818,-4.40485 0,-3.406262 2.39548,-6.246652 5.593161,-6.945676 -0.174199,-0.610242 -0.267402,-1.264857 -0.267402,-1.930583 0,-3.32194 2.285639,-6.111307 5.359049,-6.886904 0.332863,-3.114444 2.973551,-5.53988 6.180102,-5.53988 z m 22.15739,5.539881 c 3.07341,0.775596 5.359049,3.564963 5.359049,6.886904 0,0.665726 -0.08878,1.32034 -0.266306,1.930582 3.195463,0.699024 5.59205,3.539414 5.59205,6.945676 0,1.56446 -0.56586,3.195439 -1.531159,4.40485 3.006841,1.420196 5.08167,4.48252 5.08167,8.021934 0,3.794608 -2.374402,7.034457 -5.725191,8.299314 0.255194,0.732283 0.399432,1.531162 0.399432,2.352189 0,3.916686 -3.184369,7.101014 -7.101022,7.101014 -0.621328,0 -1.231578,-0.07748 -1.808538,-0.232819 -0.332863,3.128882 -2.973551,5.55874 -6.180102,5.55874 -3.42847,0 -6.213389,-2.784907 -6.213389,-6.213392 V 20.498925 c 0,-3.431812 2.784919,-6.213393 6.213389,-6.213393 3.206551,0 5.847243,2.425437 6.180102,5.539881 z"
         id="path2554"
         style="display:inline;fill:#000000;fill-opacity:0.6;stroke-width:0.110953"
         clip-path="url(#clipPath2757)" />
    </g>
    <g
       inkscape:groupmode="layer"
       id="g2568"
       inkscape:label="loading 100"
       style="display:inline">
      <path
         d="m 50.810099,18.788944 2.048261,0.455169 1.661368,0.59172 1.342749,0.682754 1.024131,0.72827 0.773787,0.773788 0.568962,0.773788 0.364135,0.751029 0.227585,0.682754 0.09103,0.59172 0.04552,0.455169 -0.02276,0.29586 v 12.153018 l -0.113792,1.433783 -0.29586,1.251715 -0.477928,1.046889 -0.59172,0.864822 -0.682754,0.705512 -0.751029,0.568962 -0.796546,0.43241 -0.796546,0.318619 -0.751029,0.227584 -0.682754,0.15931 -0.59172,0.09103 -0.477928,0.04552 H 38.338462 l -1.570334,0.113793 -1.342749,0.318618 -1.137923,0.500686 -0.933097,0.614479 -0.751029,0.72827 -0.614478,0.796547 -0.455169,0.819304 -0.341377,0.842063 -0.227585,0.796546 -0.159309,0.728271 -0.09103,0.614479 -0.04552,0.477927 v 6.964089 h -5.075137 l -0.477927,-0.06827 -0.637237,-0.159309 -0.728271,-0.273102 -0.796546,-0.409652 -0.819305,-0.59172 -0.819304,-0.819305 -0.796546,-1.046889 -0.728271,-1.342749 -0.637237,-1.661368 -0.477928,-2.002744 -0.318618,-2.389639 -0.113792,-2.79929 0.13655,-2.776533 0.364136,-2.366879 0.546203,-1.979987 0.72827,-1.61585 0.819305,-1.297233 0.910338,-1.001372 0.955856,-0.751029 0.955855,-0.546203 0.910339,-0.364135 0.819304,-0.227585 0.728271,-0.113792 0.546203,-0.02276 h 0.364135 l 0.136551,0.02276 H 45.734962 V 30.691618 H 32.444021 l -0.02276,-6.258576 -0.04552,-0.842063 0.113792,-0.773788 0.250343,-0.705512 0.386894,-0.637237 0.568961,-0.59172 0.705513,-0.523445 0.864821,-0.455169 1.001372,-0.409652 1.160682,-0.341377 1.319991,-0.273102 1.456541,-0.227584 1.615851,-0.136551 1.752401,-0.09103 1.911711,-0.04552 2.890324,0.113793 z m -14.337831,4.506175 -0.523444,0.751029 -0.182068,0.933097 0.182068,0.933097 0.523444,0.773787 0.75103,0.500687 0.933097,0.204826 0.933096,-0.204826 0.75103,-0.500687 0.523444,-0.773787 0.182068,-0.933097 -0.182068,-0.933097 -0.523444,-0.751029 -0.75103,-0.500686 -0.933096,-0.204827 -0.933097,0.204827 z m 29.790825,8.989592 0.637237,0.13655 0.728271,0.273102 0.796546,0.409652 0.819305,0.614479 0.819304,0.796546 0.796546,1.069647 0.728271,1.34275 0.637237,1.661367 0.477928,2.002745 0.318618,2.36688 0.113792,2.79929 -0.13655,2.799291 -0.364136,2.36688 -0.546203,1.957228 -0.72827,1.61585 -0.819305,1.297233 -0.910338,1.02413 -0.955856,0.751029 -0.955855,0.546203 -0.910339,0.364136 -0.819304,0.204826 -0.728271,0.113792 -0.546203,0.04552 -0.364135,-0.02276 H 45.643928 v 1.866194 h 13.290941 l 0.02276,6.281335 0.04552,0.819304 -0.113792,0.773788 -0.250343,0.705512 -0.386894,0.659996 -0.568961,0.568961 -0.705513,0.546203 -0.864821,0.455169 -1.001372,0.386894 -1.160682,0.341377 -1.319991,0.29586 -1.456541,0.204826 -1.615851,0.159309 -1.752401,0.09103 -1.911711,0.02276 -2.890324,-0.09103 -2.435156,-0.318619 -2.048261,-0.455169 -1.661368,-0.568961 -1.342749,-0.682754 -1.024131,-0.751029 -0.773787,-0.773788 -0.568962,-0.773788 -0.364135,-0.751029 -0.227585,-0.682754 -0.09103,-0.568961 -0.04552,-0.455169 0.02276,-0.29586 v -12.15302 l 0.113792,-1.456542 0.29586,-1.228957 0.477928,-1.046889 0.59172,-0.864821 0.682754,-0.728271 0.751029,-0.546203 0.796546,-0.455169 0.796546,-0.318619 0.751029,-0.227584 0.682754,-0.136551 0.59172,-0.09103 0.477928,-0.04552 0.29586,-0.02276 h 13.290941 l 1.570334,-0.113793 1.342749,-0.318618 1.137923,-0.477928 0.933097,-0.637237 0.751029,-0.72827 0.614478,-0.796547 0.455169,-0.819304 0.341377,-0.819305 0.227585,-0.796546 0.159309,-0.728271 0.09103,-0.637237 0.04552,-0.477927 v -6.964089 h 4.756518 l 0.318619,0.02276 z m -14.724724,32.430806 -0.523444,0.751029 -0.182068,0.933097 0.182068,0.933097 0.523444,0.751029 0.75103,0.523445 0.933096,0.182068 0.933097,-0.182068 0.75103,-0.523445 0.523444,-0.751029 0.182068,-0.933097 -0.182068,-0.933097 -0.523444,-0.751029 -0.75103,-0.523445 -0.933097,-0.182067 -0.933096,0.182067 z"
         id="path1051"
         style="stroke-width:2.27585;fill:#cccccc;fill-opacity:1" />
      <path
         d="m 48.810099,16.788944 2.048261,0.455169 1.661368,0.59172 1.342749,0.682754 1.024131,0.72827 0.773787,0.773788 0.568962,0.773788 0.364135,0.751029 0.227585,0.682754 0.09103,0.59172 0.04552,0.455169 -0.02276,0.29586 v 12.153018 l -0.113792,1.433783 -0.29586,1.251715 -0.477928,1.046889 -0.59172,0.864822 -0.682754,0.705512 -0.751029,0.568962 -0.796546,0.43241 -0.796546,0.318619 -0.751029,0.227584 -0.682754,0.15931 -0.59172,0.09103 -0.477928,0.04552 H 36.338462 l -1.570334,0.113793 -1.342749,0.318618 -1.137923,0.500686 -0.933097,0.614479 -0.751029,0.72827 -0.614478,0.796547 -0.455169,0.819304 -0.341377,0.842063 -0.227585,0.796546 -0.159309,0.728271 -0.09103,0.614479 -0.04552,0.477927 v 6.964089 h -5.075137 l -0.477927,-0.06827 -0.637237,-0.159309 -0.728271,-0.273102 -0.796546,-0.409652 -0.819305,-0.59172 -0.819304,-0.819305 -0.796546,-1.046889 -0.728271,-1.342749 -0.637237,-1.661368 -0.477928,-2.002744 -0.318618,-2.389639 -0.113792,-2.79929 0.13655,-2.776533 0.364136,-2.366879 0.546203,-1.979987 0.72827,-1.61585 0.819305,-1.297233 0.910338,-1.001372 0.955856,-0.751029 0.955855,-0.546203 0.910339,-0.364135 0.819304,-0.227585 0.728271,-0.113792 0.546203,-0.02276 h 0.364135 l 0.136551,0.02276 H 43.734962 V 28.691618 H 30.444021 l -0.02276,-6.258576 -0.04552,-0.842063 0.113792,-0.773788 0.250343,-0.705512 0.386894,-0.637237 0.568961,-0.59172 0.705513,-0.523445 0.864821,-0.455169 1.001372,-0.409652 1.160682,-0.341377 1.319991,-0.273102 1.456541,-0.227584 1.615851,-0.136551 1.752401,-0.09103 1.911711,-0.04552 2.890324,0.113793 z m -14.337831,4.506175 -0.523444,0.751029 -0.182068,0.933097 0.182068,0.933097 0.523444,0.773787 0.75103,0.500687 0.933097,0.204826 0.933096,-0.204826 0.75103,-0.500687 0.523444,-0.773787 0.182068,-0.933097 -0.182068,-0.933097 -0.523444,-0.751029 -0.75103,-0.500686 -0.933096,-0.204827 -0.933097,0.204827 z m 29.790825,8.989592 0.637237,0.13655 0.728271,0.273102 0.796546,0.409652 0.819305,0.614479 0.819304,0.796546 0.796546,1.069647 0.728271,1.34275 0.637237,1.661367 0.477928,2.002745 0.318618,2.36688 0.113792,2.79929 -0.13655,2.799291 -0.364136,2.36688 -0.546203,1.957228 -0.72827,1.61585 -0.819305,1.297233 -0.910338,1.02413 -0.955856,0.751029 -0.955855,0.546203 -0.910339,0.364136 -0.819304,0.204826 -0.728271,0.113792 -0.546203,0.04552 -0.364135,-0.02276 H 43.643928 v 1.866194 h 13.290941 l 0.02276,6.281335 0.04552,0.819304 -0.113792,0.773788 -0.250343,0.705512 -0.386894,0.659996 -0.568961,0.568961 -0.705513,0.546203 -0.864821,0.455169 -1.001372,0.386894 -1.160682,0.341377 -1.319991,0.29586 -1.456541,0.204826 -1.615851,0.159309 -1.752401,0.09103 -1.911711,0.02276 -2.890324,-0.09103 -2.435156,-0.318619 -2.048261,-0.455169 -1.661368,-0.568961 -1.342749,-0.682754 -1.024131,-0.751029 -0.773787,-0.773788 -0.568962,-0.773788 -0.364135,-0.751029 -0.227585,-0.682754 -0.09103,-0.568961 -0.04552,-0.455169 0.02276,-0.29586 v -12.15302 l 0.113792,-1.456542 0.29586,-1.228957 0.477928,-1.046889 0.59172,-0.864821 0.682754,-0.728271 0.751029,-0.546203 0.796546,-0.455169 0.796546,-0.318619 0.751029,-0.227584 0.682754,-0.136551 0.59172,-0.09103 0.477928,-0.04552 0.29586,-0.02276 h 13.290941 l 1.570334,-0.113793 1.342749,-0.318618 1.137923,-0.477928 0.933097,-0.637237 0.751029,-0.72827 0.614478,-0.796547 0.455169,-0.819304 0.341377,-0.819305 0.227585,-0.796546 0.159309,-0.728271 0.09103,-0.637237 0.04552,-0.477927 v -6.964089 h 4.756518 l 0.318619,0.02276 z m -14.724724,32.430806 -0.523444,0.751029 -0.182068,0.933097 0.182068,0.933097 0.523444,0.751029 0.75103,0.523445 0.933096,0.182068 0.933097,-0.182068 0.75103,-0.523445 0.523444,-0.751029 0.182068,-0.933097 -0.182068,-0.933097 -0.523444,-0.751029 -0.75103,-0.523445 -0.933097,-0.182067 -0.933096,0.182067 z"
         id="path962"
         style="stroke-width:2.27585;fill:#ffffff" />
    </g>
  </g>
</svg>
