<?xml version="1.0" encoding="UTF-8" standalone="no"?>
<svg
   id="Logos"
   viewBox="0 0 97.064029 84.730065"
   version="1.1"
   sodipodi:docname="gitkraken-icon.svg"
   width="97.064026"
   height="84.730064"
   inkscape:version="1.1.1 (c3084ef, 2021-09-22)"
   xmlns:inkscape="http://www.inkscape.org/namespaces/inkscape"
   xmlns:sodipodi="http://sodipodi.sourceforge.net/DTD/sodipodi-0.dtd"
   xmlns="http://www.w3.org/2000/svg"
   xmlns:svg="http://www.w3.org/2000/svg">
  <sodipodi:namedview
     id="namedview883"
     pagecolor="#ffffff"
     bordercolor="#999999"
     borderopacity="1"
     inkscape:pageshadow="0"
     inkscape:pageopacity="0"
     inkscape:pagecheckerboard="0"
     showgrid="false"
     inkscape:zoom="2.8746762"
     inkscape:cx="68.355525"
     inkscape:cy="102.44632"
     inkscape:window-width="1720"
     inkscape:window-height="1387"
     inkscape:window-x="0"
     inkscape:window-y="25"
     inkscape:window-maximized="0"
     inkscape:current-layer="Logos" />
  <defs
     id="defs826">
    <style
       id="style824">.cls-1{fill:#179287;}.cls-2{fill:#f9eec0;}.cls-3{fill:#fff;}</style>
  </defs>
  <path
     class="cls-1"
     d="m 93.971546,19.110061 a 1.94,1.94 0 0 0 -3.76,0.68 2.08,2.08 0 0 0 0.12,0.68 44.68,44.68 0 0 1 -35.95,60.04 v -20.9 a 30,30 0 0 0 3.88,-1 v 17.48 a 41.07,41.07 0 0 0 10.12,-75.84999951 1.94,1.94 0 0 0 -2.67,0.85000001 2,2 0 0 0 -0.2,0.86 1.92,1.92 0 0 0 1,1.69 37.2,37.2 0 0 1 -4.36,67.1599995 v -15.54 a 6,6 0 0 0 4.2,-5.65 5.87,5.87 0 0 0 -2.93,-5.1 c 1.39,-13.4 7.5,-9.87 7.5,-14.13 v -2.5 c 0,-6.4 -14.81,-27.24999951 -21.74,-27.75999951 h -0.64 -0.65 c -6.93,0.51 -21.75,21.35999951 -21.75,27.75999951 v 2.5 c 0,4.26 6.11,0.73 7.5,14.13 a 5.86,5.86 0 0 0 -2.91,5.14 6,6 0 0 0 4.17,5.61 v 15.54 a 37.2,37.2 0 0 1 -4.36,-67.1599995 1.94,1.94 0 0 0 -0.95,-3.640000008534 2,2 0 0 0 -0.93,0.239999998534 41.08,41.08 0 0 0 10.13,75.84999951 v -17.52 a 30,30 0 0 0 3.88,1 v 20.94 a 44.68,44.68 0 0 1 -35.9399996,-60 2,2 0 0 0 -1.06,-2.47 2.06,2.06 0 0 0 -0.76,-0.15 1.94,1.94 0 0 0 -1.82,1.26 48.57,48.57 0 0 0 43.4699996,65.58 v -24.62 c 0.69,0 2,0.07 2,0.07 0,0 1.28,0 2,-0.07 v 24.58 a 48.57,48.57 0 0 0 43.41,-65.58 z m -36.48,27.68 a 4,4 0 0 1 5.64,0 4,4 0 0 1 -2.82,6.81 4,4 0 0 1 -2.82,-6.81 z m -17.91,5.65 a 4,4 0 1 1 1.16,-2.83 4,4 0 0 1 -1.16,2.83 z"
     id="path828" />
</svg>
