<?xml version="1.0" encoding="UTF-8" standalone="no"?><svg xmlns="http://www.w3.org/2000/svg" xmlns:xlink="http://www.w3.org/1999/xlink" contentStyleType="text/css" height="531px" preserveAspectRatio="none" style="width:778px;height:531px;background:#FFFFFF;" version="1.1" viewBox="0 0 778 531" width="778px" zoomAndPan="magnify"><defs/><g><line style="stroke:#181818;stroke-width:0.5;stroke-dasharray:5.0,5.0;" x1="32" x2="32" y1="81.2969" y2="450.8906"/><line style="stroke:#181818;stroke-width:0.5;stroke-dasharray:5.0,5.0;" x1="107.5" x2="107.5" y1="81.2969" y2="450.8906"/><line style="stroke:#181818;stroke-width:0.5;stroke-dasharray:5.0,5.0;" x1="190.5" x2="190.5" y1="81.2969" y2="450.8906"/><line style="stroke:#181818;stroke-width:0.5;stroke-dasharray:5.0,5.0;" x1="292.5" x2="292.5" y1="81.2969" y2="450.8906"/><line style="stroke:#181818;stroke-width:0.5;stroke-dasharray:5.0,5.0;" x1="411.5" x2="411.5" y1="81.2969" y2="450.8906"/><line style="stroke:#181818;stroke-width:0.5;stroke-dasharray:5.0,5.0;" x1="523.5" x2="523.5" y1="81.2969" y2="450.8906"/><line style="stroke:#181818;stroke-width:0.5;stroke-dasharray:5.0,5.0;" x1="629.5" x2="629.5" y1="81.2969" y2="450.8906"/><line style="stroke:#181818;stroke-width:0.5;stroke-dasharray:5.0,5.0;" x1="730.5" x2="730.5" y1="81.2969" y2="450.8906"/><text fill="#000000" font-family="sans-serif" font-size="14" lengthAdjust="spacing" textLength="49" x="5" y="77.9951">Person</text><ellipse cx="32.5" cy="13.5" fill="#E2E2F0" rx="8" ry="8" style="stroke:#181818;stroke-width:0.5;"/><path d="M32.5,21.5 L32.5,48.5 M19.5,29.5 L45.5,29.5 M32.5,48.5 L19.5,63.5 M32.5,48.5 L45.5,63.5 " fill="none" style="stroke:#181818;stroke-width:0.5;"/><text fill="#000000" font-family="sans-serif" font-size="14" lengthAdjust="spacing" textLength="49" x="5" y="462.8857">Person</text><ellipse cx="32.5" cy="474.6875" fill="#E2E2F0" rx="8" ry="8" style="stroke:#181818;stroke-width:0.5;"/><path d="M32.5,482.6875 L32.5,509.6875 M19.5,490.6875 L45.5,490.6875 M32.5,509.6875 L19.5,524.6875 M32.5,509.6875 L45.5,524.6875 " fill="none" style="stroke:#181818;stroke-width:0.5;"/><rect fill="#E2E2F0" height="30.2969" rx="2.5" ry="2.5" style="stroke:#181818;stroke-width:0.5;" width="72" x="71.5" y="50"/><text fill="#000000" font-family="sans-serif" font-size="14" lengthAdjust="spacing" textLength="58" x="78.5" y="69.9951">Lampen</text><rect fill="#E2E2F0" height="30.2969" rx="2.5" ry="2.5" style="stroke:#181818;stroke-width:0.5;" width="72" x="71.5" y="449.8906"/><text fill="#000000" font-family="sans-serif" font-size="14" lengthAdjust="spacing" textLength="58" x="78.5" y="469.8857">Lampen</text><rect fill="#E2E2F0" height="30.2969" rx="2.5" ry="2.5" style="stroke:#181818;stroke-width:0.5;" width="74" x="153.5" y="50"/><text fill="#000000" font-family="sans-serif" font-size="14" lengthAdjust="spacing" textLength="60" x="160.5" y="69.9951">Tastatur</text><rect fill="#E2E2F0" height="30.2969" rx="2.5" ry="2.5" style="stroke:#181818;stroke-width:0.5;" width="74" x="153.5" y="449.8906"/><text fill="#000000" font-family="sans-serif" font-size="14" lengthAdjust="spacing" textLength="60" x="160.5" y="469.8857">Tastatur</text><rect fill="#E2E2F0" height="30.2969" rx="2.5" ry="2.5" style="stroke:#181818;stroke-width:0.5;" width="110" x="237.5" y="50"/><text fill="#000000" font-family="sans-serif" font-size="14" lengthAdjust="spacing" textLength="96" x="244.5" y="69.9951">Steckerbrett</text><rect fill="#E2E2F0" height="30.2969" rx="2.5" ry="2.5" style="stroke:#181818;stroke-width:0.5;" width="110" x="237.5" y="449.8906"/><text fill="#000000" font-family="sans-serif" font-size="14" lengthAdjust="spacing" textLength="96" x="244.5" y="469.8857">Steckerbrett</text><text fill="#000000" font-family="sans-serif" font-size="14" lengthAdjust="spacing" textLength="102" x="357.5" y="77.9951">Rotors Rechts</text><ellipse cx="411.5" cy="49" fill="#E2E2F0" rx="12" ry="12" style="stroke:#181818;stroke-width:0.5;"/><polygon fill="#181818" points="407.5,37,413.5,32,411.5,37,413.5,42,407.5,37" style="stroke:#181818;stroke-width:1.0;"/><text fill="#000000" font-family="sans-serif" font-size="14" lengthAdjust="spacing" textLength="102" x="357.5" y="462.8857">Rotors Rechts</text><ellipse cx="411.5" cy="482.1875" fill="#E2E2F0" rx="12" ry="12" style="stroke:#181818;stroke-width:0.5;"/><polygon fill="#181818" points="407.5,470.1875,413.5,465.1875,411.5,470.1875,413.5,475.1875,407.5,470.1875" style="stroke:#181818;stroke-width:1.0;"/><text fill="#000000" font-family="sans-serif" font-size="14" lengthAdjust="spacing" textLength="91" x="475.5" y="77.9951">Rotors Mitte</text><ellipse cx="524" cy="49" fill="#E2E2F0" rx="12" ry="12" style="stroke:#181818;stroke-width:0.5;"/><polygon fill="#181818" points="520,37,526,32,524,37,526,42,520,37" style="stroke:#181818;stroke-width:1.0;"/><text fill="#000000" font-family="sans-serif" font-size="14" lengthAdjust="spacing" textLength="91" x="475.5" y="462.8857">Rotors Mitte</text><ellipse cx="524" cy="482.1875" fill="#E2E2F0" rx="12" ry="12" style="stroke:#181818;stroke-width:0.5;"/><polygon fill="#181818" points="520,470.1875,526,465.1875,524,470.1875,526,475.1875,520,470.1875" style="stroke:#181818;stroke-width:1.0;"/><text fill="#000000" font-family="sans-serif" font-size="14" lengthAdjust="spacing" textLength="89" x="582.5" y="77.9951">Rotors Links</text><ellipse cx="630" cy="49" fill="#E2E2F0" rx="12" ry="12" style="stroke:#181818;stroke-width:0.5;"/><polygon fill="#181818" points="626,37,632,32,630,37,632,42,626,37" style="stroke:#181818;stroke-width:1.0;"/><text fill="#000000" font-family="sans-serif" font-size="14" lengthAdjust="spacing" textLength="89" x="582.5" y="462.8857">Rotors Links</text><ellipse cx="630" cy="482.1875" fill="#E2E2F0" rx="12" ry="12" style="stroke:#181818;stroke-width:0.5;"/><polygon fill="#181818" points="626,470.1875,632,465.1875,630,470.1875,632,475.1875,626,470.1875" style="stroke:#181818;stroke-width:1.0;"/><rect fill="#E2E2F0" height="30.2969" rx="2.5" ry="2.5" style="stroke:#181818;stroke-width:0.5;" width="83" x="689.5" y="50"/><text fill="#000000" font-family="sans-serif" font-size="14" lengthAdjust="spacing" textLength="69" x="696.5" y="69.9951">Reflektor</text><rect fill="#E2E2F0" height="30.2969" rx="2.5" ry="2.5" style="stroke:#181818;stroke-width:0.5;" width="83" x="689.5" y="449.8906"/><text fill="#000000" font-family="sans-serif" font-size="14" lengthAdjust="spacing" textLength="69" x="696.5" y="469.8857">Reflektor</text><polygon fill="#181818" points="178.5,108.4297,188.5,112.4297,178.5,116.4297,182.5,112.4297" style="stroke:#181818;stroke-width:1.0;"/><line style="stroke:#181818;stroke-width:1.0;" x1="32.5" x2="184.5" y1="112.4297" y2="112.4297"/><text fill="#000000" font-family="sans-serif" font-size="13" lengthAdjust="spacing" textLength="59" x="39.5" y="107.3638">Eintippen</text><polygon fill="#181818" points="280.5,137.5625,290.5,141.5625,280.5,145.5625,284.5,141.5625" style="stroke:#181818;stroke-width:1.0;"/><line style="stroke:#181818;stroke-width:1.0;" x1="190.5" x2="286.5" y1="141.5625" y2="141.5625"/><text fill="#000000" font-family="sans-serif" font-size="13" lengthAdjust="spacing" textLength="77" x="197.5" y="136.4966">Weiterleiten</text><polygon fill="#181818" points="399.5,166.6953,409.5,170.6953,399.5,174.6953,403.5,170.6953" style="stroke:#181818;stroke-width:1.0;"/><line style="stroke:#181818;stroke-width:1.0;" x1="292.5" x2="405.5" y1="170.6953" y2="170.6953"/><text fill="#000000" font-family="sans-serif" font-size="13" lengthAdjust="spacing" textLength="76" x="299.5" y="165.6294">Vermischen</text><polygon fill="#181818" points="512,195.8281,522,199.8281,512,203.8281,516,199.8281" style="stroke:#181818;stroke-width:1.0;"/><line style="stroke:#181818;stroke-width:1.0;" x1="411.5" x2="518" y1="199.8281" y2="199.8281"/><text fill="#000000" font-family="sans-serif" font-size="13" lengthAdjust="spacing" textLength="76" x="418.5" y="194.7622">Vermischen</text><polygon fill="#181818" points="618,224.9609,628,228.9609,618,232.9609,622,228.9609" style="stroke:#181818;stroke-width:1.0;"/><line style="stroke:#181818;stroke-width:1.0;" x1="524" x2="624" y1="228.9609" y2="228.9609"/><text fill="#000000" font-family="sans-serif" font-size="13" lengthAdjust="spacing" textLength="76" x="531" y="223.895">Vermischen</text><polygon fill="#181818" points="719,254.0938,729,258.0938,719,262.0938,723,258.0938" style="stroke:#181818;stroke-width:1.0;"/><line style="stroke:#181818;stroke-width:1.0;" x1="630" x2="725" y1="258.0938" y2="258.0938"/><text fill="#000000" font-family="sans-serif" font-size="13" lengthAdjust="spacing" textLength="76" x="637" y="253.0278">Vermischen</text><polygon fill="#181818" points="641,283.2266,631,287.2266,641,291.2266,637,287.2266" style="stroke:#181818;stroke-width:1.0;"/><line style="stroke:#181818;stroke-width:1.0;" x1="635" x2="730" y1="287.2266" y2="287.2266"/><text fill="#000000" font-family="sans-serif" font-size="13" lengthAdjust="spacing" textLength="77" x="647" y="282.1606">Reflektieren</text><polygon fill="#181818" points="535,312.3594,525,316.3594,535,320.3594,531,316.3594" style="stroke:#181818;stroke-width:1.0;"/><line style="stroke:#181818;stroke-width:1.0;" x1="529" x2="629" y1="316.3594" y2="316.3594"/><text fill="#000000" font-family="sans-serif" font-size="13" lengthAdjust="spacing" textLength="76" x="541" y="311.2935">Vermischen</text><polygon fill="#181818" points="422.5,341.4922,412.5,345.4922,422.5,349.4922,418.5,345.4922" style="stroke:#181818;stroke-width:1.0;"/><line style="stroke:#181818;stroke-width:1.0;" x1="416.5" x2="523" y1="345.4922" y2="345.4922"/><text fill="#000000" font-family="sans-serif" font-size="13" lengthAdjust="spacing" textLength="76" x="428.5" y="340.4263">Vermischen</text><polygon fill="#181818" points="303.5,370.625,293.5,374.625,303.5,378.625,299.5,374.625" style="stroke:#181818;stroke-width:1.0;"/><line style="stroke:#181818;stroke-width:1.0;" x1="297.5" x2="410.5" y1="374.625" y2="374.625"/><text fill="#000000" font-family="sans-serif" font-size="13" lengthAdjust="spacing" textLength="76" x="309.5" y="369.5591">Vermischen</text><polygon fill="#181818" points="118.5,399.7578,108.5,403.7578,118.5,407.7578,114.5,403.7578" style="stroke:#181818;stroke-width:1.0;"/><line style="stroke:#181818;stroke-width:1.0;" x1="112.5" x2="291.5" y1="403.7578" y2="403.7578"/><text fill="#000000" font-family="sans-serif" font-size="13" lengthAdjust="spacing" textLength="59" x="124.5" y="398.6919">Anzeigen</text><polygon fill="#181818" points="43.5,428.8906,33.5,432.8906,43.5,436.8906,39.5,432.8906" style="stroke:#181818;stroke-width:1.0;"/><line style="stroke:#181818;stroke-width:1.0;" x1="37.5" x2="106.5" y1="432.8906" y2="432.8906"/><text fill="#000000" font-family="sans-serif" font-size="13" lengthAdjust="spacing" textLength="51" x="49.5" y="427.8247">Ablesen</text><!--MD5=[6e81ad216798c1eecbae606c4a05b084]
@startuml
actor Person as 0
participant Lampen as 1
participant Tastatur as 2
participant Steckerbrett as 3
control "Rotors Rechts" as 4
control "Rotors Mitte" as 5
control "Rotors Links" as 6
participant Reflektor as 7

0 -> 2 : Eintippen
2 -> 3 : Weiterleiten
3 -> 4 : Vermischen
4 -> 5 : Vermischen
5 -> 6 : Vermischen
6 -> 7 : Vermischen
7 -> 6 : Reflektieren
6 -> 5 : Vermischen
5 -> 4 : Vermischen
4 -> 3 : Vermischen
3 -> 1 : Anzeigen
1 -> 0 : Ablesen
@enduml

PlantUML version 1.2022.3beta2(Unknown compile time)
(GPL source distribution)
Java Runtime: Java(TM) SE Runtime Environment
JVM: Java HotSpot(TM) 64-Bit Server VM
Default Encoding: UTF-8
Language: en
Country: US
--></g></svg>