<?xml version="1.0" encoding="UTF-8" standalone="no"?><svg xmlns="http://www.w3.org/2000/svg" xmlns:xlink="http://www.w3.org/1999/xlink" contentStyleType="text/css" height="287px" preserveAspectRatio="none" style="width:594px;height:287px;background:#FFFFFF;" version="1.1" viewBox="0 0 594 287" width="594px" zoomAndPan="magnify"><defs/><g><rect fill="#DA6D9C" height="68.8906" rx="12.5" ry="12.5" style="stroke:#181818;stroke-width:1.5;" width="140" x="10" y="108.168"/><text fill="#000000" font-family="sans-serif" font-size="14" lengthAdjust="spacing" textLength="34" x="20" y="131.1631">Hevs</text><text fill="#000000" font-family="sans-serif" font-size="14" lengthAdjust="spacing" textLength="112" x="24" y="147.46">Ingenieurschule</text><text fill="#000000" font-family="sans-serif" font-size="14" lengthAdjust="spacing" textLength="45" x="24" y="163.7568">Sitten</text><rect fill="#F5C400" height="36.2969" rx="12.5" ry="12.5" style="stroke:#181818;stroke-width:1.5;" width="129" x="200" y="20"/><text fill="#000000" font-family="sans-serif" font-size="14" lengthAdjust="spacing" textLength="109" x="210" y="42.9951">Systemtechnik</text><text fill="#000000" font-family="sans-serif" font-size="14" lengthAdjust="spacing" textLength="71" x="382" y="24.6982">Infotronic</text><path d="M329,38.1484 L339,38.1484 C354,38.1484 354,19.8516 369,19.8516 L379,19.8516 " fill="none" style="stroke:#181818;stroke-width:1.0;"/><text fill="#000000" font-family="sans-serif" font-size="14" lengthAdjust="spacing" textLength="132" x="382" y="42.9951">Power and Control</text><path d="M329,38.1484 L339,38.1484 C354,38.1484 354,38.1484 369,38.1484 L379,38.1484 " fill="none" style="stroke:#181818;stroke-width:1.0;"/><text fill="#000000" font-family="sans-serif" font-size="14" lengthAdjust="spacing" textLength="141" x="382" y="61.292">Material and Design</text><path d="M329,38.1484 L339,38.1484 C354,38.1484 354,56.4453 369,56.4453 L379,56.4453 " fill="none" style="stroke:#181818;stroke-width:1.0;"/><path d="M150,142.6133 L160,142.6133 C175,142.6133 175,38.1484 190,38.1484 L200,38.1484 " fill="none" style="stroke:#181818;stroke-width:1.0;"/><rect fill="#F5C400" height="52.5938" rx="12.5" ry="12.5" style="stroke:#181818;stroke-width:1.5;" width="202" x="200" y="76.2969"/><text fill="#000000" font-family="sans-serif" font-size="14" lengthAdjust="spacing" textLength="122" x="210" y="99.292">Informations und</text><text fill="#000000" font-family="sans-serif" font-size="14" lengthAdjust="spacing" textLength="182" x="210" y="115.5889">Kommunikationssysteme</text><text fill="#000000" font-family="sans-serif" font-size="14" lengthAdjust="spacing" textLength="124" x="455" y="107.4404">Data Engineering</text><path d="M402,102.5938 L412,102.5938 C427,102.5938 427,102.5938 442,102.5938 L452,102.5938 " fill="none" style="stroke:#181818;stroke-width:1.0;"/><path d="M150,142.6133 L160,142.6133 C175,142.6133 175,102.5938 190,102.5938 L200,102.5938 " fill="none" style="stroke:#181818;stroke-width:1.0;"/><rect fill="#F5C400" height="52.5938" rx="12.5" ry="12.5" style="stroke:#181818;stroke-width:1.5;" width="129" x="200" y="148.8906"/><text fill="#000000" font-family="sans-serif" font-size="14" lengthAdjust="spacing" textLength="85" x="210" y="171.8857">Energie und</text><text fill="#000000" font-family="sans-serif" font-size="14" lengthAdjust="spacing" textLength="109" x="210" y="188.1826">Umwelttechnik</text><text fill="#000000" font-family="sans-serif" font-size="14" lengthAdjust="spacing" textLength="157" x="382" y="170.8857">Erneuerbare Energien</text><path d="M329,175.1875 L339,175.1875 C354,175.1875 354,166.0391 369,166.0391 L379,166.0391 " fill="none" style="stroke:#181818;stroke-width:1.0;"/><text fill="#000000" font-family="sans-serif" font-size="14" lengthAdjust="spacing" textLength="78" x="382" y="189.1826">Smart Grid</text><path d="M329,175.1875 L339,175.1875 C354,175.1875 354,184.3359 369,184.3359 L379,184.3359 " fill="none" style="stroke:#181818;stroke-width:1.0;"/><path d="M150,142.6133 L160,142.6133 C175,142.6133 175,175.1875 190,175.1875 L200,175.1875 " fill="none" style="stroke:#181818;stroke-width:1.0;"/><rect fill="#F5C400" height="36.2969" rx="12.5" ry="12.5" style="stroke:#181818;stroke-width:1.5;" width="146" x="200" y="221.4844"/><text fill="#000000" font-family="sans-serif" font-size="14" lengthAdjust="spacing" textLength="126" x="210" y="244.4795">Life Technologies</text><text fill="#000000" font-family="sans-serif" font-size="14" lengthAdjust="spacing" textLength="183" x="399" y="218.0342">Lebensmitteltechnologie</text><path d="M346,239.6328 L356,239.6328 C371,239.6328 371,213.1875 386,213.1875 L396,213.1875 " fill="none" style="stroke:#181818;stroke-width:1.0;"/><text fill="#000000" font-family="sans-serif" font-size="14" lengthAdjust="spacing" textLength="109" x="399" y="236.3311">Biotechnologie</text><path d="M346,239.6328 L356,239.6328 C371,239.6328 371,231.4844 386,231.4844 L396,231.4844 " fill="none" style="stroke:#181818;stroke-width:1.0;"/><text fill="#000000" font-family="sans-serif" font-size="14" lengthAdjust="spacing" textLength="113" x="399" y="254.6279">Analytische und</text><text fill="#000000" font-family="sans-serif" font-size="14" lengthAdjust="spacing" textLength="163" x="399" y="270.9248">Bioanalytische Chemie</text><path d="M346,239.6328 L356,239.6328 C371,239.6328 371,257.9297 386,257.9297 L396,257.9297 " fill="none" style="stroke:#181818;stroke-width:1.0;"/><path d="M150,142.6133 L160,142.6133 C175,142.6133 175,239.6328 190,239.6328 L200,239.6328 " fill="none" style="stroke:#181818;stroke-width:1.0;"/><!--MD5=[040d7963d28fa70c6ef8ee8d2ef73998]
@startmindmap

<style>
mindmapDiagram {
  .pink {
    BackgroundColor #da6d9c
  }
  .yellow {
    BackgroundColor #f5c400
  }
}
</style>

*        Hevs \n Ingenieurschule \n Sitten <<pink>>

** Systemtechnik<<yellow>>
***_ Infotronic
***_ Power and Control
***_ Material and Design


** Informations und \nKommunikationssysteme<<yellow>>
***_ Data Engineering



** Energie und \nUmwelttechnik<<yellow>>
***_ Erneuerbare Energien
***_ Smart Grid

** Life Technologies<<yellow>>
***_ Lebensmitteltechnologie
***_ Biotechnologie
***_ Analytische und \nBioanalytische Chemie

left side

@endmindmap

PlantUML version 1.2022.3beta2(Unknown compile time)
(GPL source distribution)
Java Runtime: Java(TM) SE Runtime Environment
JVM: Java HotSpot(TM) 64-Bit Server VM
Default Encoding: UTF-8
Language: en
Country: US
--></g></svg>