<svg xmlns="http://www.w3.org/2000/svg" xmlns:xlink="http://www.w3.org/1999/xlink" viewBox="0 0 439.81 440" preserveAspectRatio="xMidYMid meet">
  <defs>
    <linearGradient id="Unbenannter_Verlauf_7" data-name="Unbenannter Verlauf 7" x1="230.7" y1="72.66" x2="230.7" y2="129.04" gradientUnits="userSpaceOnUse">
      <stop offset="0.41" stop-color="#fff" stop-opacity="0"/>
      <stop offset="0.51" stop-color="#fff" stop-opacity="0.15"/>
      <stop offset="0.74" stop-color="#fff" stop-opacity="0.53"/>
      <stop offset="1" stop-color="#fff"/>
    </linearGradient>
    <linearGradient id="Unbenannter_Verlauf_36" data-name="Unbenannter Verlauf 36" x1="194.66" y1="404.63" x2="266.01" y2="281.06" gradientUnits="userSpaceOnUse">
      <stop offset="0.06" stop-color="#fff" stop-opacity="0"/>
      <stop offset="0.15" stop-color="#fff" stop-opacity="0.03"/>
      <stop offset="0.27" stop-color="#fff" stop-opacity="0.1"/>
      <stop offset="0.41" stop-color="#fff" stop-opacity="0.22"/>
      <stop offset="0.56" stop-color="#fff" stop-opacity="0.38"/>
      <stop offset="0.73" stop-color="#fff" stop-opacity="0.6"/>
      <stop offset="0.91" stop-color="#fff" stop-opacity="0.85"/>
      <stop offset="1" stop-color="#fff"/>
    </linearGradient>
    <linearGradient id="Unbenannter_Verlauf_33" data-name="Unbenannter Verlauf 33" x1="109.53" y1="255.32" x2="351.86" y2="255.32" gradientUnits="userSpaceOnUse">
      <stop offset="0" stop-color="#fff" stop-opacity="0"/>
      <stop offset="0.09" stop-color="#fff" stop-opacity="0.01"/>
      <stop offset="0.17" stop-color="#fff" stop-opacity="0.06"/>
      <stop offset="0.25" stop-color="#fff" stop-opacity="0.13"/>
      <stop offset="0.32" stop-color="#fff" stop-opacity="0.22"/>
      <stop offset="0.4" stop-color="#fff" stop-opacity="0.35"/>
      <stop offset="0.47" stop-color="#fff" stop-opacity="0.51"/>
      <stop offset="0.54" stop-color="#fff" stop-opacity="0.69"/>
      <stop offset="0.6" stop-color="#fff" stop-opacity="0.9"/>
      <stop offset="0.63" stop-color="#fff"/>
      <stop offset="1" stop-color="#fff" stop-opacity="0.04"/>
    </linearGradient>
    <linearGradient id="Unbenannter_Verlauf_3" data-name="Unbenannter Verlauf 3" x1="128.68" y1="198.52" x2="334.34" y2="198.52" gradientUnits="userSpaceOnUse">
      <stop offset="0.1" stop-color="#00caf4" stop-opacity="0"/>
      <stop offset="0.23" stop-color="#03c9f3" stop-opacity="0.01"/>
      <stop offset="0.34" stop-color="#0cc7f1" stop-opacity="0.06"/>
      <stop offset="0.45" stop-color="#1ac4ee" stop-opacity="0.14"/>
      <stop offset="0.56" stop-color="#2fbfe9" stop-opacity="0.25"/>
      <stop offset="0.6" stop-color="#39bde7" stop-opacity="0.3"/>
      <stop offset="0.8" stop-color="#39bde7" stop-opacity="0.3"/>
      <stop offset="1" stop-color="#00caf4" stop-opacity="0.1"/>
    </linearGradient>
    <linearGradient id="Unbenannter_Verlauf_3-2" x1="130.51" y1="197.3" x2="332.5" y2="197.3" xlink:href="#Unbenannter_Verlauf_3"/>
    <linearGradient id="Unbenannter_Verlauf_29" data-name="Unbenannter Verlauf 29" x1="144.15" y1="179.81" x2="318.86" y2="179.81" gradientUnits="userSpaceOnUse">
      <stop offset="0.16" stop-color="#fff" stop-opacity="0"/>
      <stop offset="0.32" stop-color="#fff" stop-opacity="0.15"/>
      <stop offset="0.69" stop-color="#fff" stop-opacity="0.53"/>
      <stop offset="0.76" stop-color="#fff" stop-opacity="0.6"/>
      <stop offset="1" stop-color="#fff" stop-opacity="0"/>
    </linearGradient>
    <linearGradient id="Unbenannter_Verlauf_8" data-name="Unbenannter Verlauf 8" x1="231.44" y1="67.87" x2="231.44" y2="186.49" gradientUnits="userSpaceOnUse">
      <stop offset="0.28" stop-color="#fff" stop-opacity="0"/>
      <stop offset="0.39" stop-color="#fff" stop-opacity="0.01"/>
      <stop offset="0.48" stop-color="#fff" stop-opacity="0.06"/>
      <stop offset="0.57" stop-color="#fff" stop-opacity="0.13"/>
      <stop offset="0.65" stop-color="#fff" stop-opacity="0.22"/>
      <stop offset="0.73" stop-color="#fff" stop-opacity="0.35"/>
      <stop offset="0.81" stop-color="#fff" stop-opacity="0.51"/>
      <stop offset="0.89" stop-color="#fff" stop-opacity="0.69"/>
      <stop offset="0.97" stop-color="#fff" stop-opacity="0.9"/>
      <stop offset="1" stop-color="#fff"/>
    </linearGradient>
    <linearGradient id="Unbenannter_Verlauf_3-3" x1="166.76" y1="167.32" x2="297.49" y2="167.32" xlink:href="#Unbenannter_Verlauf_3"/>
    <linearGradient id="Unbenannter_Verlauf_2" data-name="Unbenannter Verlauf 2" x1="231.47" y1="186.1" x2="231.47" y2="70.87" gradientUnits="userSpaceOnUse">
      <stop offset="0" stop-color="#fff" stop-opacity="0"/>
      <stop offset="0.17" stop-color="#fff" stop-opacity="0.15"/>
      <stop offset="0.55" stop-color="#fff" stop-opacity="0.53"/>
      <stop offset="1" stop-color="#fff"/>
    </linearGradient>
    <linearGradient id="Unbenannter_Verlauf_2-2" x1="185.88" y1="136.74" x2="185.88" y2="68.33" xlink:href="#Unbenannter_Verlauf_2"/>
    <linearGradient id="Unbenannter_Verlauf_3-4" x1="267.05" y1="180.81" x2="267.05" y2="110.77" xlink:href="#Unbenannter_Verlauf_3"/>
    <linearGradient id="Unbenannter_Verlauf_3-5" x1="195.65" y1="180.81" x2="195.65" y2="110.77" xlink:href="#Unbenannter_Verlauf_3"/>
    <linearGradient id="Unbenannter_Verlauf_4" data-name="Unbenannter Verlauf 4" x1="159.03" y1="176.88" x2="303.85" y2="176.88" gradientUnits="userSpaceOnUse">
      <stop offset="0.1" stop-color="#00caf4" stop-opacity="0"/>
      <stop offset="0.19" stop-color="#03c9f3" stop-opacity="0.01"/>
      <stop offset="0.27" stop-color="#0cc7f1" stop-opacity="0.06"/>
      <stop offset="0.34" stop-color="#1ac4ee" stop-opacity="0.14"/>
      <stop offset="0.41" stop-color="#2fbfe9" stop-opacity="0.25"/>
      <stop offset="0.44" stop-color="#39bde7" stop-opacity="0.3"/>
      <stop offset="0.55" stop-color="#39bde7" stop-opacity="0.37"/>
      <stop offset="0.75" stop-color="#39bde7" stop-opacity="0.55"/>
      <stop offset="0.8" stop-color="#39bde7" stop-opacity="0.6"/>
      <stop offset="1" stop-color="#00caf4" stop-opacity="0.1"/>
    </linearGradient>
    <linearGradient id="Unbenannter_Verlauf_3-6" x1="121.16" y1="91.37" x2="340.23" y2="91.37" xlink:href="#Unbenannter_Verlauf_3"/>
    <linearGradient id="Unbenannter_Verlauf_3-7" x1="121.16" y1="89.46" x2="340.23" y2="89.46" xlink:href="#Unbenannter_Verlauf_3"/>
    <linearGradient id="Unbenannter_Verlauf_8-2" x1="130.15" y1="68.58" x2="330.46" y2="68.58" xlink:href="#Unbenannter_Verlauf_8"/>
    <linearGradient id="Unbenannter_Verlauf_10" data-name="Unbenannter Verlauf 10" x1="145.77" y1="68.63" x2="314.87" y2="68.63" gradientUnits="userSpaceOnUse">
      <stop offset="0" stop-color="#fff" stop-opacity="0.4"/>
      <stop offset="0.21" stop-color="#fff" stop-opacity="0.65"/>
      <stop offset="0.48" stop-color="#fff"/>
      <stop offset="0.58" stop-color="#fff" stop-opacity="0.99"/>
      <stop offset="0.66" stop-color="#fff" stop-opacity="0.94"/>
      <stop offset="0.74" stop-color="#fff" stop-opacity="0.87"/>
      <stop offset="0.82" stop-color="#fff" stop-opacity="0.78"/>
      <stop offset="0.89" stop-color="#fff" stop-opacity="0.65"/>
      <stop offset="0.96" stop-color="#fff" stop-opacity="0.49"/>
      <stop offset="1" stop-color="#fff" stop-opacity="0.4"/>
    </linearGradient>
  </defs>
  <title>Zeichenfläche 1 Kopie 7</title>
  <g style="isolation: isolate">
    <g id="Ebene_2" data-name="Ebene 2">
      <path d="M404.5,225.05V214.24a36.67,36.67,0,0,1,10.74-25.93l8-8A36.64,36.64,0,0,0,434,154.36V100.05" fill="none" stroke="#184772" stroke-linecap="round" stroke-miterlimit="10" stroke-width="3"/>
      <circle cx="434" cy="99.05" r="4.31" fill="#002d4f" stroke="#184772" stroke-linecap="round" stroke-miterlimit="10" stroke-width="3"/>
      <path d="M369,273.05V177.43a38.18,38.18,0,0,0-11.17-27l-26.91-26.9a38.16,38.16,0,0,1-11.17-27v-56" fill="none" stroke="#184772" stroke-linecap="round" stroke-miterlimit="10" stroke-width="3"/>
      <path d="M294.5,348.55,392.06,251a38.26,38.26,0,0,0,11.19-27V149.88a38.25,38.25,0,0,0-11.19-27L364.88,95.68a38.22,38.22,0,0,1-11.2-27v-33" fill="none" stroke="#184772" stroke-linecap="round" stroke-miterlimit="10" stroke-width="6"/>
      <path d="M145.5,127.05v25.78a28.28,28.28,0,0,1-8.29,20l-32.92,32.92A38.56,38.56,0,0,0,93,233v12.53" fill="none" stroke="#184772" stroke-linecap="round" stroke-miterlimit="10" stroke-width="3"/>
      <path d="M104.33,285.39l-47.5-47.51a31.57,31.57,0,0,1-9.25-22.31V189.39" fill="none" stroke="#184772" stroke-linecap="round" stroke-miterlimit="10" stroke-width="3"/>
      <circle cx="47.33" cy="185.39" r="4.31" fill="#002d4f" stroke="#184772" stroke-linecap="round" stroke-miterlimit="10" stroke-width="3"/>
      <path d="M174.25,354.8l-68-68A46.82,46.82,0,0,1,92.5,253.66V168.59a46.82,46.82,0,0,1,13.71-33.11l13.33-13.32a46.82,46.82,0,0,0,13.71-33.11v-48" fill="none" stroke="#184772" stroke-linecap="round" stroke-miterlimit="10" stroke-width="6"/>
      <line x1="91" y1="180.55" x2="91" y2="83.55" fill="none" stroke="#184772" stroke-linecap="round" stroke-miterlimit="10" stroke-width="3"/>
      <circle cx="91" cy="82.55" r="4.31" fill="#002d4f" stroke="#184772" stroke-linecap="round" stroke-miterlimit="10" stroke-width="3"/>
      <g>
        <ellipse cx="230.37" cy="400.05" rx="91.15" ry="21.68" fill="#09233c"/>
        <ellipse cx="346.73" cy="390.1" rx="20.1" ry="6.07" fill="#09233c"/>
        <ellipse cx="110.64" cy="393.84" rx="21.57" ry="6.52" fill="#09233c"/>
      </g>
      <path d="M347,388.05V351.31a32,32,0,0,1,9.37-22.63l26.76-26.75a32,32,0,0,0,9.37-22.64V176.55a32,32,0,0,0-9.37-22.63h0a32,32,0,0,1-9.37-22.63V83.55" fill="none" stroke="#ffc600" stroke-linecap="round" stroke-miterlimit="10" stroke-width="3"/>
      <path d="M371,313.73l46.34-46.34A43.22,43.22,0,0,0,430,236.82" fill="none" stroke="#ffc600" stroke-linecap="round" stroke-miterlimit="10" stroke-width="3"/>
      <path d="M392.67,274.55v-42.5a45.88,45.88,0,0,0-13.44-32.43l-20-20a45.88,45.88,0,0,1-13.44-32.43V119.55" fill="none" stroke="#ffc600" stroke-linecap="round" stroke-miterlimit="10" stroke-width="3"/>
      <line x1="347.08" y1="359.22" x2="347.08" y2="289.55" fill="none" stroke="#ffc600" stroke-linecap="round" stroke-miterlimit="10" stroke-width="3"/>
      <path d="M392.47,265.67V242.11A28.43,28.43,0,0,1,400.8,222l8.83-8.83a28.42,28.42,0,0,0,8.32-20.1V167.19" fill="none" stroke="#ffc600" stroke-linecap="round" stroke-miterlimit="10" stroke-width="2"/>
      <path d="M110,391.39V350.58A38.28,38.28,0,0,0,98.78,323.5L70.22,294.93A38.25,38.25,0,0,1,59,267.86V124.58" fill="none" stroke="#00caf4" stroke-linecap="round" stroke-miterlimit="10" stroke-width="3"/>
      <path d="M58.5,231.05v-.66a49.1,49.1,0,0,1,14.38-34.72l27.24-27.23a49.11,49.11,0,0,0,14.38-34.73V113.05" fill="none" stroke="#00caf4" stroke-linecap="round" stroke-miterlimit="10" stroke-width="3"/>
      <path d="M89.5,314.05,39.69,264.24a33.89,33.89,0,0,1-9.94-24V216.39a33.93,33.93,0,0,0-9.94-24h0a33.92,33.92,0,0,1-9.93-24V136.33" fill="none" stroke="#00caf4" stroke-linecap="round" stroke-miterlimit="10" stroke-width="3"/>
      <circle cx="392.33" cy="248.05" r="5" fill="#002d4f" stroke="#ffc600" stroke-linecap="round" stroke-miterlimit="10" stroke-width="3"/>
      <circle cx="417.83" cy="168.05" r="5" fill="#002d4f" stroke="#ffc600" stroke-linecap="round" stroke-miterlimit="10" stroke-width="3"/>
      <circle cx="373.83" cy="78.55" r="5" fill="#002d4f" stroke="#ffc600" stroke-linecap="round" stroke-miterlimit="10" stroke-width="3"/>
      <circle cx="430.67" cy="231.39" r="5" fill="#002d4f" stroke="#ffc600" stroke-linecap="round" stroke-miterlimit="10" stroke-width="3"/>
      <circle cx="345.5" cy="117.05" r="5" fill="#002d4f" stroke="#ffc600" stroke-linecap="round" stroke-miterlimit="10" stroke-width="3"/>
      <circle cx="114.5" cy="108.55" r="5" fill="#002d4f" stroke="#00caf4" stroke-linecap="round" stroke-miterlimit="10" stroke-width="2"/>
      <circle cx="6.5" cy="201.55" r="5" fill="#002d4f" stroke="#00caf4" stroke-linecap="round" stroke-miterlimit="10" stroke-width="2"/>
      <circle cx="10" cy="135.55" r="5" fill="#002d4f" stroke="#00caf4" stroke-linecap="round" stroke-miterlimit="10" stroke-width="2"/>
      <circle cx="347.08" cy="284.22" r="5" fill="#002d4f" stroke="#ffc600" stroke-linecap="round" stroke-miterlimit="10" stroke-width="3"/>
      <circle cx="319.5" cy="41.05" r="4.31" fill="#002d4f" stroke="#184772" stroke-linecap="round" stroke-miterlimit="10" stroke-width="3"/>
      <path d="M325.75,149.05v7.68a35.22,35.22,0,0,0,10.3,24.88l22.84,22.83A34.56,34.56,0,0,1,369,228.85v10.7" fill="none" stroke="#184772" stroke-linecap="round" stroke-miterlimit="10" stroke-width="3"/>
      <path d="M346.5,381.55V377a30,30,0,0,0-8.78-21.21L331,349.09a30,30,0,0,1-8.78-21.21v-8.33" fill="none" stroke="#ffc600" stroke-linecap="round" stroke-miterlimit="10" stroke-width="2"/>
      <circle cx="322" cy="319.55" r="5" fill="#002d4f" stroke="#ffc600" stroke-linecap="round" stroke-miterlimit="10" stroke-width="3"/>
      <path d="M110,358.05V293.13a37.58,37.58,0,0,1,11-26.59l53.71-53.72a37.58,37.58,0,0,0,11-26.6v-44.5" fill="none" stroke="#00caf4" stroke-linecap="round" stroke-miterlimit="10" stroke-width="3"/>
      <path d="M40,264.55,15.41,240A30.43,30.43,0,0,1,6.5,218.45v-11.4" fill="none" stroke="#00caf4" stroke-linecap="round" stroke-miterlimit="10" stroke-width="3"/>
      <line x1="109.67" y1="305.39" x2="109.67" y2="183.55" fill="none" stroke="#00caf4" stroke-linecap="round" stroke-miterlimit="10" stroke-width="3"/>
      <circle cx="109.39" cy="186.05" r="5" fill="#002d4f" stroke="#00caf4" stroke-linecap="round" stroke-miterlimit="10" stroke-width="2"/>
      <line x1="258.67" y1="59.39" x2="258.67" y2="23.39" fill="none" stroke="#184772" stroke-linecap="round" stroke-miterlimit="10" stroke-width="3"/>
      <circle cx="258.5" cy="24.39" r="4.31" fill="#002d4f" stroke="#184772" stroke-linecap="round" stroke-miterlimit="10" stroke-width="3"/>
      <path d="M110,383.39v-6a35.42,35.42,0,0,1,10.37-25l7.93-7.93a35.39,35.39,0,0,0,10.37-25h0" fill="none" stroke="#00caf4" stroke-linecap="round" stroke-miterlimit="10" stroke-width="3"/>
      <circle cx="139.17" cy="318.05" r="5" fill="#002d4f" stroke="#00caf4" stroke-linecap="round" stroke-miterlimit="10" stroke-width="2"/>
      <path d="M109.94,326.24V311.72A20.3,20.3,0,0,0,104,297.38L81.72,275.11a20.3,20.3,0,0,1-5.94-14.34V228.05" fill="none" stroke="#00caf4" stroke-linecap="round" stroke-miterlimit="10" stroke-width="3"/>
      <path d="M392.67,281.59l-21.21-21.2A28.89,28.89,0,0,1,363,240v-7.7" fill="none" stroke="#ffc600" stroke-linecap="round" stroke-miterlimit="10" stroke-width="2"/>
      <circle cx="363" cy="229.05" r="5" fill="#002d4f" stroke="#ffc600" stroke-linecap="round" stroke-miterlimit="10" stroke-width="3"/>
      <circle cx="76" cy="225.55" r="5" fill="#002d4f" stroke="#00caf4" stroke-linecap="round" stroke-miterlimit="10" stroke-width="2"/>
      <circle cx="58.78" cy="121.82" r="5" fill="#002d4f" stroke="#00caf4" stroke-linecap="round" stroke-miterlimit="10" stroke-width="2"/>
      <path d="M109.33,384.39,88.22,363.27A31.49,31.49,0,0,1,79,341v-8.62" fill="none" stroke="#00caf4" stroke-linecap="round" stroke-miterlimit="10" stroke-width="3"/>
      <circle cx="79.33" cy="332.39" r="5" fill="#002d4f" stroke="#00caf4" stroke-linecap="round" stroke-miterlimit="10" stroke-width="2"/>
      <g>
        <path d="M197.61,85.85V129c22.42-13.69,46.73-32.27,66.17-56.38-25,.17-46.54,2.88-57.81,6.82Q201.82,82.78,197.61,85.85Z" opacity="0.35" fill="url(#Unbenannter_Verlauf_7)"/>
        <path d="M312.06,80.46C312.06,71.9,275.63,65,230.7,65s-81.37,7-81.37,15.51v27.67c0,8.56,36.43,15.51,81.37,15.51s81.36-7,81.36-15.51Z" fill="#00618c" opacity="0.16" style="mix-blend-mode: multiply"/>
        <g>
          <path d="M141.42,190.51a6.92,6.92,0,0,0-.69.93,6.27,6.27,0,0,0-1.06,3.37,8.13,8.13,0,0,0,2.84,5.53,31,31,0,0,0,8.16,5.16c6.91,3.15,16.49,5.88,28.79,8a302.76,302.76,0,0,0,45.45,4,336.87,336.87,0,0,0,47.2-2.34c13.36-1.67,24.34-4,32.82-6.86a61.46,61.46,0,0,0,10.72-4.6,18.66,18.66,0,0,0,6.28-5.22,7.28,7.28,0,0,0,1.16-2.52,6.17,6.17,0,0,0,.08-2,6.85,6.85,0,0,0-.48-1.62c-.07-.21.11-.3.32-.34a2,2,0,0,1,.45,0s.09.2.23.61a6.49,6.49,0,0,1,.35,1.9,13,13,0,0,1-.12,1.41c-.05.25-.15.5-.23.77a3.72,3.72,0,0,1-.31.82,11.26,11.26,0,0,1-2.43,3.24,32.1,32.1,0,0,1-9.11,5.53,90.11,90.11,0,0,1-13,4.33c-19.31,5.07-45.57,7.39-70.68,7.28s-50.33-2.83-68.47-8.33a69,69,0,0,1-12-4.77,30.56,30.56,0,0,1-4.58-2.93,15.14,15.14,0,0,1-3.17-3.44,7.78,7.78,0,0,1-1.11-3.69,6.49,6.49,0,0,1,.64-2.79,8.84,8.84,0,0,1,.89-1.52c.23-.32.36-.47.36-.47Z" fill="#1d4563"/>
          <path d="M173.84,153.56m-1.06,7.24" fill="#ffc600"/>
          <g>
            <path d="M290.7,324c0-9.23-25.24-16.72-60.69-16.72S170,314.8,170,324v69.31c0,9.23,24.54,16.72,60,16.72s60.69-7.49,60.69-16.72Z" fill="#00caf4"/>
            <path d="M230,410.56c-16.93,0-32.35-1.74-43.42-4.91s-17.06-7.53-17.06-12.31V324c0-4.78,6.06-9.15,17.06-12.31s26.49-4.91,43.42-4.91,32.52,1.74,43.77,4.91S291.2,319.26,291.2,324v69.31c0,4.77-6.19,9.14-17.42,12.31S247,410.56,230,410.56Zm0-102.75c-16.84,0-32.16,1.73-43.14,4.88-10.53,3-16.33,7.05-16.33,11.34v69.31c0,4.29,5.8,8.32,16.33,11.34,11,3.15,26.3,4.88,43.14,4.88,33.75,0,60.18-7.13,60.18-16.22V324C290.19,314.94,263.76,307.81,230,307.81Z" fill="#002d4f"/>
            <path d="M199.43,315.78s-15.22,3.23-30.08,6.47c0,28.19.15,67.3.15,68.54,0,9.28,11.82,13.18,31.09,17.2-5.49-7.83,1.73-9.88,8.94-9.27,19.82,1.67,60.22,6.31,80.41-13.41l.08,1.34h0V337.44Z" fill="#00618c" opacity="0.2" style="mix-blend-mode: multiply"/>
            <path d="M298.38,304.25c0-10.42-28.45-18.86-68.41-18.86s-67.62,8.44-67.62,18.86v77.13c0,10.42,27.66,18.86,67.62,18.86s68.41-8.44,68.41-18.86Z" fill="#004972"/>
            <path d="M298.38,304.25c0-10.42-28.45-18.86-68.41-18.86s-67.62,8.44-67.62,18.86v77.13c0,10.42,27.66,18.86,67.62,18.86s68.41-8.44,68.41-18.86Z" fill="url(#Unbenannter_Verlauf_36)" style="mix-blend-mode: overlay"/>
            <g opacity="0.51" style="mix-blend-mode: overlay">
              <path d="M228.63,399.74a206.48,206.48,0,0,1-32.95-2.36,88.56,88.56,0,0,1-20.26-5.46,32.47,32.47,0,0,1-9.44-5.69c-.4-.4-.74-.74-1-1l-.62-.77-.31-.48-.09-.16.11.15.37.46.7.72c.31.27.68.6,1.11,1a35.78,35.78,0,0,0,9.75,5.09,98.62,98.62,0,0,0,20.25,4.75,235.29,235.29,0,0,0,32.6,2,277.45,277.45,0,0,0,33.28-1.74,107,107,0,0,0,21.74-4.63c5.39-1.91,8.89-4.12,10.83-5.89l.36-.32c.11-.1.2-.21.3-.32l.53-.58a3.52,3.52,0,0,0,.41-.51l.32-.44a6,6,0,0,0,.35-.6l.11-.2-.09.21c-.07.14-.15.36-.3.63l-.29.46a4.42,4.42,0,0,1-.37.55l-.49.62c-.1.11-.18.23-.29.35l-.34.34c-1.84,1.92-5.29,4.37-10.68,6.53a97.36,97.36,0,0,1-21.91,5.32A243.18,243.18,0,0,1,228.63,399.74Z" fill="#fff"/>
            </g>
            <path d="M262,287.45V398.18c22.29-3.12,36.41-9.47,36.41-16.8V304.25C298.38,296.91,284.26,290.57,262,287.45Z" fill="#fff" opacity="0.3" style="mix-blend-mode: overlay"/>
            <path d="M299.2,304.25s-.16,13.63-.31,47.08c0,8.36-.08,18-.12,28.9v1a8.14,8.14,0,0,1-.09,1.09,6.86,6.86,0,0,1-.71,2.1,11.78,11.78,0,0,1-2.85,3.36,30.91,30.91,0,0,1-7.85,4.48,93,93,0,0,1-18.83,5.16,191,191,0,0,1-21.51,2.5q-11.35.72-23.87.42A217.34,217.34,0,0,1,197,398.23a135.41,135.41,0,0,1-13.7-2.73c-2.3-.61-4.61-1.29-6.9-2.12a46.36,46.36,0,0,1-6.75-3,18.93,18.93,0,0,1-5.8-4.59,7.65,7.65,0,0,1-1.58-3.34,9.6,9.6,0,0,1-.1-1.84v-1.8q0-7.2,0-14.15,0-13.9,0-26.87t0-25v-5.95c0-1,0-1.94,0-2.94a5.9,5.9,0,0,1,.26-1.5,6.92,6.92,0,0,1,.57-1.38,10.28,10.28,0,0,1,1.77-2.35,18.45,18.45,0,0,1,2.2-1.87,30.78,30.78,0,0,1,4.89-2.82A65,65,0,0,1,182,290.33c3.42-.95,6.81-1.68,10.14-2.3a187.69,187.69,0,0,1,19.23-2.41c6.14-.46,12-.66,17.51-.71s10.75.08,15.66.33a190.59,190.59,0,0,1,25.65,2.9,86.46,86.46,0,0,1,17.84,5.08,33.91,33.91,0,0,1,5.85,3.13,15.44,15.44,0,0,1,3.62,3.32A8.43,8.43,0,0,1,299,302.5a6.5,6.5,0,0,1,.21,1.22c0,.6-.43.58-.83.45a5.39,5.39,0,0,1-.79-.32l0-.29a2.32,2.32,0,0,0-.07-.37,3.39,3.39,0,0,0-.13-.5,7.74,7.74,0,0,0-1.91-3,20.22,20.22,0,0,0-5-3.61,48.18,48.18,0,0,0-7.81-3.33,121.71,121.71,0,0,0-22.52-4.92,232.89,232.89,0,0,0-29.73-1.9c-5.44,0-11.1.11-16.93.46s-11.83.95-17.92,1.9a108.18,108.18,0,0,0-18.39,4.34,43.58,43.58,0,0,0-8.77,4.06,17.2,17.2,0,0,0-3.72,3.07,7.06,7.06,0,0,0-1.91,4.23c0,13.33,0,27,0,40.82,0,6.9,0,13.83.05,20.75l0,10.38c0,1.72,0,3.45,0,5.18a6.56,6.56,0,0,0,1.65,4.41,15.88,15.88,0,0,0,3.77,3.23,33.65,33.65,0,0,0,4.48,2.38,66.12,66.12,0,0,0,9.64,3.33,140.07,140.07,0,0,0,20,3.64c6.71.76,13.4,1.18,20,1.34s13.17.1,19.6-.2,12.73-.84,18.86-1.67A135,135,0,0,0,278.62,394a69,69,0,0,0,8.18-2.79,31,31,0,0,0,7.18-4,11.53,11.53,0,0,0,2.62-2.8,6.52,6.52,0,0,0,.75-1.64,6.23,6.23,0,0,0,.17-.86c0-.14,0-.28,0-.43s0-.33,0-.49c0-2.68,0-5.32,0-7.9,0-41.3,0-68.83,0-68.83Z" fill="#002d4f"/>
            <path d="M298.38,258.88c0-10.41-28.45-18.85-68.41-18.85s-67.62,8.44-67.62,18.85v55.74c0,10.42,27.66,18.86,67.62,18.86s68.41-8.44,68.41-18.86Z" fill="#002d4f" opacity="0.58" style="mix-blend-mode: multiply"/>
            <path d="M198.05,287.46c-22,3.12-35.7,9.46-35.7,16.79v77.13c0,7.32,13.69,13.67,35.7,16.79Z" fill="#162f4c" opacity="0.31" style="mix-blend-mode: multiply"/>
            <g style="mix-blend-mode: multiply">
              <path d="M262,320h-1.15s.13,18,.13,36.7c0,21.84.57,41.31.57,41.31s.44-18,.44-41.31C262,338.06,262,320.1,262,320Z" fill="#002d4f"/>
            </g>
            <g style="mix-blend-mode: multiply">
              <path d="M198.64,320.55h-1.16s.13,15.72.13,32c0,19.06.58,36,.58,36s.44-15.69.44-36.05C198.63,336.28,198.64,320.61,198.64,320.55Z" fill="#002d4f"/>
            </g>
          </g>
          <g>
            <path d="M320.31,190.47v3c0,11.45-39.76,20.74-88.8,20.74s-88.8-9.29-88.8-20.74v-4.25c-20,15.29-33.18,30.24-33.18,33.05,0,11,22.8,66.82,24.7,71.4,6.13,14.72,43.19,28.73,96.47,28.73s91.05-13.65,96.46-28.73c1.67-4.67,24.7-60.43,24.7-71.4C351.86,219.54,339.39,205.32,320.31,190.47Z" fill="#f5c32e"/>
            <path d="M319.67,190a9.91,9.91,0,0,1,.64,2.94,1.52,1.52,0,0,1,0,.21c0,.11,0,.22,0,.34,0,11.45-39.76,20.74-88.8,20.74s-88.8-9.29-88.8-20.74a2.48,2.48,0,0,1,0-.27,2.4,2.4,0,0,1,0-.28,14.45,14.45,0,0,1,1.3-4.69c-20.73,15.64-34.48,31.17-34.48,34,0,11,22.8,66.82,24.7,71.4,6.13,14.72,43.19,28.73,96.47,28.73s91.05-13.65,96.46-28.73c1.67-4.67,24.7-60.43,24.7-71.4C351.86,219.51,339.12,205,319.67,190Z" fill="#f5c32e"/>
            <g style="mix-blend-mode: overlay">
              <path d="M319.67,190a9.91,9.91,0,0,1,.64,2.94,1.52,1.52,0,0,1,0,.21c0,.11,0,.22,0,.34,0,11.45-39.76,20.74-88.8,20.74s-88.8-9.29-88.8-20.74a2.48,2.48,0,0,1,0-.27,2.4,2.4,0,0,1,0-.28,14.45,14.45,0,0,1,1.3-4.69c-20.73,15.64-34.48,31.17-34.48,34,0,11,22.8,66.82,24.7,71.4,6.13,14.72,43.19,28.73,96.47,28.73s91.05-13.65,96.46-28.73c1.67-4.67,24.7-60.43,24.7-71.4C351.86,219.51,339.12,205,319.67,190Z" fill="url(#Unbenannter_Verlauf_33)"/>
            </g>
            <path d="M320.18,189.32l.74.59c.5.4,1.26,1,2.28,1.82,2,1.65,5.13,4.18,9.24,7.86,2.06,1.84,4.37,4,6.9,6.45s5.29,5.28,8.14,8.59c.72.83,1.43,1.7,2.13,2.6a27,27,0,0,1,2,2.93,7.46,7.46,0,0,1,.45.84,3.74,3.74,0,0,1,.33,1,2,2,0,0,1,0,.54l0,.48c0,.16,0,.33,0,.48l-.07.48-.14.95-.18.94c-.11.63-.27,1.26-.42,1.9-1.24,5.07-3,10.42-5,16.16-4,11.46-9,24.46-14.87,39.19l-4.54,11.39a18.62,18.62,0,0,1-3.69,5.35c-.39.38-.76.8-1.18,1.16l-1.24,1.1c-.87.68-1.74,1.39-2.68,2s-1.88,1.23-2.84,1.84l-1.48.85-.75.42-.77.4-1.54.79-1.58.74c-1,.51-2.13,1-3.22,1.42a116.51,116.51,0,0,1-13.77,4.67,196.85,196.85,0,0,1-30.86,5.7A282.69,282.69,0,0,1,227,322.59a258.57,258.57,0,0,1-37.77-3.13,178.66,178.66,0,0,1-19.79-4.31c-3.32-.93-6.65-2-9.94-3.22a89.56,89.56,0,0,1-9.79-4.27,53.93,53.93,0,0,1-8.76-5.53c-.35-.26-.66-.56-1-.83s-.66-.55-1-.85c-.61-.61-1.24-1.19-1.79-1.85a23.75,23.75,0,0,1-1.6-2,16.77,16.77,0,0,1-1.27-2.22c-.39-.76-.67-1.55-1-2.32l-1-2.33-1.86-4.62-3.63-9.17q-3.57-9.09-6.86-18c-2.19-5.9-4.27-11.73-6.18-17.51-.95-2.89-1.86-5.77-2.67-8.64-.2-.72-.41-1.44-.58-2.16s-.38-1.44-.54-2.17a32.32,32.32,0,0,1-.75-4.38l0-.56,0-.28c0-.11,0-.21,0-.32a5,5,0,0,1,.42-1.08,17,17,0,0,1,1.17-1.88c.85-1.19,1.76-2.32,2.68-3.43,1.87-2.2,3.82-4.28,5.79-6.3,4-4,8-7.78,12.14-11.33q3.08-2.67,6.18-5.16c1-.84,2.07-1.66,3.1-2.47l1.83-1.41,1.06-.81.53-.4.26-.2.13-.1,0,0c-.27.67-.55,1.37-.8,2.06-.13.34-.25.68-.35,1l-.15.48-.1.36a7.44,7.44,0,0,0-.24,1.45,1.4,1.4,0,0,0,0,.35,1.09,1.09,0,0,1,0,.25.32.32,0,0,0,0,.14,4.38,4.38,0,0,0,.07.71,6,6,0,0,0,1.16,2.6,11.75,11.75,0,0,0,2,2.08,26.81,26.81,0,0,0,5,3.08,52.53,52.53,0,0,0,5.33,2.26,102,102,0,0,0,10.85,3.22c3.61.87,7.19,1.59,10.72,2.2,7.07,1.23,13.94,2.06,20.56,2.66s13,1,19.15,1.17c12.27.41,23.53.19,33.73-.38s19.34-1.55,27.41-2.78a168.24,168.24,0,0,0,20.94-4.41,58.87,58.87,0,0,0,14.07-5.7,16.33,16.33,0,0,0,4-3.26,5.74,5.74,0,0,0,1.44-3.08,3.25,3.25,0,0,0,0-.62,1.93,1.93,0,0,1,0-.38,2.09,2.09,0,0,0,0-.25,6.15,6.15,0,0,0-.15-.91c-.12-.52-.21-.81-.23-.88-.16-.69.21-.83.65-.77a3,3,0,0,1,.91.31s.11.34.27,1a7.9,7.9,0,0,1,.18,1.38.89.89,0,0,1,0,.23v.14a2.53,2.53,0,0,1,0,.48,4.73,4.73,0,0,1,0,.52l-.09.54a7,7,0,0,1-1,2.25,11.08,11.08,0,0,1-1.85,2.15,24.59,24.59,0,0,1-5.69,3.73,58.88,58.88,0,0,1-7.77,3.13c-2.89,1-6.09,1.85-9.55,2.67a206.55,206.55,0,0,1-23.77,4c-8.88,1-18.65,1.71-29.15,2s-21.76.13-33.57-.61c-5.9-.38-11.95-.91-18.1-1.67s-12.42-1.73-18.74-3.07c-3.15-.68-6.32-1.44-9.48-2.36a78.31,78.31,0,0,1-9.39-3.32,38.23,38.23,0,0,1-4.5-2.31,18.4,18.4,0,0,1-4-3.18,8.74,8.74,0,0,1-1.49-2.19,5.2,5.2,0,0,1-.54-2.66s0-.17,0-.28a2.08,2.08,0,0,1,0-.35c0-.23,0-.45.08-.67s.09-.44.14-.65l.08-.32.08-.26a13.71,13.71,0,0,1,.47-1.32s0,0,0-.06l-.05,0-.11.08-.21.17-.43.32-1.24,1c-1.06.82-2.1,1.65-3.15,2.49-2.09,1.69-4.17,3.41-6.22,5.19-4.11,3.55-8.15,7.28-12,11.23-1.94,2-3.84,4-5.64,6.13-.9,1.06-1.78,2.14-2.58,3.27a20.49,20.49,0,0,0-1.12,1.74,5.88,5.88,0,0,0-.41.89l-.07.22a1.48,1.48,0,0,1,0,.19c0,.14,0,.33,0,.49a18.28,18.28,0,0,0,.23,2.06c.13.68.24,1.37.4,2.05.31,1.38.66,2.74,1,4.1.75,2.73,1.59,5.44,2.47,8.15,1.77,5.41,3.68,10.81,5.66,16.19s4,10.77,6.11,16.14,4.22,10.73,6.39,16.07l1.63,4,.82,2,.46.93c.08.16.14.32.23.47l.28.44a24,24,0,0,0,5.68,6.18,47.31,47.31,0,0,0,6.15,4.1,70.7,70.7,0,0,0,6.63,3.32c4.54,2,18.13,7.38,42.93,10.78,4.86.6,9.72,1.05,14.57,1.38s9.67.48,14.47.56,9.58,0,14.31-.14,9.44-.44,14.09-.82a226.08,226.08,0,0,0,27.17-3.88,133.06,133.06,0,0,0,25-7.61,62.31,62.31,0,0,0,11-5.95c.41-.3.85-.57,1.24-.89l1.19-.94c.4-.32.76-.66,1.14-1,.18-.17.38-.33.56-.51l.52-.53a18.54,18.54,0,0,0,3.47-4.67l.55-1.3.54-1.42,1.1-2.79c.73-1.84,1.46-3.67,2.17-5.48q2.15-5.43,4.19-10.65c2.71-7,5.26-13.68,7.59-20.08s4.46-12.5,6.25-18.29c.88-2.9,1.68-5.72,2.27-8.45l.2-1c.07-.34.13-.67.17-1s.1-.67.13-1l0-1c0-.05,0-.07,0-.1s0-.11,0-.16a2.05,2.05,0,0,0-.15-.37,6.35,6.35,0,0,0-.43-.81c-.32-.55-.69-1.08-1.06-1.6a69.43,69.43,0,0,0-4.79-5.73c-1.62-1.77-3.21-3.41-4.75-4.94-3.09-3.06-6-5.69-8.48-7.93s-4.73-4.09-6.54-5.57-3.2-2.59-4.14-3.34l-1.44-1.12Z" fill="#09233c"/>
            <g>
              <g opacity="0.4" style="mix-blend-mode: multiply">
                <path d="M161.07,206.09c-11.51-3.5-18.36-7.87-18.36-12.62,0-1.09,1.3-4.43-.09-3.9-7.43,2.85-33.09,28.51-33.09,32.7,0,11,22.8,66.82,24.7,71.4,2.64,6.32,11,12.5,23.85,17.51-4.71-15.91-16.38-56.36-16.38-65.54C141.7,243.16,149.22,225.83,161.07,206.09Z" fill="#b17d4e"/>
              </g>
              <path d="M161.36,206.28l-1.42,2.32c-1,1.61-2.48,4.12-4.51,7.74s-4.59,8.35-7.57,14.46c-1.48,3.06-3.08,6.46-4.62,10.3-.38,1-.76,1.94-1.08,3a7.76,7.76,0,0,0-.36,1.57l0,.82c0,.28,0,.56.07.84a69.07,69.07,0,0,0,1.12,7c1,4.82,2.07,9.29,3.11,13.45s2.09,8,3.05,11.53c1.94,7.07,3.64,12.92,5,17.6s2.44,8.16,3.15,10.5c.36,1.17.63,2.05.81,2.65s.28.91.28.94c0,.26-.78.23-.78.23s-2-7.13-4.92-17.56c-1.45-5.22-3.1-11.27-4.8-17.67s-3.43-13.17-4.92-19.85c-.36-1.67-.71-3.35-1-5a39.17,39.17,0,0,1-.63-5.08v-.32c0-.12,0-.25,0-.36a5.7,5.7,0,0,1,.14-.65c.1-.42.23-.83.36-1.23.26-.8.55-1.58.85-2.36.6-1.54,1.24-3,1.88-4.52,2.59-5.87,5.28-11.23,7.67-15.77s4.49-8.27,6-10.86,2.39-4.06,2.39-4.06Z" fill="#002d4f"/>
              <path d="M303.23,310.94s1.11-3.19,3.55-11.09c1.22-4,2.77-9.07,4.63-15.58s4-14.4,6.3-23.92c.55-2.39,1.06-4.7,1.5-7a61.13,61.13,0,0,0,1-6.53c0-.27,0-.53,0-.79l0-.39c0-.13,0-.23,0-.35a11,11,0,0,0-.4-1.47c-.31-1-.67-1.91-1-2.83-.74-1.83-1.51-3.56-2.27-5.22-3.07-6.61-5.95-11.94-8.31-16.17s-4.25-7.32-5.52-9.39c-.63-1-1.12-1.82-1.44-2.35a6.72,6.72,0,0,1-.5-.84c-.06-.26,1.39-.83,1.39-.83l2.46,4.41c1.55,2.8,3.72,6.8,6.17,11.61s5.2,10.42,7.78,16.5c.64,1.53,1.27,3.08,1.81,4.7.13.41.26.82.37,1.24.05.22.1.44.13.67a5.41,5.41,0,0,1,0,.69c0,.44,0,.87-.08,1.3s-.09.86-.14,1.29c-.44,3.41-1.13,6.78-1.82,10.12-1.4,6.67-3.05,13.28-4.66,19.46s-3.21,11.91-4.6,16.82-2.59,9-3.43,11.86a33,33,0,0,0-.95,3.64Z" fill="#002d4f"/>
            </g>
            <g>
              <path d="M351.84,222.87c0-.2,0-.4,0-.58C351.86,222.47,351.85,222.67,351.84,222.87Z" fill="#b17d4e" opacity="0.6" style="mix-blend-mode: multiply"/>
              <path d="M109.53,222.27a15.17,15.17,0,0,0,.19,2.11A15.17,15.17,0,0,1,109.53,222.27Z" fill="#b17d4e" opacity="0.6" style="mix-blend-mode: multiply"/>
              <path d="M230.7,259.65c-65.48,0-111.54-18-120.95-36.09,2.51,15.19,22.7,65.81,24.48,70.11,6.13,14.72,43.74,28.11,97,28.11s90.51-13,95.92-28.11c1.56-4.35,21.62-54.57,24.38-70.11C342.57,241.88,295.82,259.65,230.7,259.65Z" fill="#b17d4e" opacity="0.6" style="mix-blend-mode: multiply"/>
              <g opacity="0.62" style="mix-blend-mode: multiply">
                <path d="M233.12,319.52c9.32-.08,17.8-.56,25.48-1.27s14.56-1.68,20.69-2.78a142.1,142.1,0,0,0,28.27-7.79,63.52,63.52,0,0,0,13.55-7.31c.63-.47,1.15-.89,1.61-1.24s.78-.67,1.06-.9l.81-.7-.76.8a33.79,33.79,0,0,1-2.58,2.41l-1,.83-.57.45-.62.45-1.36,1-1.57,1a69.18,69.18,0,0,1-8.38,4.47,131.28,131.28,0,0,1-28.52,8.64,248.42,248.42,0,0,1-46,4.38c-9.32.06-18.31-.28-26.19-.94s-15.06-1.57-21.53-2.69q-4.86-.84-9.2-1.81c-2.9-.63-5.62-1.34-8.18-2a121.25,121.25,0,0,1-13.35-4.54,71.3,71.3,0,0,1-9.51-4.72,47.4,47.4,0,0,1-6-4.25c-.72-.64-1.34-1.18-1.83-1.7s-.91-.91-1.2-1.27l-.89-1,1,1a16,16,0,0,0,1.27,1.18c.27.22.53.49.86.74l1,.81a47.64,47.64,0,0,0,6.09,3.88,75.94,75.94,0,0,0,9.56,4.26,131.54,131.54,0,0,0,13.34,4.07c2.56.62,5.27,1.25,8.16,1.82s5.95,1.12,9.18,1.62c6.46,1,13.61,1.83,21.48,2.4S223.81,319.59,233.12,319.52Z" fill="#ba8c62"/>
              </g>
              <path d="M351.54,225.15c0-.28.09-.54.13-.8C351.63,224.61,351.59,224.87,351.54,225.15Z" fill="#b17d4e" opacity="0.6" style="mix-blend-mode: multiply"/>
              <path d="M351.78,223.56c0-.2,0-.39.05-.58C351.81,223.17,351.8,223.36,351.78,223.56Z" fill="#b17d4e" opacity="0.6" style="mix-blend-mode: multiply"/>
              <path d="M351.68,224.32q0-.36.09-.69Q351.73,224,351.68,224.32Z" fill="#b17d4e" opacity="0.6" style="mix-blend-mode: multiply"/>
            </g>
            <path d="M230.18,257.18c-65.47,0-111.42-16.9-120.63-35a.43.43,0,0,0,0,.11c0,.68,0,.28.22,1.29,9.37,18,55.24,36.09,120.43,36.09,64.84,0,111.39-16.18,120.32-34.5a16.54,16.54,0,0,0,.32-2.86C342.29,240.77,295.52,257.18,230.18,257.18Z" fill="#fff" opacity="0.6" style="mix-blend-mode: overlay"/>
            <path d="M226.49,260.28c-24.86-.3-45.22-3.06-61.46-6.79l-3-.71-2.9-.75-1.42-.36-1.39-.4-2.71-.77c-3.55-1.08-6.88-2.13-9.94-3.29s-5.89-2.31-8.5-3.46-5-2.38-7.12-3.59a62.66,62.66,0,0,1-10.32-7.06,33.36,33.36,0,0,1-5.66-6.13c-.3-.45-.59-.85-.83-1.24l-.61-1.12-.27-.49a2.53,2.53,0,0,1-.09-.5c0-.32-.07-.6-.09-.85a10.66,10.66,0,0,1-.06-1.09,1.29,1.29,0,0,1,0-.35,1.58,1.58,0,0,0,0,.36,10.91,10.91,0,0,0,.1,1.12c0,.26.07.54.13.86l0,.25s0,.08,0,.12l.06.11.29.48.66,1.12.89,1.23a35.33,35.33,0,0,0,5.9,6,64.89,64.89,0,0,0,10.53,6.81,113.23,113.23,0,0,0,15.74,6.75,182.13,182.13,0,0,0,21.37,6c16.2,3.54,36.41,6.15,61,6.42,6.14.08,12.05,0,17.72-.24s11.11-.55,16.31-1,10.15-1,14.88-1.61c2.36-.35,4.67-.64,6.91-1,1.12-.18,2.23-.34,3.32-.54l3.24-.59c4.25-.8,8.28-1.65,12.08-2.59s7.35-1.92,10.7-2.93a131.93,131.93,0,0,0,17.34-6.61,72,72,0,0,0,12-7.08,35.17,35.17,0,0,0,7-6.63l.29-.36.26-.37.49-.71.45-.65.35-.64.33-.59.15-.27c0-.1.11-.17.11-.23.07-.36.13-.72.17-1a12.57,12.57,0,0,0,.17-1.81,12.3,12.3,0,0,1-.11,1.8c0,.3-.08.66-.14,1,0,.09-.07.16-.11.25l-.14.28-.31.59-.34.66-.43.67-.47.72-.25.38-.28.37a35.68,35.68,0,0,1-6.88,6.83,71.8,71.8,0,0,1-12,7.35,129.12,129.12,0,0,1-17.38,6.9c-3.35,1.06-6.93,2.12-10.75,3.07s-7.87,1.87-12.16,2.71-8.81,1.57-13.57,2.26-9.77,1.24-15,1.69C250.38,259.93,238.92,260.42,226.49,260.28Z" fill="#002d4f"/>
            <g style="mix-blend-mode: overlay">
              <g opacity="0.27" style="mix-blend-mode: overlay">
                <path d="M317.72,188.5a7,7,0,0,1,2.59,5c0,4.85-7.15,9.3-19.08,12.84C313,226,320.47,243.17,320.47,245.64c0,9.18-11.66,49.32-16.3,65.25,12.68-5,20.69-10.82,23-17.22,1.67-4.67,24.7-60.43,24.7-71.4C351.86,219.42,338.25,204,317.72,188.5Z" fill="#fff"/>
              </g>
            </g>
          </g>
          <ellipse cx="231.64" cy="208.71" rx="105.7" ry="28.63" fill="#b17d4e" opacity="0.42" style="mix-blend-mode: multiply"/>
          <path d="M325.22,186.15c-5.92-12.25-42-22.34-93.71-22.34s-88.22,10.09-93.71,22.34c-1.18,2.61-9.12,16.34-9.12,21.11,0,13.53,46,26.66,102.83,26.66s102.82-13.13,102.82-26.66C334.33,202.49,326.47,188.73,325.22,186.15Z" fill="#004972"/>
          <path d="M325.22,186.15c-5.92-12.25-42-22.34-93.71-22.34s-88.22,10.09-93.71,22.34c-1.18,2.61-9.12,16.34-9.12,21.11,0,13.53,46,26,102.83,26s103.31-12.65,102.82-26C334.16,202.5,326.47,188.73,325.22,186.15Z" fill="url(#Unbenannter_Verlauf_3)"/>
          <path d="M323.91,184.08a19.35,19.35,0,0,0-3.48-3.37c-5.26-3.06-15.85-7.05-27.06-10.84-16-3.75-37.12-6.06-61.86-6.06-51.76,0-88.22,10.09-93.71,22.34-1.18,2.61-9.12,16.34-9.12,21.11,0,5.24,6.93,10.43,18.73,14.82h0A30.58,30.58,0,0,1,180.75,203c16.16,2.6,40.08,4.81,70.32,3C309.9,202.39,323.77,190.6,323.91,184.08Z" fill="#002d4f" opacity="0.3" style="mix-blend-mode: multiply"/>
          <path d="M231.51,234.56c-27,0-52.9-2.94-72.88-8.28-19.72-5.28-30.58-12-30.58-19,0-3.86,4.74-12.87,7.57-18.25.75-1.43,1.35-2.55,1.6-3.11,2.82-6.29,13.45-12,29.93-16.11,17.32-4.32,39.57-6.6,64.36-6.6,49.05,0,87.82,9.33,94.28,22.69h0c.22.46.66,1.29,1.23,2.36,2.78,5.23,8,15,8,19,0,7-10.87,13.75-30.59,19C284.41,231.62,258.53,234.56,231.51,234.56Zm0-70.11c-24.68,0-46.83,2.26-64,6.55-16.1,4-26.43,9.48-29.09,15.41-.27.59-.87,1.73-1.63,3.18-2.59,4.93-7.43,14.11-7.43,17.66,0,6.19,11.09,12.84,29.65,17.8,19.87,5.32,45.63,8.24,72.55,8.24s52.68-2.92,72.54-8.24c18.57-5,29.65-11.61,29.65-17.8,0-3.74-5.27-13.66-7.8-18.43-.57-1.07-1-1.92-1.25-2.4h0C321.77,180.47,311.39,175,295.4,171,278.23,166.71,256.14,164.45,231.51,164.45Z" fill="#002d4f"/>
          <path d="M323.55,185.42c-5.81-11.44-41.21-20.87-92-20.87s-86.64,9.43-92,20.87c-1.16,2.44-9,15.27-9,19.72,0,12.64,45.22,24.92,101,24.92s101-12.28,101-24.92C332.5,200.69,324.77,187.83,323.55,185.42Z" opacity="0.54" fill="url(#Unbenannter_Verlauf_3-2)"/>
          <path d="M231.51,156c-46.5,0-79.26,7.78-84.2,18.78-.43,1-1.91,3.67-3.5,6.79a6,6,0,0,0-.12,1.05c0,11.56,39.32,20.93,87.82,20.93s87.81-9.37,87.81-20.93a6.83,6.83,0,0,0-.14-1.17c-1.56-3.07-3-5.72-3.48-6.67C310.38,163.81,278,156,231.51,156Z" fill="#ffc600" stroke="#002d4f" stroke-miterlimit="10" stroke-width="1.08"/>
          <g opacity="0.48" style="mix-blend-mode: multiply">
            <ellipse cx="231.06" cy="174.59" rx="78.79" ry="16.96" fill="#b17d4e"/>
          </g>
          <path d="M318.72,181.47c-1.56-3.06-3-5.68-3.46-6.63-5.29-10.94-37.5-18.68-83.75-18.68s-78.84,7.74-83.75,18.68c-.44,1-1.91,3.65-3.49,6.75a6,6,0,0,0-.12,1c0,11.49,39.11,20.81,87.36,20.81s87.35-9.32,87.35-20.81A6.72,6.72,0,0,0,318.72,181.47Zm-87.66,10.08c-43.52,0-78.8-7.59-78.8-17s35.28-17,78.8-17,78.79,7.6,78.79,17S274.57,191.55,231.06,191.55Z" fill="url(#Unbenannter_Verlauf_29)" style="mix-blend-mode: overlay"/>
          <path d="M308.91,174.22a3.36,3.36,0,0,0-.37-1.51,6.48,6.48,0,0,0-1.37-1.78,15.41,15.41,0,0,0-2.8-2,46.74,46.74,0,0,0-9.82-4,128.6,128.6,0,0,0-15.39-3.53,292.89,292.89,0,0,0-48.35-3.76,329.16,329.16,0,0,0-33.54,1.56c-6.11.63-12.5,1.47-19.1,2.75-3.29.64-6.64,1.4-10,2.36a52.28,52.28,0,0,0-10,3.81,15.28,15.28,0,0,0-4.3,3.17,5,5,0,0,0-1.21,2.26A3.75,3.75,0,0,0,153,176a7,7,0,0,0,1.59,2,14.89,14.89,0,0,0,2.07,1.55,31.36,31.36,0,0,0,4.59,2.32,73.45,73.45,0,0,0,9.58,3.07c3.2.82,6.38,1.48,9.52,2.05,6.27,1.12,12.38,1.88,18.27,2.45s11.56.91,17,1.13c10.9.42,20.89.32,29.94-.08s17.18-1.12,24.35-2.05c14.33-1.85,24.94-4.5,31.48-7.42a26.17,26.17,0,0,0,4.09-2.21,11.26,11.26,0,0,0,2.41-2.1,4.67,4.67,0,0,0,.87-1.56,3.47,3.47,0,0,0,.1-.44,1.5,1.5,0,0,0,0-.18c.06-.28.48-.31.87-.21a2.71,2.71,0,0,1,.76.36,1.73,1.73,0,0,1,0,.3c0,.11,0,.23-.07.38l-.15.5a7.24,7.24,0,0,1-1.88,2.68c-2,1.92-5.5,3.7-10.06,5.26-9.14,3.12-22.63,5.46-38.71,6.75-8,.65-16.74,1-25.9,1.06s-18.75-.23-28.59-1a228.1,228.1,0,0,1-29.94-4c-2.5-.53-5-1.13-7.47-1.84a64.16,64.16,0,0,1-7.29-2.53,33.28,33.28,0,0,1-3.49-1.73,15.59,15.59,0,0,1-3.17-2.35,7.74,7.74,0,0,1-1.26-1.61,4.68,4.68,0,0,1-.62-2,4.52,4.52,0,0,1,.38-2.1,6.83,6.83,0,0,1,1.14-1.73,13.75,13.75,0,0,1,3.07-2.49,29.61,29.61,0,0,1,3.43-1.81,59.5,59.5,0,0,1,7.22-2.64,128.93,128.93,0,0,1,14.79-3.4,258.17,258.17,0,0,1,29.29-3.25c9.54-.56,18.79-.68,27.54-.52s17,.66,24.66,1.39c15.22,1.48,27.84,3.94,36.3,7.12,4.22,1.6,7.43,3.4,9.18,5.36a6.38,6.38,0,0,1,1.53,2.69,4.17,4.17,0,0,1,.12.83l0,.29Z" fill="#002d4f"/>
          <path d="M303.85,81.67c0-7.62-32.42-13.8-72.41-13.8S159,74.05,159,81.67v91c0,7.62,32.42,13.8,72.41,13.8s72.41-6.18,72.41-13.8Z" fill="#6dc8f2"/>
          <path d="M303.85,81.67c0-7.62-32.42-13.8-72.41-13.8S159,74.05,159,81.67v91c0,7.62,32.42,13.8,72.41,13.8s72.41-6.18,72.41-13.8Z" fill="url(#Unbenannter_Verlauf_8)"/>
          <ellipse cx="232.13" cy="167.32" rx="65.36" ry="10.53" fill="url(#Unbenannter_Verlauf_3-3)" style="mix-blend-mode: multiply"/>
          <path d="M303.85,99.53V84.46L277.24,71l-.76-.11c-35.4,58.2-93.65,91.14-117.38,102.28,1.09,6.29,24.27,11.52,55.25,12.95C254.33,174.5,288.41,137.27,303.85,99.53Z" opacity="0.81" fill="url(#Unbenannter_Verlauf_2)"/>
          <path d="M212.72,68.33c-30.91,1.58-53.69,7-53.69,13.34v55.07C182.88,119.51,202.12,94.06,212.72,68.33Z" opacity="0.81" fill="url(#Unbenannter_Verlauf_2-2)"/>
          <path d="M231.44,179.55c-40,0-72.41-6.18-72.41-13.8v6.94c0,7.62,32.42,13.8,72.41,13.8s72.41-6.18,72.41-13.8v-6.94C303.85,173.37,271.43,179.55,231.44,179.55Z" fill="#002d4f"/>
          <g>
            <rect x="263.17" y="110.77" width="6.31" height="70.04" fill="#002d4f"/>
            <rect x="264.97" y="110.77" width="4.16" height="70.04" fill="url(#Unbenannter_Verlauf_3-4)"/>
            <rect x="193.76" y="110.77" width="6.31" height="70.04" fill="#002d4f"/>
            <rect x="193.21" y="110.77" width="4.88" height="70.04" fill="url(#Unbenannter_Verlauf_3-5)"/>
          </g>
          <path d="M231.44,181.08c-40,0-72.41-6.18-72.41-13.8v5.41c0,7.62,32.42,13.8,72.41,13.8s72.41-6.18,72.41-13.8v-5.41C303.85,174.9,271.43,181.08,231.44,181.08Z" fill="url(#Unbenannter_Verlauf_4)"/>
          <path d="M304.67,81.67s-.16,14.69-.32,50.74c0,9-.07,19.36-.11,31.15q0,4.41,0,9.11a3.3,3.3,0,0,1-.27,1.28,4.62,4.62,0,0,1-.67,1.09,9.2,9.2,0,0,1-1.88,1.65,23.61,23.61,0,0,1-4.43,2.24,67.64,67.64,0,0,1-9.84,2.9c-3.42.77-7,1.41-10.63,2-7.31,1.08-15.06,1.83-23.22,2.31s-16.73.69-25.71.59-18.38-.5-28.16-1.42c-4.89-.47-9.87-1.06-14.93-1.88a111.23,111.23,0,0,1-15.32-3.46,31.7,31.7,0,0,1-7.3-3.19,10.46,10.46,0,0,1-1.58-1.23,5.21,5.21,0,0,1-1.18-1.64,2.93,2.93,0,0,1-.24-1c0-.35,0-.66,0-1v-1.94c0-5.16,0-10.25,0-15.24q0-15,0-29t0-26.92q0-6.48,0-12.7V81.86a2.89,2.89,0,0,1,0-.4,3.4,3.4,0,0,1,.52-1.56,7.65,7.65,0,0,1,2.24-2.19,19.44,19.44,0,0,1,2.66-1.5,43.62,43.62,0,0,1,5.56-2.1c1.87-.58,3.74-1.07,5.6-1.51,3.72-.87,7.4-1.53,11-2.09,7.21-1.11,14.15-1.79,20.76-2.26,13.22-.93,25.14-1,35.73-.76s19.83,1,27.73,1.89a152.51,152.51,0,0,1,19.64,3.44c5.19,1.32,9,2.82,11.43,4.44a7.89,7.89,0,0,1,2.45,2.41,3.85,3.85,0,0,1,.52,1.36c0,.36-.09.55-.23.61a.93.93,0,0,1-.56,0l-.55-.19-.26-.08a1.71,1.71,0,0,0-.06-.26,2.88,2.88,0,0,0-.39-.77,8.79,8.79,0,0,0-3-2.45c-3.15-1.77-8.39-3.47-15.16-4.88-13.55-2.83-33.33-4.73-56.8-4.58-5.87,0-12,.22-18.26.59s-12.75.94-19.35,1.8c-3.3.44-6.63,1-10,1.6a93.93,93.93,0,0,0-10,2.41,43.13,43.13,0,0,0-4.88,1.77,16,16,0,0,0-4.39,2.67,3.89,3.89,0,0,0-1.25,2,7.39,7.39,0,0,0,0,1.27v6.71c0,14.37,0,29.13,0,44q0,11.16.05,22.36l0,11.19c0,1.86,0,3.72,0,5.58v.34l0,.28.06.28.09.28a4,4,0,0,0,.65,1,9.14,9.14,0,0,0,2,1.66,26.76,26.76,0,0,0,4.94,2.29c1.72.62,3.48,1.15,5.26,1.62,3.56.93,7.18,1.65,10.81,2.26,7.26,1.2,14.57,2,21.84,2.49s14.49.78,21.63.85,14.2-.05,21.14-.38,13.73-.83,20.36-1.59a169.83,169.83,0,0,0,19.25-3.21,64.74,64.74,0,0,0,8.9-2.69,23.72,23.72,0,0,0,4-2,9.65,9.65,0,0,0,1.62-1.31,3.26,3.26,0,0,0,.88-1.53,1.75,1.75,0,0,0,0-.4v-8.28c0-2.9,0-5.74,0-8.52,0-44.51,0-74.18,0-74.18Z" fill="#002d4f"/>
        </g>
        <g>
          <path d="M303.35,81c0-7.68-32.7-13.92-73-13.92S157.26,73.34,157.26,81v24.84c0,7.69,32.71,13.93,73.05,13.93s73-6.24,73-13.93Z" fill="#00618c" opacity="0.16" style="mix-blend-mode: multiply"/>
          <path d="M126.54,102.61c6.31,11.91,49,19.25,104.16,19.25s98.29-7.34,104.15-19.25c1.25-2.55,5.38-22.4,5.38-27,0-13.17-49-20.71-109.53-20.71S121.16,62.41,121.16,75.58C121.16,80.21,125.21,100.1,126.54,102.61Z" fill="#00618c"/>
          <path d="M311.35,60.89c16.4,3.33,26.33,7.69,26.33,12.45,0,10.48-47.9,19-107,19s-107-8.49-107-19c0-4.76,9.93-9.12,26.33-12.45-17.93,3.5-28.88,8.47-28.88,14.69,0,4.63,4,24.52,5.38,27,6.31,11.91,49,19.25,104.16,19.25s98.29-7.34,104.15-19.25c1.25-2.55,5.38-22.4,5.38-27C340.23,69.36,329.28,64.39,311.35,60.89Z" fill="url(#Unbenannter_Verlauf_3-6)"/>
          <path d="M230.7,122.51c-57.32,0-98.43-7.7-104.73-19.6-1.42-2.7-5.45-22.88-5.45-27.33,0-6.71,11-12.07,32.61-15.93,19.64-3.5,47.19-5.43,77.57-5.43s57.92,1.93,77.56,5.43c21.64,3.86,32.62,9.22,32.62,15.93,0,4.64-4.17,24.69-5.45,27.31-2.05,4.15-9.61,10-34.07,14.45C282.63,120.72,258.19,122.51,230.7,122.51Zm-103.59-20.2c6,11.31,47.62,18.91,103.59,18.91,56.39,0,98-7.59,103.57-18.9,1.2-2.43,5.32-22.3,5.32-26.74,0-11.82-44.78-20.07-108.89-20.07S121.8,63.76,121.8,75.58c0,4.65,4.12,24.47,5.31,26.73Z" fill="#002d4f"/>
          <path d="M311.35,60.29c16.4,3.19,27.19,8,27.19,12.6,0,10-48.76,19.35-107.84,19.35s-107.19-9-107.19-19c0-4.56,10.13-9.78,26.53-13-17.93,3.36-28.88,8.11-28.88,14.06,0,4.43,4,23.45,5.38,25.85,6.31,11.39,49,18.42,104.16,18.42s98.29-7,104.15-18.42c1.25-2.43,5.38-21.42,5.38-25.85C340.23,68.4,329.28,63.65,311.35,60.29Z" fill="url(#Unbenannter_Verlauf_3-7)"/>
          <ellipse cx="230.7" cy="73.34" rx="106.99" ry="18.96" fill="#102338" opacity="0.3" style="mix-blend-mode: multiply"/>
          <path d="M128.43,78.21a39.22,39.22,0,0,0,7,3.11c2.4.83,4.82,1.54,7.23,2.16,4.83,1.24,9.62,2.18,14.33,3,9.41,1.59,18.46,2.6,27.09,3.36,17.28,1.49,32.91,1.93,46.93,2s26.46-.41,37.42-1.11S288.87,89,297,87.91c16.29-2.22,27.26-5,33.72-7.94,3.22-1.46,5.29-3,6.18-4.41a4.15,4.15,0,0,0,.7-1.64,3.32,3.32,0,0,0,.05-.43v0a3.54,3.54,0,0,1-.05.45,4.2,4.2,0,0,1-.7,1.71c-.93,1.44-3.06,3.08-6.35,4.61a75.53,75.53,0,0,1-13.43,4.46,209.17,209.17,0,0,1-20.8,3.91c-8.24,1.17-17.81,2.19-28.84,3S244,92.82,230,92.83s-29.67-.42-46.93-1.91c-8.63-.76-17.66-1.78-27.06-3.39-4.7-.81-9.49-1.77-14.33-3-2.42-.64-4.85-1.36-7.27-2.23a36.91,36.91,0,0,1-7.11-3.32,11.85,11.85,0,0,1-3.08-2.68,5.43,5.43,0,0,1-1-1.94,4.08,4.08,0,0,1,.08-2.22,5.44,5.44,0,0,1,1-1.86,9.64,9.64,0,0,1,1.44-1.42,19.17,19.17,0,0,1,3.28-2.1,48.32,48.32,0,0,1,7-2.86c2.34-.78,4.7-1.43,7-2,4.68-1.18,9.32-2.07,13.87-2.84s9-1.39,13.43-1.92c8.78-1,17.21-1.74,25.28-2.23s15.76-.76,23.1-.89c14.67-.26,27.89,0,39.71.6s22.23,1.49,31.32,2.59c18.16,2.2,31,5.13,38.95,8.35a32,32,0,0,1,5,2.48,12.29,12.29,0,0,1,3,2.51,4.88,4.88,0,0,1,1.05,2.08,2.67,2.67,0,0,1,.08.58v0a3.7,3.7,0,0,0-.09-.57,4.76,4.76,0,0,0-1.06-2,11.79,11.79,0,0,0-3-2.45,32.07,32.07,0,0,0-5-2.39c-7.9-3.1-20.73-5.87-38.88-7.93-9.08-1-19.49-1.85-31.32-2.37s-25.07-.73-39.77-.41c-7.35.17-15.07.46-23.16,1S179,57.21,170.24,58.29c-4.4.54-8.89,1.18-13.45,2s-9.19,1.7-13.85,2.89c-2.34.59-4.67,1.26-7,2.05a43.34,43.34,0,0,0-6.78,2.87,16.18,16.18,0,0,0-3,2.06,5.05,5.05,0,0,0-1.8,2.81,2.84,2.84,0,0,0,.21,1.57,4.83,4.83,0,0,0,.94,1.44A12.51,12.51,0,0,0,128.43,78.21Z" fill="#002d4f"/>
          <path d="M324.59,65c-6.72-7-42.21-14.79-94.29-14.79S144,57,136,65c-.22.22-5.87,4.37-5.87,6.26C130.15,79.93,175,87,230.3,87s100.16-7,100.16-15.72C330.46,69.36,324.8,65.21,324.59,65Z" fill="#ffc600"/>
          <path d="M324.59,65c-6.72-7-42.21-14.79-94.29-14.79S144,57,136,65c-.22.22-5.87,4.37-5.87,6.26C130.15,79.93,175,87,230.3,87s100.16-7,100.16-15.72C330.46,69.36,324.8,65.21,324.59,65Z" opacity="0.71" fill="url(#Unbenannter_Verlauf_8-2)" style="mix-blend-mode: overlay"/>
          <path d="M230.3,87.61c-49.55,0-100.8-6.12-100.8-16.36,0-1.34,1.78-3.34,5.75-6.47l.32-.26c4.18-4.22,14.88-7.89,30.93-10.58,17.15-2.87,39.21-4.39,63.8-4.39,52.15,0,87.72,7.72,94.74,15l.34.27c4,3.12,5.72,5.11,5.72,6.45C331.1,81.49,279.85,87.61,230.3,87.61Zm0-36.77c-54.84,0-86.64,7.34-93.82,14.6a4.4,4.4,0,0,1-.43.35c-4.74,3.74-5.25,5.07-5.25,5.46,0,7.28,40,15.07,99.5,15.07s99.51-7.79,99.51-15.07c0-.39-.51-1.71-5.23-5.44-.32-.25-.4-.31-.46-.37C317.22,58.26,280.24,50.84,230.3,50.84Z" fill="#002d4f"/>
          <path d="M302.67,59.67c4.95,1.45,7.72,3.08,7.72,4.79,0,6.18-35.85,11.18-80.07,11.18s-80.07-5-80.07-11.18c0-1.71,2.77-3.34,7.72-4.79-7.74,1.78-12.2,3.87-12.2,6.11,0,6.52,37.86,11.8,84.55,11.8s84.55-5.28,84.55-11.8C314.87,63.54,310.41,61.45,302.67,59.67Z" fill="url(#Unbenannter_Verlauf_10)" style="mix-blend-mode: overlay"/>
          <ellipse cx="230.32" cy="64.57" rx="81.22" ry="10.6" fill="#b17d4e" opacity="0.65" style="mix-blend-mode: multiply"/>
          <g opacity="0.46" style="mix-blend-mode: multiply">
            <path d="M165.24,64.57C165.24,59,191,54.45,223.74,54c-41.77.44-74.64,5-74.64,10.56S182,74.7,223.74,75.13C191,74.7,165.24,70.14,165.24,64.57Z" fill="#b17d4e" opacity="0.65" style="mix-blend-mode: multiply"/>
            <path d="M230.32,54h-.8c34.87.05,63,4.77,63,10.59s-28.16,10.54-63,10.6h.8c44.86,0,81.22-4.74,81.22-10.6S275.18,54,230.32,54Z" fill="#b17d4e" opacity="0.65" style="mix-blend-mode: multiply"/>
          </g>
          <path d="M151.89,67.32c9.28,4.52,40.87,7.85,78.43,7.85s69.15-3.33,78.44-7.85c-9.29-4.52-40.88-7.84-78.44-7.84S161.17,62.8,151.89,67.32Z" fill="#fff"/>
          <path d="M230.32,59.48c-37.56,0-69.15,3.32-78.43,7.84,9.28,4.52,40.87,7.85,78.43,7.85s69.15-3.33,78.44-7.85C299.47,62.8,267.88,59.48,230.32,59.48ZM158.6,68.42c8.5-4.13,37.38-8.27,71.72-8.27s63.23,4.14,71.72,8.27c-8.49,4.14-37.38,6.08-71.72,6.08S167.1,72.56,158.6,68.42Z" fill="#c6c6c5"/>
          <path d="M309.32,67.65l-.26-.14c-8.51-4.68-41.63-8.08-78.74-8.08s-70.23,3.4-78.74,8.08l-.26.14-.26-.14c-1.68-.93-2.5-1.89-2.5-2.94,0-3.23,8.16-5.93,24.26-8,15.36-2,35.78-3.11,57.5-3.11s42.14,1.1,57.5,3.11c16.1,2.1,24.26,4.8,24.26,8,0,1.05-.81,2-2.49,2.94Zm-79-13.13c-21.67,0-42,1.1-57.36,3.1-17.19,2.24-23.31,5.06-23.31,6.95,0,.56.58,1.19,1.68,1.84,9.17-4.76,41.49-8.07,79-8.07s69.82,3.31,79,8.07c1.1-.65,1.68-1.28,1.68-1.84,0-1.89-6.12-4.71-23.31-6.95C272.36,55.62,252,54.52,230.32,54.52Z" fill="#002d4f"/>
          <path d="M310.75,64.57v-.12l0-.1a1.93,1.93,0,0,0-.63-.83,9.08,9.08,0,0,0-2-1.21,27.3,27.3,0,0,0-3.31-1.25c-5.28-1.66-13.86-3.25-26.14-4.52s-28.31-2.22-48.57-2.29c-10.13,0-21.32.19-33.62.9-6.14.36-12.57.85-19.26,1.6-3.34.38-6.75.82-10.22,1.38a95.91,95.91,0,0,0-10.5,2.22,26,26,0,0,0-5.05,1.92,7.48,7.48,0,0,0-1.11.71,3.35,3.35,0,0,0-.84.93,1.34,1.34,0,0,0-.08,1.14,2.6,2.6,0,0,0,.75,1,9.18,9.18,0,0,0,2.22,1.32c.79.36,1.61.66,2.43.94,1.65.54,3.32,1,5,1.35,3.34.75,6.66,1.31,9.93,1.79s6.51.86,9.68,1.19c6.36.66,12.5,1.1,18.41,1.43s11.6.52,17.06.65c21.84.46,40-.24,54.44-1.34s25.22-2.7,32.23-4.43a31.06,31.06,0,0,0,7.57-2.66,4.55,4.55,0,0,0,1.4-1.12,1.12,1.12,0,0,0,.22-.41c.07-.15.46-.21.83-.1a1.36,1.36,0,0,1,.49.26,1.2,1.2,0,0,1,.2.19l0,.09a2.09,2.09,0,0,1-.09.27,3,3,0,0,1-.54.84,8.17,8.17,0,0,1-2.68,1.8,50.18,50.18,0,0,1-10.86,3c-9.44,1.78-23,3.13-39.13,3.87s-34.83.86-54.56,0c-9.86-.44-20-1.12-30.14-2.35A148.77,148.77,0,0,1,159,70.1a38.07,38.07,0,0,1-7.39-2.37,9.27,9.27,0,0,1-1.72-1,4.13,4.13,0,0,1-.77-.74,2.41,2.41,0,0,1-.5-1.07,1.94,1.94,0,0,1,.2-1.22,3.25,3.25,0,0,1,.67-.9,8,8,0,0,1,1.68-1.16,23.47,23.47,0,0,1,3.61-1.49c1.22-.4,2.46-.74,3.7-1,2.49-.62,5-1.11,7.5-1.55,5-.86,10.05-1.49,15-2,10-1,19.85-1.59,29.41-1.93,19.1-.66,36.95-.37,52.23.48s28,2.31,36.76,4.16a41.42,41.42,0,0,1,10.06,3.12,6.13,6.13,0,0,1,2.4,2,3.88,3.88,0,0,1,.25.5,3.81,3.81,0,0,1,.11.42,3.27,3.27,0,0,1,0,.36Z" fill="#002d4f"/>
        </g>
        <g opacity="0.43" style="mix-blend-mode: overlay">
          <path d="M254.09,206.42c-9.5.58-17.32.69-23.69.72s-11.3-.12-15-.24c-7.47-.28-10.17-.56-10.17-.56l10.35.11c3.77,0,8.72,0,15.08-.08s14.14-.29,23.55-.86A310.74,310.74,0,0,0,294,200.86c4.09-.7,6.95-1.47,8.83-1.88l2.75-.63-2.7.76c-1.85.5-4.68,1.38-8.75,2.19C286,203.08,273.11,205.28,254.09,206.42Z" fill="#fff"/>
        </g>
        <g opacity="0.97" style="mix-blend-mode: overlay">
          <path d="M250.9,192.31c-9.52.55-17.36.52-23.74.43s-11.31-.4-15-.62-6.27-.5-7.88-.66l-2.28-.27,2.36.13c1.64.09,4.23.21,8,.35s8.72.3,15.09.3,14.16,0,23.59-.57c18.86-1.1,31.72-3.39,39.78-5.27,4.07-.83,6.88-1.78,8.75-2.27l2.72-.76-2.66.89c-1.84.56-4.62,1.63-8.67,2.57C282.88,188.67,270,191.21,250.9,192.31Z" fill="#fff"/>
        </g>
      </g>
      <path d="M233.93,321.27a251,251,0,0,0,45.42-4.19,135.3,135.3,0,0,0,27.67-8.2,70.09,70.09,0,0,0,13.3-7.29,26.48,26.48,0,0,0,3.43-2.79,21.9,21.9,0,0,1-3.29,3.17,63.83,63.83,0,0,1-13.24,8.16,124.66,124.66,0,0,1-27.91,9.06,230.93,230.93,0,0,1-45.63,4.52,254.16,254.16,0,0,1-46.63-3.5,139.19,139.19,0,0,1-30.16-8.6A70.62,70.62,0,0,1,141.54,303c-.73-.59-1.38-1.09-1.91-1.54l-1.27-1.17c-.64-.64-.93-1-.93-1s.32.32,1,.91l1.33,1.06c.55.41,1.22.86,2,1.41a76.84,76.84,0,0,0,15.55,7.81,151.31,151.31,0,0,0,30.12,7.73A279.3,279.3,0,0,0,233.93,321.27Z" fill="#09233c"/>
    </g>
  </g>
</svg>
